<?xml version="1.0" encoding="UTF-8" standalone="no"?>
<!-- Created with Inkscape (http://www.inkscape.org/) -->

<svg
   width="267.81613mm"
   height="55.102985mm"
   viewBox="0 0 267.81613 55.102985"
   version="1.1"
   id="svg1"
   inkscape:version="1.4 (86a8ad7, 2024-10-11)"
   sodipodi:docname="infographic.svg"
   xml:space="preserve"
   xmlns:inkscape="http://www.inkscape.org/namespaces/inkscape"
   xmlns:sodipodi="http://sodipodi.sourceforge.net/DTD/sodipodi-0.dtd"
   xmlns="http://www.w3.org/2000/svg"
   xmlns:svg="http://www.w3.org/2000/svg"><sodipodi:namedview
     id="namedview1"
     pagecolor="#ffffff"
     bordercolor="#666666"
     borderopacity="1.0"
     inkscape:showpageshadow="2"
     inkscape:pageopacity="0.0"
     inkscape:pagecheckerboard="0"
     inkscape:deskcolor="#d1d1d1"
     inkscape:document-units="mm"
     inkscape:zoom="1.0467522"
     inkscape:cx="596.1296"
     inkscape:cy="231.66896"
     inkscape:window-width="2560"
     inkscape:window-height="1377"
     inkscape:window-x="-8"
     inkscape:window-y="-8"
     inkscape:window-maximized="1"
     inkscape:current-layer="layer1" /><defs
     id="defs1"><rect
       x="-166.22845"
       y="420.34781"
       width="180.55849"
       height="91.71225"
       id="rect10" /><rect
       x="-153.80908"
       y="430.85648"
       width="136.61304"
       height="51.588139"
       id="rect9" /><rect
       x="-149.98775"
       y="385.00037"
       width="132.79169"
       height="54.454144"
       id="rect2" /><rect
       x="-149.98775"
       y="385.00037"
       width="177.69247"
       height="54.454144"
       id="rect2-6" /><rect
       x="-149.98775"
       y="385.00037"
       width="191.06717"
       height="133.74702"
       id="rect2-6-2" /><rect
       x="-149.98775"
       y="385.00037"
       width="213.99522"
       height="224.50394"
       id="rect2-6-2-7" /></defs><g
     inkscape:label="Layer 1"
     inkscape:groupmode="layer"
     id="layer1"
     transform="translate(52.828083,-87.196487)"><rect
       style="fill:#5a3d66;fill-opacity:0.8;stroke:none;stroke-width:0.765;stroke-dasharray:6.12, 0.765;stroke-opacity:0.5"
       id="rect1"
       width="55.102978"
       height="55.102978"
       x="-52.828083"
       y="87.196487"
       ry="3.9535365" /><rect
       style="fill:#9442b5;fill-opacity:0.8;stroke:none;stroke-width:0.765;stroke-dasharray:6.12, 0.765;stroke-opacity:0.5"
       id="rect1-2"
       width="55.102978"
       height="55.102978"
       x="18.076302"
       y="87.196495"
       ry="3.9535365" /><rect
       style="fill:#4493ae;fill-opacity:0.8;stroke:none;stroke-width:0.765;stroke-dasharray:6.12, 0.765;stroke-opacity:0.5"
       id="rect1-2-1"
       width="55.102978"
       height="55.102978"
       x="88.98069"
       y="87.196495"
       ry="3.9535365" /><rect
       style="fill:#a5ac20;fill-opacity:0.8;stroke:none;stroke-width:0.765;stroke-dasharray:6.12, 0.765;stroke-opacity:0.5"
       id="rect1-2-1-5"
       width="55.102978"
       height="55.102978"
       x="159.88507"
       y="87.196487"
       ry="3.9535365" /><text
       xml:space="preserve"
       transform="matrix(0.26458333,0,0,0.26458333,-3.0273098,-11.107141)"
       id="text2"
       style="font-size:40px;line-height:1.25;font-family:Jost;-inkscape-font-specification:Jost;text-align:center;white-space:pre;shape-inside:url(#rect2);display:inline"><tspan
         x="-134.37175"
         y="419.61938"
         id="tspan13"><tspan
           style="font-weight:bold;-inkscape-font-specification:'Jost Bold';fill:#ffffff"
           id="tspan12">Years</tspan></tspan></text><text
       xml:space="preserve"
       transform="matrix(0.26458333,0,0,0.26458333,61.751919,-10.260474)"
       id="text2-4"
       style="font-size:40px;line-height:1.25;font-family:Jost;-inkscape-font-specification:Jost;text-align:center;white-space:pre;shape-inside:url(#rect2-6);display:inline"><tspan
         x="-129.34156"
         y="419.61938"
         id="tspan15"><tspan
           style="font-weight:bold;-inkscape-font-specification:'Jost Bold';fill:#ffffff"
           id="tspan14">Grades</tspan></tspan></text><text
       xml:space="preserve"
       transform="matrix(0.26458333,0,0,0.26458333,131.14227,-8.1438074)"
       id="text2-4-1"
       style="font-size:32px;line-height:0.85;font-family:Jost;-inkscape-font-specification:Jost;text-align:center;white-space:pre;shape-inside:url(#rect2-6-2);display:inline"><tspan
         x="-126.27413"
         y="411.61938"
         id="tspan18"><tspan
           style="font-size:40px"
           id="tspan16">Schools</tspan><tspan
           style="font-weight:bold;-inkscape-font-specification:'Jost Bold';fill:#ffffff"
           id="tspan17">
</tspan></tspan><tspan
         x="-106.85415"
         y="440.2955"
         id="tspan20"><tspan
           style="font-size:26.6667px"
           id="tspan19">per year</tspan></tspan></text><text
       xml:space="preserve"
       transform="matrix(0.26458333,0,0,0.26458333,198.62408,-8.1438074)"
       id="text2-4-1-1"
       style="font-size:32px;line-height:0.85;font-family:Jost;-inkscape-font-specification:Jost;text-align:center;white-space:pre;shape-inside:url(#rect2-6-2-7);display:inline"><tspan
         x="-124.13029"
         y="411.61938"
         id="tspan23"><tspan
           style="font-size:40px"
           id="tspan21">Students</tspan><tspan
           style="font-weight:bold;-inkscape-font-specification:'Jost Bold';fill:#ffffff"
           id="tspan22">
</tspan></tspan><tspan
         x="-139.49701"
         y="440.2955"
         id="tspan25"><tspan
           style="font-size:26.6667px"
           id="tspan24">per grade/year</tspan></tspan></text><text
       xml:space="preserve"
       transform="scale(0.26458333)"
       id="text9"
       style="font-style:normal;font-variant:normal;font-weight:normal;font-stretch:normal;font-size:40px;line-height:1.25;font-family:'Fira Sans';-inkscape-font-specification:'Fira Sans';text-align:center;white-space:pre;shape-inside:url(#rect9);display:inline" /><text
       xml:space="preserve"
       transform="scale(0.26458333)"
       id="text10"
       style="font-size:34.6667px;line-height:1.25;font-family:Jost;-inkscape-font-specification:Jost;text-align:center;white-space:pre;shape-inside:url(#rect10);display:inline" /><text
       xml:space="preserve"
       style="font-size:10.5833px;line-height:1.25;font-family:Jost;-inkscape-font-specification:Jost;text-align:center;text-anchor:middle;stroke-width:0.264583"
       x="-25.154886"
       y="136.30255"
       id="text11"><tspan
         sodipodi:role="line"
         id="tspan11"
         style="font-style:normal;font-variant:normal;font-weight:normal;font-stretch:normal;font-family:'Fira Sans Condensed';-inkscape-font-specification:'Fira Sans Condensed, ';fill:#ffffff;fill-opacity:1;stroke-width:0.264583"
         x="-25.154886"
         y="136.30255">2011-2018</tspan></text><text
       xml:space="preserve"
       style="font-size:10.5833px;line-height:1.25;font-family:Jost;-inkscape-font-specification:Jost;text-align:center;text-anchor:middle;stroke-width:0.264583"
       x="45.950584"
       y="136.66768"
       id="text11-4"><tspan
         sodipodi:role="line"
         id="tspan11-3"
         style="font-style:normal;font-variant:normal;font-weight:normal;font-stretch:normal;font-family:'Fira Sans Condensed';-inkscape-font-specification:'Fira Sans Condensed, ';fill:#ffffff;fill-opacity:1;stroke-width:0.264583"
         x="45.950584"
         y="136.66768">2nd to 10th</tspan></text><g
       id="g1"
       transform="translate(147.22529,11.916837)"><text
         xml:space="preserve"
         style="font-size:10.5833px;line-height:1.25;font-family:Jost;-inkscape-font-specification:Jost;text-align:center;text-anchor:middle;stroke-width:0.264583"
         x="-30.331915"
         y="123.60255"
         id="text11-3"><tspan
           sodipodi:role="line"
           id="tspan11-4"
           style="font-style:normal;font-variant:normal;font-weight:normal;font-stretch:normal;font-family:'Fira Sans Condensed';-inkscape-font-specification:'Fira Sans Condensed, ';fill:#ffffff;fill-opacity:1;stroke-width:0.264583"
           x="-30.331915"
           y="123.60255">~ 5,500</tspan></text><text
         xml:space="preserve"
         style="font-size:10.5833px;line-height:1.25;font-family:Jost;-inkscape-font-specification:Jost;text-align:center;text-anchor:middle;stroke-width:0.264583"
         x="42.138367"
         y="122.18707"
         id="text11-3-7"><tspan
           sodipodi:role="line"
           id="tspan11-4-4"
           style="font-style:normal;font-variant:normal;font-weight:normal;font-stretch:normal;font-family:'Fira Sans Condensed';-inkscape-font-specification:'Fira Sans Condensed, ';fill:#ffffff;fill-opacity:1;stroke-width:0.264583"
           x="42.138367"
           y="122.18707" /></text></g><g
       id="g2"
       transform="translate(296.99878,11.916837)"><text
         xml:space="preserve"
         style="font-size:10.5833px;line-height:1.25;font-family:Jost;-inkscape-font-specification:Jost;text-align:center;text-anchor:middle;stroke-width:0.264583"
         x="-109.4511"
         y="123.60255"
         id="text11-3-3"><tspan
           sodipodi:role="line"
           id="tspan11-4-1"
           style="font-style:normal;font-variant:normal;font-weight:normal;font-stretch:normal;font-family:'Fira Sans Condensed';-inkscape-font-specification:'Fira Sans Condensed, ';fill:#ffffff;fill-opacity:1;stroke-width:0.264583"
           x="-109.4511"
           y="123.60255">~ 250,000</tspan></text><text
         xml:space="preserve"
         style="font-size:10.5833px;line-height:1.25;font-family:Jost;-inkscape-font-specification:Jost;text-align:center;text-anchor:middle;stroke-width:0.264583"
         x="42.138367"
         y="122.18707"
         id="text11-3-7-9"><tspan
           sodipodi:role="line"
           id="tspan11-4-4-8"
           style="font-style:normal;font-variant:normal;font-weight:normal;font-stretch:normal;font-family:'Fira Sans Condensed';-inkscape-font-specification:'Fira Sans Condensed, ';fill:#ffffff;fill-opacity:1;stroke-width:0.264583"
           x="42.138367"
           y="122.18707" /></text></g><path
       d="m -27.95637,113.5198 c 0,-0.28575 -0.229881,-0.51562 -0.515625,-0.51562 -0.285742,0 -0.515624,0.22987 -0.515624,0.51562 v 0.85938 h -0.859376 c -0.758398,0 -1.375,0.6166 -1.375,1.37501 v 0.34374 1.03125 5.5 c 0,0.75839 0.616602,1.375 1.375,1.375 h 6.875001 c 0.758399,0 1.375,-0.61661 1.375,-1.375 v -5.5 -1.03125 -0.34374 c 0,-0.75841 -0.616601,-1.37501 -1.375,-1.37501 h -0.859375 v -0.85938 c 0,-0.28575 -0.229882,-0.51562 -0.515625,-0.51562 -0.285742,0 -0.515625,0.22987 -0.515625,0.51562 v 0.85938 h -3.093751 z m -2.234374,3.60938 h 7.5625 v 5.5 c 0,0.18907 -0.154688,0.34376 -0.34375,0.34376 h -6.875001 c -0.189062,0 -0.343749,-0.15469 -0.343749,-0.34376 z"
       id="path1"
       style="fill:#ffffff;fill-opacity:1;stroke-width:0.0214843" /><path
       d="m 44.582477,113.00418 c -0.139215,0 -0.276712,0.0241 -0.407334,0.0705 l -4.820978,1.74106 c -0.163277,0.0602 -0.271557,0.21483 -0.271557,0.38842 0,0.17359 0.108284,0.32827 0.271557,0.38843 l 0.995133,0.35921 c -0.281869,0.44343 -0.44171,0.96763 -0.44171,1.51934 v 0.48296 c 0,0.48812 -0.18562,0.9917 -0.38327,1.38872 -0.111718,0.22343 -0.238902,0.44343 -0.386711,0.64624 -0.055,0.0739 -0.07047,0.17015 -0.03953,0.25781 0.03093,0.0877 0.103125,0.15296 0.192496,0.1753 l 1.099973,0.27499 c 0.07218,0.0189 0.149528,0.005 0.21312,-0.0343 0.06359,-0.0395 0.108273,-0.10483 0.122028,-0.17874 0.14781,-0.73561 0.07391,-1.39559 -0.03609,-1.86824 -0.055,-0.24405 -0.128903,-0.49327 -0.232026,-0.72185 v -0.42281 c 0,-0.51904 0.175309,-1.00888 0.479521,-1.40075 0.221713,-0.2664 0.508737,-0.48124 0.845604,-0.61358 l 2.698373,-1.06044 c 0.140934,-0.055 0.300774,0.0138 0.355773,0.15469 0.055,0.14093 -0.01375,0.30077 -0.154684,0.35577 l -2.698373,1.06044 c -0.21312,0.0843 -0.40046,0.21312 -0.553424,0.37125 l 2.743059,0.98998 c 0.130621,0.0464 0.268119,0.0705 0.407334,0.0705 0.139215,0 0.276712,-0.0241 0.407335,-0.0705 l 4.822696,-1.7359 c 0.163277,-0.0584 0.271556,-0.21484 0.271556,-0.38844 0,-0.17359 -0.108284,-0.32827 -0.271556,-0.38842 l -4.820978,-1.74105 c -0.130622,-0.0464 -0.268119,-0.0705 -0.407335,-0.0705 z m -3.299921,6.46235 c 0,0.6067 1.478089,1.23746 3.299921,1.23746 1.821832,0 3.299921,-0.63076 3.299921,-1.23746 l -0.262963,-2.49901 -2.444003,0.88341 c -0.190777,0.0687 -0.391865,0.10307 -0.592955,0.10307 -0.201088,0 -0.403896,-0.0343 -0.592954,-0.10307 l -2.444004,-0.88341 z"
       id="path1-0"
       style="fill:#ffffff;fill-opacity:1;stroke-width:0.0171871" /><path
       d="m 117.22462,113.12019 c -0.23203,-0.15469 -0.53281,-0.15469 -0.76485,0 l -2.91972,1.94648 h -2.5416 c -0.56934,0 -1.03125,0.46191 -1.03125,1.03125 v 6.875 c 0,0.56934 0.46191,1.03125 1.03125,1.03125 h 4.46875 v -2.0625 c 0,-0.7584 0.6166,-1.375 1.375,-1.375 0.75839,0 1.375,0.6166 1.375,1.375 v 2.0625 h 4.46875 c 0.56933,0 1.03125,-0.46191 1.03125,-1.03125 v -6.875 c 0,-0.56934 -0.46192,-1.03125 -1.03125,-1.03125 h -2.54161 z m -5.19492,4.00898 h 0.6875 c 0.18906,0 0.34375,0.15469 0.34375,0.34375 v 1.375 c 0,0.18906 -0.15469,0.34375 -0.34375,0.34375 h -0.6875 c -0.18907,0 -0.34375,-0.15469 -0.34375,-0.34375 v -1.375 c 0,-0.18906 0.15468,-0.34375 0.34375,-0.34375 z m 8.59375,0.34375 c 0,-0.18906 0.15468,-0.34375 0.34375,-0.34375 h 0.6875 c 0.18906,0 0.34375,0.15469 0.34375,0.34375 v 1.375 c 0,0.18906 -0.15469,0.34375 -0.34375,0.34375 h -0.6875 c -0.18907,0 -0.34375,-0.15469 -0.34375,-0.34375 z m -8.59375,2.40625 h 0.6875 c 0.18906,0 0.34375,0.15469 0.34375,0.34375 v 1.375 c 0,0.18906 -0.15469,0.34375 -0.34375,0.34375 h -0.6875 c -0.18907,0 -0.34375,-0.15469 -0.34375,-0.34375 v -1.375 c 0,-0.18906 0.15468,-0.34375 0.34375,-0.34375 z m 8.59375,0.34375 c 0,-0.18906 0.15468,-0.34375 0.34375,-0.34375 h 0.6875 c 0.18906,0 0.34375,0.15469 0.34375,0.34375 v 1.375 c 0,0.18906 -0.15469,0.34375 -0.34375,0.34375 h -0.6875 c -0.18907,0 -0.34375,-0.15469 -0.34375,-0.34375 z m -5.67188,-3.4375 a 1.8906253,1.8906253 0 1 1 3.78125,0 1.8906253,1.8906253 0 1 1 -3.78125,0 z m 1.89063,-1.03125 c -0.18907,0 -0.34375,0.15469 -0.34375,0.34375 v 0.6875 c 0,0.18906 0.15468,0.34375 0.34375,0.34375 h 0.6875 c 0.18906,0 0.34375,-0.15469 0.34375,-0.34375 0,-0.18906 -0.15469,-0.34375 -0.34375,-0.34375 h -0.34375 v -0.34375 c 0,-0.18906 -0.15469,-0.34375 -0.34375,-0.34375 z"
       id="path1-6"
       style="fill:#ffffff;fill-opacity:1;stroke-width:0.0214843" /><path
       d="m 187.1478,113.01385 c 0.0666,-0.0129 0.13536,-0.0129 0.20197,0 l 4.2973,0.85946 c 0.24065,0.0473 0.41469,0.25998 0.41469,0.50493 0,0.24494 -0.17404,0.45766 -0.41469,0.50493 l -1.64802,0.33089 v 1.22688 c 0,1.51909 -1.23117,2.75027 -2.75026,2.75027 -1.5191,0 -2.75027,-1.23118 -2.75027,-2.75027 v -1.22688 l -1.03135,-0.20627 v 1.39877 l 0.33733,1.68454 c 0.0193,0.10099 -0.006,0.20627 -0.0709,0.28577 -0.0645,0.0795 -0.16329,0.12677 -0.26643,0.12677 h -0.68757 c -0.10313,0 -0.19982,-0.0451 -0.26643,-0.12677 -0.0666,-0.0816 -0.0924,-0.18478 -0.0709,-0.28577 l 0.33734,-1.68454 v -1.54273 c -0.20412,-0.0709 -0.34378,-0.26428 -0.34378,-0.48559 0,-0.24495 0.17404,-0.45766 0.41468,-0.50493 z m -2.30765,7.03037 c 0.22561,-0.073 0.46841,0.009 0.6317,0.18264 l 1.52554,1.62222 c 0.13537,0.14396 0.36527,0.14396 0.50064,0 l 1.52554,-1.62222 c 0.1633,-0.17404 0.40609,-0.25569 0.6317,-0.18264 1.39662,0.44907 2.40649,1.75545 2.40649,3.30032 0,0.36527 -0.29652,0.65964 -0.65964,0.65964 h -8.30667 c -0.36312,0 -0.65964,-0.29652 -0.65964,-0.65964 0,-1.54487 1.00987,-2.85125 2.40434,-3.30032 z"
       id="path1-00"
       style="fill:#ffffff;fill-opacity:1;stroke-width:0.0214864" /></g></svg>
