<?xml version="1.0" encoding="UTF-8"?>
<svg xmlns="http://www.w3.org/2000/svg" xmlns:xlink="http://www.w3.org/1999/xlink" width="432pt" height="360pt" viewBox="0 0 432 360" version="1.1">
<defs>
<clipPath id="clip1">
  <path d="M 50 245 L 402.113281 245 L 402.113281 246 L 50 246 Z M 50 245 "/>
</clipPath>
<clipPath id="clip2">
  <path d="M 50 159 L 402.113281 159 L 402.113281 160 L 50 160 Z M 50 159 "/>
</clipPath>
<clipPath id="clip3">
  <path d="M 50 73 L 402.113281 73 L 402.113281 74 L 50 74 Z M 50 73 "/>
</clipPath>
<clipPath id="clip4">
  <path d="M 119 29.886719 L 120 29.886719 L 120 310 L 119 310 Z M 119 29.886719 "/>
</clipPath>
<clipPath id="clip5">
  <path d="M 208 29.886719 L 209 29.886719 L 209 310 L 208 310 Z M 208 29.886719 "/>
</clipPath>
<clipPath id="clip6">
  <path d="M 296 29.886719 L 298 29.886719 L 298 310 L 296 310 Z M 296 29.886719 "/>
</clipPath>
<clipPath id="clip7">
  <path d="M 385 29.886719 L 387 29.886719 L 387 310 L 385 310 Z M 385 29.886719 "/>
</clipPath>
<clipPath id="clip8">
  <path d="M 242 29.886719 L 245 29.886719 L 245 310 L 242 310 Z M 242 29.886719 "/>
</clipPath>
<clipPath id="clip9">
  <path d="M 135 29.886719 L 139 29.886719 L 139 310 L 135 310 Z M 135 29.886719 "/>
</clipPath>
</defs>
<g id="surface114">
<rect x="0" y="0" width="432" height="360" style="fill:rgb(100%,100%,100%);fill-opacity:1;stroke:none;"/>
<g clip-path="url(#clip1)" clip-rule="nonzero">
<path style="fill:none;stroke-width:0.426791;stroke-linecap:butt;stroke-linejoin:round;stroke:rgb(80%,80%,80%);stroke-opacity:1;stroke-miterlimit:10;" d="M 50 245.648438 L 402.113281 245.648438 "/>
</g>
<g clip-path="url(#clip2)" clip-rule="nonzero">
<path style="fill:none;stroke-width:0.426791;stroke-linecap:butt;stroke-linejoin:round;stroke:rgb(80%,80%,80%);stroke-opacity:1;stroke-miterlimit:10;" d="M 50 159.621094 L 402.113281 159.621094 "/>
</g>
<g clip-path="url(#clip3)" clip-rule="nonzero">
<path style="fill:none;stroke-width:0.426791;stroke-linecap:butt;stroke-linejoin:round;stroke:rgb(80%,80%,80%);stroke-opacity:1;stroke-miterlimit:10;" d="M 50 73.589844 L 402.113281 73.589844 "/>
</g>
<g clip-path="url(#clip4)" clip-rule="nonzero">
<path style="fill:none;stroke-width:0.426791;stroke-linecap:butt;stroke-linejoin:round;stroke:rgb(80%,80%,80%);stroke-opacity:1;stroke-miterlimit:10;" d="M 119.355469 310 L 119.355469 29.886719 "/>
</g>
<g clip-path="url(#clip5)" clip-rule="nonzero">
<path style="fill:none;stroke-width:0.426791;stroke-linecap:butt;stroke-linejoin:round;stroke:rgb(80%,80%,80%);stroke-opacity:1;stroke-miterlimit:10;" d="M 208.273438 310 L 208.273438 29.886719 "/>
</g>
<g clip-path="url(#clip6)" clip-rule="nonzero">
<path style="fill:none;stroke-width:0.426791;stroke-linecap:butt;stroke-linejoin:round;stroke:rgb(80%,80%,80%);stroke-opacity:1;stroke-miterlimit:10;" d="M 297.191406 310 L 297.191406 29.886719 "/>
</g>
<g clip-path="url(#clip7)" clip-rule="nonzero">
<path style="fill:none;stroke-width:0.426791;stroke-linecap:butt;stroke-linejoin:round;stroke:rgb(80%,80%,80%);stroke-opacity:1;stroke-miterlimit:10;" d="M 386.105469 310 L 386.105469 29.886719 "/>
</g>
<path style="fill-rule:nonzero;fill:rgb(79.607843%,70.196078%,74.901961%);fill-opacity:1;stroke-width:0.708661;stroke-linecap:round;stroke-linejoin:round;stroke:rgb(79.607843%,70.196078%,74.901961%);stroke-opacity:1;stroke-miterlimit:10;" d="M 69.5625 297.265625 C 69.5625 302.007813 62.449219 302.007813 62.449219 297.265625 C 62.449219 292.527344 69.5625 292.527344 69.5625 297.265625 "/>
<path style="fill-rule:nonzero;fill:rgb(79.607843%,70.196078%,74.901961%);fill-opacity:1;stroke-width:0.708661;stroke-linecap:round;stroke-linejoin:round;stroke:rgb(79.607843%,70.196078%,74.901961%);stroke-opacity:1;stroke-miterlimit:10;" d="M 105.128906 280.0625 C 105.128906 284.800781 98.015625 284.800781 98.015625 280.0625 C 98.015625 275.320313 105.128906 275.320313 105.128906 280.0625 "/>
<path style="fill-rule:nonzero;fill:rgb(79.607843%,70.196078%,74.901961%);fill-opacity:1;stroke-width:0.708661;stroke-linecap:round;stroke-linejoin:round;stroke:rgb(79.607843%,70.196078%,74.901961%);stroke-opacity:1;stroke-miterlimit:10;" d="M 140.695313 262.855469 C 140.695313 267.597656 133.582031 267.597656 133.582031 262.855469 C 133.582031 258.113281 140.695313 258.113281 140.695313 262.855469 "/>
<path style="fill-rule:nonzero;fill:rgb(79.607843%,70.196078%,74.901961%);fill-opacity:1;stroke-width:0.708661;stroke-linecap:round;stroke-linejoin:round;stroke:rgb(79.607843%,70.196078%,74.901961%);stroke-opacity:1;stroke-miterlimit:10;" d="M 176.261719 245.648438 C 176.261719 250.390625 169.152344 250.390625 169.152344 245.648438 C 169.152344 240.910156 176.261719 240.910156 176.261719 245.648438 "/>
<path style="fill-rule:nonzero;fill:rgb(79.607843%,70.196078%,74.901961%);fill-opacity:1;stroke-width:0.708661;stroke-linecap:round;stroke-linejoin:round;stroke:rgb(79.607843%,70.196078%,74.901961%);stroke-opacity:1;stroke-miterlimit:10;" d="M 211.828125 228.445313 C 211.828125 233.183594 204.71875 233.183594 204.71875 228.445313 C 204.71875 223.703125 211.828125 223.703125 211.828125 228.445313 "/>
<path style="fill-rule:nonzero;fill:rgb(79.607843%,70.196078%,74.901961%);fill-opacity:1;stroke-width:0.708661;stroke-linecap:round;stroke-linejoin:round;stroke:rgb(79.607843%,70.196078%,74.901961%);stroke-opacity:1;stroke-miterlimit:10;" d="M 247.394531 211.238281 C 247.394531 215.976563 240.285156 215.976563 240.285156 211.238281 C 240.285156 206.496094 247.394531 206.496094 247.394531 211.238281 "/>
<path style="fill-rule:nonzero;fill:rgb(79.607843%,70.196078%,74.901961%);fill-opacity:1;stroke-width:0.708661;stroke-linecap:round;stroke-linejoin:round;stroke:rgb(79.607843%,70.196078%,74.901961%);stroke-opacity:1;stroke-miterlimit:10;" d="M 282.960938 194.03125 C 282.960938 198.773438 275.851563 198.773438 275.851563 194.03125 C 275.851563 189.292969 282.960938 189.292969 282.960938 194.03125 "/>
<path style="fill-rule:nonzero;fill:rgb(79.607843%,70.196078%,74.901961%);fill-opacity:1;stroke-width:0.708661;stroke-linecap:round;stroke-linejoin:round;stroke:rgb(79.607843%,70.196078%,74.901961%);stroke-opacity:1;stroke-miterlimit:10;" d="M 318.527344 176.824219 C 318.527344 181.566406 311.417969 181.566406 311.417969 176.824219 C 311.417969 172.085938 318.527344 172.085938 318.527344 176.824219 "/>
<path style="fill-rule:nonzero;fill:rgb(79.607843%,70.196078%,74.901961%);fill-opacity:1;stroke-width:0.708661;stroke-linecap:round;stroke-linejoin:round;stroke:rgb(79.607843%,70.196078%,74.901961%);stroke-opacity:1;stroke-miterlimit:10;" d="M 354.09375 159.621094 C 354.09375 164.359375 346.984375 164.359375 346.984375 159.621094 C 346.984375 154.878906 354.09375 154.878906 354.09375 159.621094 "/>
<path style="fill-rule:nonzero;fill:rgb(79.607843%,70.196078%,74.901961%);fill-opacity:1;stroke-width:0.708661;stroke-linecap:round;stroke-linejoin:round;stroke:rgb(79.607843%,70.196078%,74.901961%);stroke-opacity:1;stroke-miterlimit:10;" d="M 389.664063 142.414063 C 389.664063 147.15625 382.550781 147.15625 382.550781 142.414063 C 382.550781 137.675781 389.664063 137.675781 389.664063 142.414063 "/>
<path style="fill-rule:nonzero;fill:rgb(100%,78.431373%,34.117647%);fill-opacity:1;stroke-width:0.708661;stroke-linecap:round;stroke-linejoin:round;stroke:rgb(100%,78.431373%,34.117647%);stroke-opacity:1;stroke-miterlimit:10;" d="M 69.5625 280.0625 C 69.5625 284.800781 62.449219 284.800781 62.449219 280.0625 C 62.449219 275.320313 69.5625 275.320313 69.5625 280.0625 "/>
<path style="fill-rule:nonzero;fill:rgb(100%,78.431373%,34.117647%);fill-opacity:1;stroke-width:0.708661;stroke-linecap:round;stroke-linejoin:round;stroke:rgb(100%,78.431373%,34.117647%);stroke-opacity:1;stroke-miterlimit:10;" d="M 105.128906 262.855469 C 105.128906 267.597656 98.015625 267.597656 98.015625 262.855469 C 98.015625 258.113281 105.128906 258.113281 105.128906 262.855469 "/>
<path style="fill-rule:nonzero;fill:rgb(100%,78.431373%,34.117647%);fill-opacity:1;stroke-width:0.708661;stroke-linecap:round;stroke-linejoin:round;stroke:rgb(100%,78.431373%,34.117647%);stroke-opacity:1;stroke-miterlimit:10;" d="M 140.695313 245.648438 C 140.695313 250.390625 133.582031 250.390625 133.582031 245.648438 C 133.582031 240.910156 140.695313 240.910156 140.695313 245.648438 "/>
<path style="fill-rule:nonzero;fill:rgb(100%,78.431373%,34.117647%);fill-opacity:1;stroke-width:0.708661;stroke-linecap:round;stroke-linejoin:round;stroke:rgb(100%,78.431373%,34.117647%);stroke-opacity:1;stroke-miterlimit:10;" d="M 176.261719 228.445313 C 176.261719 233.183594 169.152344 233.183594 169.152344 228.445313 C 169.152344 223.703125 176.261719 223.703125 176.261719 228.445313 "/>
<path style="fill-rule:nonzero;fill:rgb(100%,78.431373%,34.117647%);fill-opacity:1;stroke-width:0.708661;stroke-linecap:round;stroke-linejoin:round;stroke:rgb(100%,78.431373%,34.117647%);stroke-opacity:1;stroke-miterlimit:10;" d="M 211.828125 211.238281 C 211.828125 215.976563 204.71875 215.976563 204.71875 211.238281 C 204.71875 206.496094 211.828125 206.496094 211.828125 211.238281 "/>
<path style="fill-rule:nonzero;fill:rgb(100%,78.431373%,34.117647%);fill-opacity:1;stroke-width:0.708661;stroke-linecap:round;stroke-linejoin:round;stroke:rgb(100%,78.431373%,34.117647%);stroke-opacity:1;stroke-miterlimit:10;" d="M 247.394531 194.03125 C 247.394531 198.773438 240.285156 198.773438 240.285156 194.03125 C 240.285156 189.292969 247.394531 189.292969 247.394531 194.03125 "/>
<path style="fill-rule:nonzero;fill:rgb(100%,78.431373%,34.117647%);fill-opacity:1;stroke-width:0.708661;stroke-linecap:round;stroke-linejoin:round;stroke:rgb(100%,78.431373%,34.117647%);stroke-opacity:1;stroke-miterlimit:10;" d="M 282.960938 156.179688 C 282.960938 160.917969 275.851563 160.917969 275.851563 156.179688 C 275.851563 151.4375 282.960938 151.4375 282.960938 156.179688 "/>
<path style="fill-rule:nonzero;fill:rgb(100%,78.431373%,34.117647%);fill-opacity:1;stroke-width:0.708661;stroke-linecap:round;stroke-linejoin:round;stroke:rgb(100%,78.431373%,34.117647%);stroke-opacity:1;stroke-miterlimit:10;" d="M 318.527344 118.324219 C 318.527344 123.066406 311.417969 123.066406 311.417969 118.324219 C 311.417969 113.585938 318.527344 113.585938 318.527344 118.324219 "/>
<path style="fill-rule:nonzero;fill:rgb(100%,78.431373%,34.117647%);fill-opacity:1;stroke-width:0.708661;stroke-linecap:round;stroke-linejoin:round;stroke:rgb(100%,78.431373%,34.117647%);stroke-opacity:1;stroke-miterlimit:10;" d="M 354.09375 80.472656 C 354.09375 85.214844 346.984375 85.214844 346.984375 80.472656 C 346.984375 75.734375 354.09375 75.734375 354.09375 80.472656 "/>
<path style="fill-rule:nonzero;fill:rgb(100%,78.431373%,34.117647%);fill-opacity:1;stroke-width:0.708661;stroke-linecap:round;stroke-linejoin:round;stroke:rgb(100%,78.431373%,34.117647%);stroke-opacity:1;stroke-miterlimit:10;" d="M 389.664063 42.621094 C 389.664063 47.359375 382.550781 47.359375 382.550781 42.621094 C 382.550781 37.878906 389.664063 37.878906 389.664063 42.621094 "/>
<path style="fill:none;stroke-width:2.133957;stroke-linecap:butt;stroke-linejoin:round;stroke:rgb(79.607843%,70.196078%,74.901961%);stroke-opacity:1;stroke-miterlimit:10;" d="M 66.003906 297.265625 L 101.574219 280.0625 L 172.707031 245.648438 L 208.273438 228.445313 L 314.972656 176.824219 L 350.539063 159.621094 L 386.105469 142.414063 "/>
<path style="fill:none;stroke-width:2.133957;stroke-linecap:butt;stroke-linejoin:round;stroke:rgb(100%,78.431373%,34.117647%);stroke-opacity:1;stroke-miterlimit:10;" d="M 66.003906 280.0625 L 101.574219 262.855469 L 137.140625 245.648438 L 172.707031 228.445313 L 243.839844 194.03125 L 279.40625 156.179688 L 314.972656 118.324219 L 386.105469 42.621094 "/>
<g clip-path="url(#clip8)" clip-rule="nonzero">
<path style="fill:none;stroke-width:1.707165;stroke-linecap:butt;stroke-linejoin:round;stroke:rgb(66.27451%,66.27451%,66.27451%);stroke-opacity:1;stroke-dasharray:6.828661,6.828661;stroke-miterlimit:10;" d="M 243.839844 310 L 243.839844 29.886719 "/>
</g>
<g clip-path="url(#clip9)" clip-rule="nonzero">
<path style="fill:none;stroke-width:2.347352;stroke-linecap:butt;stroke-linejoin:round;stroke:rgb(6.666667%,61.568627%,64.313725%);stroke-opacity:1;stroke-dasharray:9.389409,9.389409;stroke-miterlimit:10;" d="M 137.140625 310 L 137.140625 29.886719 "/>
</g>
<path style=" stroke:none;fill-rule:nonzero;fill:rgb(6.666667%,61.568627%,64.313725%);fill-opacity:1;" d="M 81.832031 68.695313 L 82.175781 68.703125 L 82.503906 68.726563 L 82.816406 68.765625 L 83.109375 68.816406 L 83.386719 68.886719 L 83.648438 68.96875 L 83.890625 69.066406 L 84.117188 69.179688 L 84.328125 69.308594 L 84.523438 69.449219 L 84.699219 69.609375 L 84.855469 69.78125 L 84.992188 69.972656 L 85.113281 70.175781 L 85.214844 70.394531 L 85.296875 70.628906 L 85.363281 70.875 L 85.410156 71.140625 L 85.4375 71.417969 L 85.445313 71.714844 L 85.4375 72.023438 L 85.410156 72.316406 L 85.359375 72.597656 L 85.292969 72.859375 L 85.207031 73.105469 L 85.105469 73.332031 L 84.980469 73.546875 L 84.835938 73.742188 L 84.675781 73.925781 L 84.492188 74.089844 L 84.296875 74.234375 L 84.089844 74.367188 L 83.863281 74.480469 L 83.625 74.582031 L 83.371094 74.664063 L 83.101563 74.734375 L 82.816406 74.789063 L 82.519531 74.828125 L 82.203125 74.847656 L 81.875 74.855469 L 80.9375 74.855469 L 80.9375 78.484375 L 79.613281 78.484375 L 79.613281 68.695313 Z M 81.832031 73.832031 L 82.050781 73.828125 L 82.261719 73.8125 L 82.457031 73.789063 L 82.640625 73.757813 L 82.816406 73.714844 L 82.976563 73.664063 L 83.128906 73.601563 L 83.265625 73.53125 L 83.394531 73.453125 L 83.511719 73.363281 L 83.617188 73.261719 L 83.710938 73.148438 L 83.792969 73.019531 L 83.867188 72.875 L 83.929688 72.71875 L 83.976563 72.550781 L 84.015625 72.363281 L 84.042969 72.164063 L 84.0625 71.953125 L 84.066406 71.726563 L 84.0625 71.519531 L 84.042969 71.324219 L 84.015625 71.140625 L 83.976563 70.96875 L 83.929688 70.808594 L 83.867188 70.660156 L 83.792969 70.527344 L 83.710938 70.402344 L 83.617188 70.289063 L 83.511719 70.191406 L 83.398438 70.097656 L 83.273438 70.015625 L 83.136719 69.945313 L 82.984375 69.882813 L 82.824219 69.828125 L 82.652344 69.785156 L 82.46875 69.75 L 82.273438 69.726563 L 82.066406 69.710938 L 81.847656 69.707031 L 80.9375 69.707031 L 80.9375 73.832031 Z M 81.832031 73.832031 "/>
<path style=" stroke:none;fill-rule:nonzero;fill:rgb(6.666667%,61.568627%,64.313725%);fill-opacity:1;" d="M 88.40625 78.667969 L 88.273438 78.664063 L 88.144531 78.652344 L 88.023438 78.632813 L 87.90625 78.605469 L 87.792969 78.566406 L 87.6875 78.519531 L 87.589844 78.46875 L 87.496094 78.40625 L 87.40625 78.335938 L 87.324219 78.257813 L 87.25 78.171875 L 87.179688 78.078125 L 87.121094 77.980469 L 87.070313 77.875 L 87.027344 77.761719 L 86.988281 77.644531 L 86.960938 77.519531 L 86.941406 77.386719 L 86.929688 77.25 L 86.925781 77.105469 L 86.925781 67.972656 L 88.207031 67.828125 L 88.207031 77.0625 L 88.210938 77.167969 L 88.226563 77.261719 L 88.246094 77.34375 L 88.28125 77.417969 L 88.320313 77.476563 L 88.371094 77.527344 L 88.429688 77.566406 L 88.496094 77.59375 L 88.574219 77.613281 L 88.660156 77.617188 L 88.699219 77.617188 L 88.777344 77.609375 L 88.816406 77.601563 L 88.859375 77.59375 L 88.898438 77.585938 L 88.984375 77.5625 L 89.03125 77.546875 L 89.074219 77.53125 L 89.359375 78.429688 L 89.265625 78.472656 L 89.175781 78.515625 L 89.082031 78.550781 L 88.988281 78.582031 L 88.894531 78.609375 L 88.796875 78.632813 L 88.699219 78.648438 L 88.601563 78.660156 L 88.503906 78.667969 Z M 88.40625 78.667969 "/>
<path style=" stroke:none;fill-rule:nonzero;fill:rgb(6.666667%,61.568627%,64.313725%);fill-opacity:1;" d="M 95.417969 76.777344 L 95.421875 76.867188 L 95.429688 77.03125 L 95.441406 77.105469 L 95.453125 77.175781 L 95.464844 77.242188 L 95.480469 77.304688 L 95.5 77.359375 L 95.523438 77.414063 L 95.546875 77.460938 L 95.574219 77.503906 L 95.605469 77.542969 L 95.636719 77.578125 L 95.671875 77.613281 L 95.710938 77.648438 L 95.796875 77.710938 L 95.84375 77.738281 L 95.894531 77.765625 L 95.945313 77.789063 L 95.675781 78.65625 L 95.566406 78.636719 L 95.363281 78.589844 L 95.269531 78.558594 L 95.179688 78.527344 L 95.097656 78.492188 L 95.015625 78.453125 L 94.941406 78.410156 L 94.871094 78.363281 L 94.746094 78.261719 L 94.636719 78.136719 L 94.585938 78.066406 L 94.539063 77.992188 L 94.5 77.910156 L 94.460938 77.824219 L 94.425781 77.730469 L 94.394531 77.632813 L 94.367188 77.53125 L 94.214844 77.746094 L 94.054688 77.941406 L 93.878906 78.113281 L 93.691406 78.261719 L 93.496094 78.386719 L 93.285156 78.488281 L 93.066406 78.566406 L 92.832031 78.625 L 92.589844 78.660156 L 92.332031 78.667969 L 92.136719 78.664063 L 91.949219 78.644531 L 91.773438 78.613281 L 91.601563 78.570313 L 91.441406 78.515625 L 91.285156 78.449219 L 91.140625 78.371094 L 91.003906 78.277344 L 90.875 78.175781 L 90.753906 78.058594 L 90.640625 77.929688 L 90.542969 77.792969 L 90.457031 77.644531 L 90.378906 77.492188 L 90.316406 77.328125 L 90.261719 77.160156 L 90.222656 76.980469 L 90.191406 76.792969 L 90.175781 76.597656 L 90.167969 76.394531 L 90.175781 76.160156 L 90.203125 75.9375 L 90.242188 75.726563 L 90.296875 75.527344 L 90.367188 75.339844 L 90.453125 75.164063 L 90.554688 75 L 90.671875 74.84375 L 90.804688 74.703125 L 90.953125 74.574219 L 91.117188 74.453125 L 91.292969 74.347656 L 91.480469 74.253906 L 91.683594 74.171875 L 91.902344 74.101563 L 92.132813 74.046875 L 92.375 74.003906 L 92.632813 73.972656 L 92.902344 73.953125 L 93.1875 73.945313 L 94.152344 73.945313 L 94.152344 73.304688 L 94.148438 73.152344 L 94.140625 73.011719 L 94.125 72.875 L 94.101563 72.75 L 94.070313 72.632813 L 94.035156 72.527344 L 93.992188 72.425781 L 93.945313 72.335938 L 93.886719 72.253906 L 93.824219 72.183594 L 93.757813 72.113281 L 93.683594 72.054688 L 93.601563 72 L 93.507813 71.953125 L 93.410156 71.914063 L 93.300781 71.882813 L 93.1875 71.859375 L 93.0625 71.839844 L 92.929688 71.832031 L 92.789063 71.828125 L 92.628906 71.832031 L 92.464844 71.84375 L 92.296875 71.863281 L 92.121094 71.890625 L 91.941406 71.925781 L 91.757813 71.96875 L 91.566406 72.023438 L 91.371094 72.082031 L 91.171875 72.148438 L 90.964844 72.226563 L 90.652344 71.328125 L 90.902344 71.230469 L 91.148438 71.144531 L 91.390625 71.066406 L 91.628906 71 L 91.863281 70.945313 L 92.09375 70.898438 L 92.324219 70.863281 L 92.546875 70.835938 L 92.769531 70.820313 L 92.988281 70.816406 L 93.449219 70.839844 L 93.863281 70.914063 L 94.226563 71.035156 L 94.542969 71.207031 L 94.8125 71.425781 L 95.03125 71.691406 L 95.199219 72.007813 L 95.320313 72.375 L 95.394531 72.789063 L 95.417969 73.25 Z M 92.632813 77.703125 L 92.824219 77.691406 L 93.011719 77.65625 L 93.1875 77.597656 L 93.351563 77.515625 L 93.507813 77.410156 L 93.65625 77.28125 L 93.796875 77.128906 L 93.925781 76.957031 L 94.042969 76.757813 L 94.152344 76.535156 L 94.152344 74.773438 L 93.328125 74.773438 L 92.976563 74.789063 L 92.664063 74.832031 L 92.386719 74.910156 L 92.144531 75.019531 L 91.941406 75.160156 L 91.773438 75.328125 L 91.644531 75.53125 L 91.550781 75.765625 L 91.496094 76.027344 L 91.480469 76.324219 L 91.480469 76.453125 L 91.492188 76.578125 L 91.503906 76.695313 L 91.527344 76.808594 L 91.554688 76.914063 L 91.585938 77.011719 L 91.625 77.105469 L 91.671875 77.191406 L 91.722656 77.273438 L 91.777344 77.347656 L 91.839844 77.414063 L 91.90625 77.476563 L 91.980469 77.527344 L 92.058594 77.574219 L 92.140625 77.613281 L 92.226563 77.644531 L 92.320313 77.671875 L 92.417969 77.6875 L 92.523438 77.699219 Z M 92.632813 77.703125 "/>
<path style=" stroke:none;fill-rule:nonzero;fill:rgb(6.666667%,61.568627%,64.313725%);fill-opacity:1;" d="M 100.328125 70.816406 L 100.5625 70.824219 L 100.789063 70.847656 L 101.007813 70.886719 L 101.117188 70.914063 L 101.21875 70.945313 L 101.324219 70.976563 L 101.421875 71.015625 L 101.523438 71.058594 L 101.621094 71.105469 L 101.71875 71.15625 L 101.816406 71.210938 L 101.910156 71.269531 L 102.003906 71.332031 L 102.097656 71.398438 L 102.285156 71.546875 L 102.375 71.628906 L 101.808594 72.394531 L 101.738281 72.34375 L 101.671875 72.292969 L 101.601563 72.246094 L 101.535156 72.203125 L 101.464844 72.160156 L 101.398438 72.121094 L 101.328125 72.085938 L 101.261719 72.054688 L 101.191406 72.023438 L 101.125 71.996094 L 101.054688 71.96875 L 100.984375 71.945313 L 100.84375 71.90625 L 100.769531 71.890625 L 100.695313 71.878906 L 100.617188 71.867188 L 100.542969 71.859375 L 100.464844 71.855469 L 100.382813 71.855469 L 100.21875 71.863281 L 100.0625 71.882813 L 99.914063 71.917969 L 99.773438 71.96875 L 99.636719 72.03125 L 99.511719 72.109375 L 99.390625 72.203125 L 99.277344 72.308594 L 99.171875 72.429688 L 99.074219 72.566406 L 98.988281 72.714844 L 98.910156 72.882813 L 98.84375 73.066406 L 98.785156 73.261719 L 98.734375 73.476563 L 98.691406 73.707031 L 98.660156 73.953125 L 98.636719 74.214844 L 98.625 74.492188 L 98.621094 74.785156 L 98.636719 75.320313 L 98.691406 75.800781 L 98.777344 76.222656 L 98.902344 76.589844 L 99.0625 76.898438 L 99.253906 77.152344 L 99.484375 77.347656 L 99.75 77.488281 L 100.050781 77.574219 L 100.382813 77.601563 L 100.464844 77.601563 L 100.539063 77.597656 L 100.617188 77.589844 L 100.691406 77.582031 L 100.765625 77.570313 L 100.90625 77.539063 L 100.976563 77.519531 L 101.042969 77.5 L 101.109375 77.476563 L 101.242188 77.414063 L 101.308594 77.378906 L 101.449219 77.300781 L 101.519531 77.257813 L 101.660156 77.164063 L 101.808594 77.0625 L 102.40625 77.84375 L 102.21875 78 L 102.03125 78.140625 L 101.835938 78.265625 L 101.636719 78.371094 L 101.433594 78.464844 L 101.226563 78.539063 L 101.011719 78.59375 L 100.792969 78.636719 L 100.570313 78.660156 L 100.339844 78.667969 L 100.058594 78.660156 L 99.792969 78.628906 L 99.535156 78.578125 L 99.289063 78.511719 L 99.058594 78.421875 L 98.835938 78.3125 L 98.628906 78.183594 L 98.433594 78.03125 L 98.25 77.863281 L 98.078125 77.671875 L 97.925781 77.464844 L 97.789063 77.238281 L 97.667969 76.996094 L 97.5625 76.734375 L 97.472656 76.457031 L 97.398438 76.160156 L 97.34375 75.847656 L 97.300781 75.515625 L 97.277344 75.167969 L 97.269531 74.800781 L 97.273438 74.558594 L 97.285156 74.324219 L 97.300781 74.09375 L 97.328125 73.875 L 97.363281 73.660156 L 97.402344 73.449219 L 97.449219 73.246094 L 97.503906 73.050781 L 97.570313 72.863281 L 97.640625 72.679688 L 97.71875 72.503906 L 97.804688 72.339844 L 97.894531 72.179688 L 97.992188 72.03125 L 98.097656 71.886719 L 98.207031 71.753906 L 98.324219 71.628906 L 98.445313 71.511719 L 98.570313 71.402344 L 98.707031 71.300781 L 98.847656 71.207031 L 98.992188 71.125 L 99.144531 71.054688 L 99.300781 70.992188 L 99.460938 70.9375 L 99.625 70.894531 L 99.792969 70.859375 L 99.964844 70.835938 L 100.144531 70.820313 Z M 100.328125 70.816406 "/>
<path style=" stroke:none;fill-rule:nonzero;fill:rgb(6.666667%,61.568627%,64.313725%);fill-opacity:1;" d="M 109.0625 74.515625 L 109.0625 74.636719 L 109.058594 74.703125 L 109.058594 74.765625 L 109.050781 74.898438 L 109.039063 75.109375 L 109.035156 75.183594 L 104.679688 75.183594 L 104.695313 75.4375 L 104.71875 75.679688 L 104.753906 75.902344 L 104.792969 76.113281 L 104.839844 76.3125 L 104.898438 76.492188 L 104.960938 76.660156 L 105.035156 76.8125 L 105.117188 76.953125 L 105.207031 77.078125 L 105.304688 77.183594 L 105.410156 77.28125 L 105.519531 77.367188 L 105.636719 77.441406 L 105.761719 77.503906 L 105.894531 77.554688 L 106.03125 77.59375 L 106.175781 77.621094 L 106.328125 77.640625 L 106.488281 77.644531 L 106.589844 77.644531 L 106.6875 77.640625 L 106.785156 77.632813 L 106.878906 77.621094 L 106.972656 77.605469 L 107.0625 77.589844 L 107.148438 77.570313 L 107.234375 77.546875 L 107.316406 77.519531 L 107.480469 77.457031 L 107.5625 77.417969 L 107.648438 77.378906 L 107.734375 77.332031 L 107.816406 77.28125 L 107.902344 77.230469 L 107.988281 77.171875 L 108.078125 77.109375 L 108.164063 77.046875 L 108.25 76.976563 L 108.820313 77.730469 L 108.605469 77.910156 L 108.386719 78.070313 L 108.164063 78.210938 L 107.933594 78.332031 L 107.695313 78.433594 L 107.453125 78.519531 L 107.207031 78.585938 L 106.953125 78.632813 L 106.695313 78.660156 L 106.429688 78.667969 L 106.144531 78.660156 L 105.871094 78.628906 L 105.609375 78.578125 L 105.363281 78.507813 L 105.128906 78.417969 L 104.90625 78.304688 L 104.699219 78.175781 L 104.503906 78.023438 L 104.324219 77.851563 L 104.15625 77.660156 L 104.003906 77.445313 L 103.867188 77.21875 L 103.75 76.972656 L 103.644531 76.710938 L 103.558594 76.433594 L 103.484375 76.136719 L 103.429688 75.828125 L 103.390625 75.5 L 103.367188 75.160156 L 103.359375 74.800781 L 103.367188 74.441406 L 103.386719 74.097656 L 103.425781 73.769531 L 103.480469 73.453125 L 103.550781 73.15625 L 103.632813 72.875 L 103.734375 72.605469 L 103.847656 72.355469 L 103.980469 72.117188 L 104.125 71.898438 L 104.285156 71.691406 L 104.457031 71.507813 L 104.640625 71.347656 L 104.835938 71.207031 L 105.042969 71.085938 L 105.261719 70.988281 L 105.496094 70.914063 L 105.738281 70.859375 L 105.992188 70.828125 L 106.261719 70.816406 L 106.523438 70.828125 L 106.777344 70.855469 L 107.015625 70.902344 L 107.242188 70.972656 L 107.453125 71.058594 L 107.65625 71.164063 L 107.84375 71.289063 L 108.023438 71.4375 L 108.1875 71.601563 L 108.335938 71.785156 L 108.476563 71.984375 L 108.597656 72.199219 L 108.707031 72.429688 L 108.800781 72.679688 L 108.882813 72.945313 L 108.945313 73.226563 L 108.996094 73.523438 L 109.035156 73.835938 L 109.054688 74.167969 Z M 107.824219 74.132813 L 107.808594 73.683594 L 107.761719 73.285156 L 107.683594 72.933594 L 107.578125 72.628906 L 107.4375 72.371094 L 107.265625 72.160156 L 107.066406 71.996094 L 106.832031 71.878906 L 106.570313 71.808594 L 106.273438 71.785156 L 106.136719 71.789063 L 106 71.808594 L 105.875 71.835938 L 105.753906 71.878906 L 105.636719 71.933594 L 105.527344 72 L 105.425781 72.078125 L 105.328125 72.167969 L 105.234375 72.269531 L 105.148438 72.382813 L 105.070313 72.503906 L 105 72.644531 L 104.933594 72.796875 L 104.878906 72.964844 L 104.828125 73.148438 L 104.785156 73.347656 L 104.746094 73.5625 L 104.71875 73.789063 L 104.695313 74.03125 L 104.679688 74.289063 L 107.824219 74.289063 Z M 107.824219 74.132813 "/>
<path style=" stroke:none;fill-rule:nonzero;fill:rgb(6.666667%,61.568627%,64.313725%);fill-opacity:1;" d="M 114.054688 70.816406 L 114.285156 70.828125 L 114.507813 70.855469 L 114.714844 70.90625 L 114.914063 70.976563 L 115.101563 71.070313 L 115.277344 71.179688 L 115.445313 71.3125 L 115.597656 71.464844 L 115.742188 71.636719 L 115.878906 71.828125 L 116 72.035156 L 116.113281 72.261719 L 116.210938 72.507813 L 116.296875 72.769531 L 116.367188 73.050781 L 116.425781 73.347656 L 116.472656 73.667969 L 116.503906 74.003906 L 116.523438 74.355469 L 116.53125 74.730469 L 116.523438 75.085938 L 116.503906 75.425781 L 116.46875 75.753906 L 116.417969 76.066406 L 116.355469 76.363281 L 116.273438 76.644531 L 116.183594 76.910156 L 116.074219 77.160156 L 115.957031 77.394531 L 115.820313 77.617188 L 115.675781 77.816406 L 115.519531 77.996094 L 115.355469 78.152344 L 115.179688 78.289063 L 114.996094 78.40625 L 114.800781 78.5 L 114.59375 78.574219 L 114.375 78.628906 L 114.152344 78.660156 L 113.914063 78.667969 L 113.800781 78.667969 L 113.691406 78.660156 L 113.582031 78.648438 L 113.472656 78.628906 L 113.371094 78.605469 L 113.265625 78.578125 L 113.164063 78.542969 L 113.066406 78.503906 L 112.96875 78.460938 L 112.875 78.414063 L 112.78125 78.355469 L 112.691406 78.296875 L 112.519531 78.164063 L 112.4375 78.089844 L 112.359375 78.011719 L 112.28125 77.929688 L 112.207031 77.84375 L 112.132813 77.753906 L 112.0625 77.660156 L 111.980469 78.484375 L 110.839844 78.484375 L 110.839844 67.984375 L 112.121094 67.84375 L 112.121094 71.914063 L 112.195313 71.8125 L 112.269531 71.714844 L 112.347656 71.625 L 112.425781 71.539063 L 112.507813 71.457031 L 112.59375 71.378906 L 112.773438 71.238281 L 112.863281 71.175781 L 112.960938 71.117188 L 113.0625 71.058594 L 113.164063 71.007813 L 113.269531 70.964844 L 113.375 70.925781 L 113.484375 70.890625 L 113.59375 70.863281 L 113.707031 70.84375 L 113.820313 70.828125 L 113.9375 70.820313 Z M 113.613281 77.660156 L 113.914063 77.628906 L 114.183594 77.542969 L 114.421875 77.394531 L 114.625 77.191406 L 114.800781 76.925781 L 114.941406 76.605469 L 115.050781 76.222656 L 115.132813 75.785156 L 115.179688 75.285156 L 115.195313 74.730469 L 115.191406 74.421875 L 115.179688 74.132813 L 115.160156 73.863281 L 115.132813 73.613281 L 115.097656 73.382813 L 115.054688 73.167969 L 115.007813 72.972656 L 114.949219 72.792969 L 114.882813 72.636719 L 114.808594 72.496094 L 114.730469 72.367188 L 114.644531 72.253906 L 114.550781 72.15625 L 114.449219 72.066406 L 114.34375 71.992188 L 114.230469 71.933594 L 114.113281 71.886719 L 113.984375 71.855469 L 113.855469 71.832031 L 113.714844 71.828125 L 113.617188 71.828125 L 113.519531 71.839844 L 113.425781 71.855469 L 113.335938 71.875 L 113.246094 71.902344 L 113.15625 71.933594 L 113.074219 71.972656 L 112.992188 72.019531 L 112.910156 72.070313 L 112.832031 72.125 L 112.757813 72.1875 L 112.6875 72.253906 L 112.613281 72.328125 L 112.542969 72.402344 L 112.46875 72.484375 L 112.398438 72.570313 L 112.257813 72.757813 L 112.191406 72.859375 L 112.121094 72.964844 L 112.121094 76.679688 L 112.175781 76.765625 L 112.234375 76.847656 L 112.292969 76.925781 L 112.355469 77.003906 L 112.421875 77.078125 L 112.554688 77.210938 L 112.625 77.273438 L 112.699219 77.332031 L 112.777344 77.390625 L 112.851563 77.441406 L 112.933594 77.488281 L 113.011719 77.527344 L 113.09375 77.5625 L 113.175781 77.59375 L 113.261719 77.617188 L 113.347656 77.636719 L 113.4375 77.648438 L 113.523438 77.65625 Z M 113.613281 77.660156 "/>
<path style=" stroke:none;fill-rule:nonzero;fill:rgb(6.666667%,61.568627%,64.313725%);fill-opacity:1;" d="M 121.011719 70.816406 L 121.292969 70.828125 L 121.5625 70.855469 L 121.816406 70.90625 L 122.058594 70.976563 L 122.289063 71.070313 L 122.507813 71.179688 L 122.710938 71.3125 L 122.902344 71.464844 L 123.082031 71.636719 L 123.246094 71.828125 L 123.398438 72.039063 L 123.53125 72.265625 L 123.652344 72.511719 L 123.757813 72.777344 L 123.84375 73.058594 L 123.914063 73.355469 L 123.972656 73.671875 L 124.011719 74.007813 L 124.035156 74.359375 L 124.042969 74.730469 L 124.035156 75.085938 L 124.011719 75.425781 L 123.96875 75.753906 L 123.914063 76.066406 L 123.839844 76.363281 L 123.75 76.644531 L 123.644531 76.910156 L 123.523438 77.160156 L 123.386719 77.394531 L 123.230469 77.617188 L 123.0625 77.816406 L 122.882813 77.996094 L 122.691406 78.152344 L 122.484375 78.289063 L 122.269531 78.40625 L 122.039063 78.5 L 121.796875 78.574219 L 121.542969 78.628906 L 121.277344 78.660156 L 121 78.667969 L 120.71875 78.660156 L 120.449219 78.628906 L 120.191406 78.578125 L 119.949219 78.503906 L 119.71875 78.410156 L 119.5 78.296875 L 119.292969 78.160156 L 119.101563 78.003906 L 118.917969 77.828125 L 118.75 77.632813 L 118.597656 77.414063 L 118.464844 77.183594 L 118.34375 76.933594 L 118.242188 76.671875 L 118.152344 76.390625 L 118.082031 76.09375 L 118.027344 75.78125 L 117.984375 75.449219 L 117.960938 75.105469 L 117.953125 74.742188 L 117.960938 74.378906 L 117.988281 74.03125 L 118.027344 73.699219 L 118.082031 73.386719 L 118.15625 73.089844 L 118.246094 72.808594 L 118.351563 72.546875 L 118.472656 72.296875 L 118.609375 72.070313 L 118.765625 71.855469 L 118.933594 71.65625 L 119.113281 71.480469 L 119.308594 71.324219 L 119.515625 71.191406 L 119.730469 71.078125 L 119.964844 70.984375 L 120.207031 70.910156 L 120.464844 70.859375 L 120.730469 70.828125 Z M 121.011719 71.839844 L 120.847656 71.847656 L 120.691406 71.871094 L 120.546875 71.90625 L 120.40625 71.953125 L 120.273438 72.019531 L 120.148438 72.097656 L 120.03125 72.191406 L 119.925781 72.296875 L 119.824219 72.417969 L 119.730469 72.550781 L 119.648438 72.699219 L 119.574219 72.863281 L 119.507813 73.042969 L 119.449219 73.238281 L 119.402344 73.449219 L 119.363281 73.675781 L 119.332031 73.917969 L 119.308594 74.175781 L 119.296875 74.453125 L 119.292969 74.742188 L 119.308594 75.296875 L 119.359375 75.792969 L 119.445313 76.230469 L 119.5625 76.609375 L 119.71875 76.929688 L 119.90625 77.191406 L 120.128906 77.398438 L 120.382813 77.542969 L 120.675781 77.628906 L 121 77.660156 L 121.324219 77.628906 L 121.613281 77.542969 L 121.867188 77.394531 L 122.089844 77.191406 L 122.277344 76.925781 L 122.433594 76.605469 L 122.550781 76.222656 L 122.636719 75.785156 L 122.6875 75.285156 L 122.707031 74.730469 L 122.703125 74.4375 L 122.6875 74.164063 L 122.667969 73.90625 L 122.636719 73.660156 L 122.597656 73.433594 L 122.550781 73.222656 L 122.496094 73.027344 L 122.433594 72.847656 L 122.359375 72.683594 L 122.277344 72.539063 L 122.1875 72.40625 L 122.089844 72.289063 L 121.984375 72.183594 L 121.871094 72.09375 L 121.75 72.015625 L 121.617188 71.953125 L 121.480469 71.902344 L 121.332031 71.867188 L 121.175781 71.847656 Z M 121.011719 71.839844 "/>
<path style=" stroke:none;fill-rule:nonzero;fill:rgb(0%,0%,0%);fill-opacity:1;" d="M 377.792969 315.726563 L 377.617188 316.945313 L 374.910156 316.945313 L 374.910156 326.734375 L 373.425781 326.734375 L 373.425781 316.945313 L 370.640625 316.945313 L 370.640625 315.726563 Z M 377.792969 315.726563 "/>
<path style=" stroke:none;fill-rule:nonzero;fill:rgb(0%,0%,0%);fill-opacity:1;" d="M 380.609375 318.320313 L 380.609375 326.734375 L 379.167969 326.734375 L 379.167969 318.320313 Z M 379.886719 314.351563 L 379.96875 314.355469 L 380.046875 314.363281 L 380.125 314.375 L 380.195313 314.394531 L 380.265625 314.421875 L 380.328125 314.449219 L 380.390625 314.484375 L 380.453125 314.527344 L 380.507813 314.574219 L 380.613281 314.679688 L 380.699219 314.796875 L 380.734375 314.863281 L 380.765625 314.929688 L 380.789063 314.996094 L 380.808594 315.066406 L 380.820313 315.140625 L 380.828125 315.21875 L 380.832031 315.296875 L 380.828125 315.375 L 380.820313 315.449219 L 380.808594 315.523438 L 380.792969 315.59375 L 380.769531 315.664063 L 380.738281 315.730469 L 380.707031 315.792969 L 380.667969 315.855469 L 380.625 315.914063 L 380.574219 315.96875 L 380.523438 316.015625 L 380.464844 316.058594 L 380.40625 316.097656 L 380.34375 316.132813 L 380.277344 316.160156 L 380.207031 316.183594 L 380.132813 316.199219 L 380.054688 316.214844 L 379.972656 316.222656 L 379.804688 316.222656 L 379.726563 316.214844 L 379.578125 316.183594 L 379.507813 316.160156 L 379.441406 316.132813 L 379.375 316.097656 L 379.316406 316.058594 L 379.257813 316.015625 L 379.199219 315.96875 L 379.152344 315.914063 L 379.109375 315.855469 L 379.070313 315.792969 L 379.035156 315.730469 L 379.007813 315.664063 L 378.984375 315.59375 L 378.96875 315.523438 L 378.953125 315.449219 L 378.945313 315.375 L 378.945313 315.21875 L 378.953125 315.140625 L 378.96875 315.066406 L 378.984375 314.996094 L 379.007813 314.929688 L 379.035156 314.863281 L 379.070313 314.796875 L 379.109375 314.738281 L 379.152344 314.679688 L 379.199219 314.625 L 379.257813 314.574219 L 379.316406 314.527344 L 379.375 314.484375 L 379.441406 314.449219 L 379.507813 314.421875 L 379.578125 314.394531 L 379.652344 314.375 L 379.726563 314.363281 L 379.804688 314.355469 Z M 379.886719 314.351563 "/>
<path style=" stroke:none;fill-rule:nonzero;fill:rgb(0%,0%,0%);fill-opacity:1;" d="M 390.976563 318.113281 L 391.15625 318.117188 L 391.324219 318.140625 L 391.488281 318.175781 L 391.648438 318.222656 L 391.796875 318.285156 L 391.9375 318.359375 L 392.074219 318.449219 L 392.199219 318.550781 L 392.320313 318.667969 L 392.433594 318.800781 L 392.535156 318.9375 L 392.628906 319.085938 L 392.710938 319.246094 L 392.78125 319.410156 L 392.839844 319.589844 L 392.890625 319.773438 L 392.925781 319.96875 L 392.953125 320.171875 L 392.96875 320.386719 L 392.976563 320.609375 L 392.976563 326.734375 L 391.550781 326.734375 L 391.550781 320.769531 L 391.542969 320.476563 L 391.511719 320.214844 L 391.460938 319.984375 L 391.394531 319.785156 L 391.304688 319.617188 L 391.195313 319.476563 L 391.066406 319.371094 L 390.917969 319.292969 L 390.75 319.246094 L 390.558594 319.230469 L 390.371094 319.246094 L 390.183594 319.289063 L 390 319.363281 L 389.816406 319.46875 L 389.640625 319.601563 L 389.464844 319.761719 L 389.292969 319.953125 L 389.125 320.175781 L 388.960938 320.425781 L 388.800781 320.703125 L 388.800781 326.734375 L 387.375 326.734375 L 387.375 320.769531 L 387.367188 320.476563 L 387.335938 320.214844 L 387.285156 319.984375 L 387.21875 319.785156 L 387.128906 319.617188 L 387.019531 319.476563 L 386.890625 319.371094 L 386.742188 319.292969 L 386.574219 319.246094 L 386.382813 319.230469 L 386.191406 319.246094 L 386 319.289063 L 385.816406 319.363281 L 385.632813 319.46875 L 385.457031 319.601563 L 385.28125 319.761719 L 385.113281 319.953125 L 384.945313 320.175781 L 384.78125 320.425781 L 384.625 320.703125 L 384.625 326.734375 L 383.199219 326.734375 L 383.199219 318.320313 L 384.449219 318.320313 L 384.558594 319.550781 L 384.75 319.277344 L 384.945313 319.035156 L 385.152344 318.816406 L 385.363281 318.628906 L 385.585938 318.472656 L 385.8125 318.34375 L 386.046875 318.242188 L 386.289063 318.167969 L 386.542969 318.125 L 386.800781 318.113281 L 386.9375 318.117188 L 387.066406 318.128906 L 387.195313 318.148438 L 387.316406 318.175781 L 387.4375 318.210938 L 387.550781 318.257813 L 387.660156 318.308594 L 387.769531 318.367188 L 387.871094 318.4375 L 387.96875 318.511719 L 388.0625 318.59375 L 388.148438 318.683594 L 388.230469 318.78125 L 388.308594 318.886719 L 388.378906 318.996094 L 388.445313 319.113281 L 388.507813 319.238281 L 388.5625 319.367188 L 388.613281 319.503906 L 388.65625 319.648438 L 388.855469 319.355469 L 389.0625 319.09375 L 389.273438 318.863281 L 389.496094 318.664063 L 389.722656 318.496094 L 389.960938 318.359375 L 390.203125 318.25 L 390.453125 318.171875 L 390.710938 318.128906 Z M 390.976563 318.113281 "/>
<path style=" stroke:none;fill-rule:nonzero;fill:rgb(0%,0%,0%);fill-opacity:1;" d="M 401.40625 322.273438 L 401.40625 322.480469 L 401.398438 322.628906 L 401.398438 322.703125 L 401.390625 322.78125 L 401.386719 322.859375 L 401.382813 322.941406 L 401.375 323.023438 L 396.480469 323.023438 L 396.496094 323.308594 L 396.523438 323.582031 L 396.558594 323.832031 L 396.605469 324.070313 L 396.660156 324.292969 L 396.722656 324.496094 L 396.796875 324.683594 L 396.878906 324.855469 L 396.972656 325.011719 L 397.070313 325.152344 L 397.179688 325.273438 L 397.296875 325.382813 L 397.421875 325.476563 L 397.554688 325.5625 L 397.695313 325.632813 L 397.84375 325.691406 L 398 325.734375 L 398.164063 325.765625 L 398.332031 325.785156 L 398.511719 325.792969 L 398.738281 325.785156 L 398.847656 325.777344 L 398.953125 325.765625 L 399.054688 325.75 L 399.15625 325.730469 L 399.253906 325.707031 L 399.351563 325.679688 L 399.445313 325.648438 L 399.535156 325.617188 L 399.628906 325.578125 L 399.816406 325.492188 L 399.914063 325.4375 L 400.007813 325.382813 L 400.105469 325.324219 L 400.203125 325.261719 L 400.300781 325.191406 L 400.398438 325.117188 L 400.496094 325.039063 L 401.136719 325.886719 L 400.894531 326.089844 L 400.648438 326.269531 L 400.398438 326.425781 L 400.136719 326.5625 L 399.871094 326.679688 L 399.601563 326.773438 L 399.320313 326.847656 L 399.035156 326.902344 L 398.746094 326.933594 L 398.449219 326.945313 L 398.125 326.933594 L 397.816406 326.898438 L 397.527344 326.84375 L 397.246094 326.761719 L 396.984375 326.660156 L 396.734375 326.535156 L 396.5 326.386719 L 396.28125 326.21875 L 396.078125 326.023438 L 395.886719 325.808594 L 395.71875 325.570313 L 395.566406 325.3125 L 395.429688 325.035156 L 395.316406 324.742188 L 395.214844 324.429688 L 395.136719 324.097656 L 395.074219 323.75 L 395.027344 323.382813 L 395 322.996094 L 394.992188 322.59375 L 395 322.1875 L 395.027344 321.800781 L 395.070313 321.429688 L 395.128906 321.078125 L 395.207031 320.742188 L 395.304688 320.425781 L 395.414063 320.125 L 395.546875 319.84375 L 395.691406 319.578125 L 395.855469 319.328125 L 396.035156 319.097656 L 396.230469 318.890625 L 396.433594 318.707031 L 396.65625 318.550781 L 396.886719 318.417969 L 397.136719 318.304688 L 397.394531 318.222656 L 397.667969 318.160156 L 397.957031 318.125 L 398.257813 318.113281 L 398.554688 318.121094 L 398.835938 318.15625 L 399.105469 318.210938 L 399.359375 318.285156 L 399.601563 318.382813 L 399.828125 318.503906 L 400.039063 318.644531 L 400.238281 318.808594 L 400.421875 318.992188 L 400.59375 319.199219 L 400.746094 319.421875 L 400.886719 319.664063 L 401.007813 319.925781 L 401.113281 320.207031 L 401.203125 320.503906 L 401.277344 320.820313 L 401.335938 321.15625 L 401.375 321.507813 L 401.398438 321.882813 Z M 400.015625 321.839844 L 400 321.339844 L 399.945313 320.890625 L 399.859375 320.492188 L 399.738281 320.152344 L 399.582031 319.859375 L 399.386719 319.621094 L 399.160156 319.4375 L 398.898438 319.304688 L 398.601563 319.226563 L 398.273438 319.199219 L 398.117188 319.207031 L 397.964844 319.226563 L 397.824219 319.261719 L 397.6875 319.308594 L 397.554688 319.367188 L 397.433594 319.441406 L 397.316406 319.53125 L 397.207031 319.628906 L 397.105469 319.746094 L 397.007813 319.871094 L 396.917969 320.011719 L 396.839844 320.167969 L 396.765625 320.339844 L 396.699219 320.53125 L 396.644531 320.734375 L 396.59375 320.957031 L 396.554688 321.199219 L 396.523438 321.453125 L 396.496094 321.726563 L 396.480469 322.015625 L 400.015625 322.015625 Z M 400.015625 321.839844 "/>
<path style=" stroke:none;fill-rule:nonzero;fill:rgb(0%,0%,0%);fill-opacity:1;" d="M 29.886719 29.953125 L 36.65625 33.121094 L 40.894531 33.121094 L 40.894531 34.625 L 36.671875 34.625 L 29.886719 37.792969 L 29.886719 36.191406 L 35.390625 33.839844 L 29.886719 31.503906 Z M 29.886719 29.953125 "/>
</g>
</svg>
