<?xml version="1.0" encoding="UTF-8"?>
<svg xmlns="http://www.w3.org/2000/svg" xmlns:xlink="http://www.w3.org/1999/xlink" width="324pt" height="252pt" viewBox="0 0 324 252" version="1.1">
<defs>
<clipPath id="clip1">
  <path d="M 49.101563 163 L 294.113281 163 L 294.113281 164 L 49.101563 164 Z M 49.101563 163 "/>
</clipPath>
<clipPath id="clip2">
  <path d="M 49.101563 116 L 294.113281 116 L 294.113281 117 L 49.101563 117 Z M 49.101563 116 "/>
</clipPath>
<clipPath id="clip3">
  <path d="M 49.101563 68 L 294.113281 68 L 294.113281 70 L 49.101563 70 Z M 49.101563 68 "/>
</clipPath>
<clipPath id="clip4">
  <path d="M 97 29.886719 L 98 29.886719 L 98 202.898438 L 97 202.898438 Z M 97 29.886719 "/>
</clipPath>
<clipPath id="clip5">
  <path d="M 159 29.886719 L 160 29.886719 L 160 202.898438 L 159 202.898438 Z M 159 29.886719 "/>
</clipPath>
<clipPath id="clip6">
  <path d="M 220 29.886719 L 222 29.886719 L 222 202.898438 L 220 202.898438 Z M 220 29.886719 "/>
</clipPath>
<clipPath id="clip7">
  <path d="M 282 29.886719 L 284 29.886719 L 284 202.898438 L 282 202.898438 Z M 282 29.886719 "/>
</clipPath>
<clipPath id="clip8">
  <path d="M 158 29.886719 L 161 29.886719 L 161 202.898438 L 158 202.898438 Z M 158 29.886719 "/>
</clipPath>
</defs>
<g id="surface134">
<rect x="0" y="0" width="324" height="252" style="fill:rgb(100%,100%,100%);fill-opacity:1;stroke:none;"/>
<g clip-path="url(#clip1)" clip-rule="nonzero">
<path style="fill:none;stroke-width:0.426791;stroke-linecap:butt;stroke-linejoin:round;stroke:rgb(80%,80%,80%);stroke-opacity:1;stroke-miterlimit:10;" d="M 49.101563 163.578125 L 294.113281 163.578125 "/>
</g>
<g clip-path="url(#clip2)" clip-rule="nonzero">
<path style="fill:none;stroke-width:0.426791;stroke-linecap:butt;stroke-linejoin:round;stroke:rgb(80%,80%,80%);stroke-opacity:1;stroke-miterlimit:10;" d="M 49.101563 116.394531 L 294.113281 116.394531 "/>
</g>
<g clip-path="url(#clip3)" clip-rule="nonzero">
<path style="fill:none;stroke-width:0.426791;stroke-linecap:butt;stroke-linejoin:round;stroke:rgb(80%,80%,80%);stroke-opacity:1;stroke-miterlimit:10;" d="M 49.101563 69.207031 L 294.113281 69.207031 "/>
</g>
<g clip-path="url(#clip4)" clip-rule="nonzero">
<path style="fill:none;stroke-width:0.426791;stroke-linecap:butt;stroke-linejoin:round;stroke:rgb(80%,80%,80%);stroke-opacity:1;stroke-miterlimit:10;" d="M 97.359375 202.898438 L 97.359375 29.886719 "/>
</g>
<g clip-path="url(#clip5)" clip-rule="nonzero">
<path style="fill:none;stroke-width:0.426791;stroke-linecap:butt;stroke-linejoin:round;stroke:rgb(80%,80%,80%);stroke-opacity:1;stroke-miterlimit:10;" d="M 159.234375 202.898438 L 159.234375 29.886719 "/>
</g>
<g clip-path="url(#clip6)" clip-rule="nonzero">
<path style="fill:none;stroke-width:0.426791;stroke-linecap:butt;stroke-linejoin:round;stroke:rgb(80%,80%,80%);stroke-opacity:1;stroke-miterlimit:10;" d="M 221.105469 202.898438 L 221.105469 29.886719 "/>
</g>
<g clip-path="url(#clip7)" clip-rule="nonzero">
<path style="fill:none;stroke-width:0.426791;stroke-linecap:butt;stroke-linejoin:round;stroke:rgb(80%,80%,80%);stroke-opacity:1;stroke-miterlimit:10;" d="M 282.976563 202.898438 L 282.976563 29.886719 "/>
</g>
<path style="fill:none;stroke-width:2.133957;stroke-linecap:butt;stroke-linejoin:round;stroke:rgb(79.607843%,70.196078%,74.901961%);stroke-opacity:1;stroke-miterlimit:10;" d="M 60.238281 195.035156 L 65.878906 191.449219 L 68.695313 189.660156 L 74.335938 186.074219 L 77.15625 184.285156 L 79.972656 182.492188 L 85.613281 178.90625 L 88.433594 177.117188 L 91.253906 175.324219 L 94.070313 173.53125 L 96.890625 171.742188 L 102.53125 168.15625 L 105.347656 166.367188 L 113.808594 160.988281 L 116.628906 159.199219 L 119.445313 157.40625 L 122.265625 155.613281 L 125.085938 153.824219 L 130.726563 150.238281 L 133.542969 148.445313 L 136.363281 146.65625 L 142.003906 143.070313 L 144.820313 141.28125 L 153.28125 135.902344 L 156.101563 134.113281 L 158.917969 132.320313 L 161.738281 130.527344 L 164.558594 128.738281 L 167.378906 126.945313 L 170.195313 125.152344 L 173.015625 123.363281 L 181.476563 117.984375 L 184.292969 116.195313 L 189.933594 112.609375 L 192.753906 110.820313 L 195.570313 109.027344 L 201.210938 105.441406 L 204.03125 103.652344 L 206.851563 101.859375 L 209.667969 100.066406 L 212.488281 98.277344 L 218.128906 94.691406 L 220.945313 92.902344 L 229.40625 87.523438 L 232.226563 85.734375 L 235.042969 83.941406 L 237.863281 82.148438 L 240.683594 80.359375 L 246.324219 76.773438 L 249.140625 74.980469 L 251.960938 73.191406 L 257.601563 69.605469 L 260.417969 67.816406 L 268.878906 62.4375 L 271.699219 60.648438 L 274.515625 58.855469 L 277.335938 57.0625 L 280.15625 55.273438 L 282.976563 53.480469 "/>
<path style="fill:none;stroke-width:2.133957;stroke-linecap:butt;stroke-linejoin:round;stroke:rgb(100%,78.431373%,34.117647%);stroke-opacity:1;stroke-miterlimit:10;" d="M 60.238281 172.226563 L 65.878906 167.320313 L 68.695313 164.871094 L 71.515625 162.433594 L 74.335938 160.003906 L 77.15625 157.59375 L 79.972656 155.199219 L 82.792969 152.824219 L 85.613281 150.476563 L 88.433594 148.152344 L 91.253906 145.851563 L 94.070313 143.574219 L 96.890625 141.324219 L 99.710938 139.09375 L 102.53125 136.882813 L 105.347656 134.699219 L 108.167969 132.53125 L 110.988281 130.382813 L 113.808594 128.253906 L 116.628906 126.144531 L 119.445313 124.054688 L 122.265625 121.984375 L 125.085938 119.933594 L 127.90625 117.90625 L 130.726563 115.894531 L 133.542969 113.90625 L 136.363281 111.9375 L 139.183594 109.988281 L 142.003906 108.0625 L 144.820313 106.15625 L 147.640625 104.269531 L 150.460938 102.40625 L 153.28125 100.558594 L 156.101563 98.734375 L 158.917969 96.933594 L 161.738281 95.148438 L 164.558594 93.386719 L 167.378906 91.640625 L 170.195313 89.917969 L 173.015625 88.21875 L 175.835938 86.535156 L 178.65625 84.875 L 181.476563 83.234375 L 184.292969 81.613281 L 187.113281 80.011719 L 189.933594 78.429688 L 192.753906 76.871094 L 195.570313 75.332031 L 198.390625 73.8125 L 201.210938 72.316406 L 204.03125 70.839844 L 206.851563 69.382813 L 209.667969 67.945313 L 212.488281 66.53125 L 215.308594 65.136719 L 218.128906 63.761719 L 220.945313 62.40625 L 223.765625 61.074219 L 226.585938 59.757813 L 229.40625 58.464844 L 232.226563 57.1875 L 235.042969 55.929688 L 237.863281 54.691406 L 240.683594 53.476563 L 243.503906 52.277344 L 246.324219 51.105469 L 249.140625 49.953125 L 251.960938 48.824219 L 254.78125 47.71875 L 257.601563 46.640625 L 260.417969 45.585938 L 263.238281 44.554688 L 266.058594 43.542969 L 268.878906 42.550781 L 271.699219 41.574219 L 274.515625 40.609375 L 277.335938 39.652344 L 280.15625 38.699219 L 282.976563 37.753906 "/>
<g clip-path="url(#clip8)" clip-rule="nonzero">
<path style="fill:none;stroke-width:2.347352;stroke-linecap:butt;stroke-linejoin:round;stroke:rgb(66.27451%,66.27451%,66.27451%);stroke-opacity:1;stroke-dasharray:9.389409,9.389409;stroke-miterlimit:10;" d="M 159.234375 202.898438 L 159.234375 29.886719 "/>
</g>
<path style=" stroke:none;fill-rule:nonzero;fill:rgb(0%,0%,0%);fill-opacity:1;" d="M 271.3125 208.628906 L 271.148438 209.765625 L 268.613281 209.765625 L 268.613281 218.945313 L 267.21875 218.945313 L 267.21875 209.765625 L 264.605469 209.765625 L 264.605469 208.628906 Z M 271.3125 208.628906 "/>
<path style=" stroke:none;fill-rule:nonzero;fill:rgb(0%,0%,0%);fill-opacity:1;" d="M 273.953125 211.058594 L 273.953125 218.945313 L 272.601563 218.945313 L 272.601563 211.058594 Z M 273.277344 207.335938 L 273.355469 207.339844 L 273.425781 207.347656 L 273.496094 207.359375 L 273.566406 207.378906 L 273.628906 207.402344 L 273.691406 207.429688 L 273.75 207.460938 L 273.804688 207.5 L 273.859375 207.542969 L 273.90625 207.59375 L 273.957031 207.644531 L 274 207.699219 L 274.039063 207.757813 L 274.070313 207.816406 L 274.097656 207.878906 L 274.121094 207.941406 L 274.140625 208.007813 L 274.152344 208.078125 L 274.160156 208.148438 L 274.160156 208.296875 L 274.152344 208.367188 L 274.140625 208.4375 L 274.125 208.503906 L 274.101563 208.566406 L 274.074219 208.628906 L 274.042969 208.6875 L 274.007813 208.746094 L 273.96875 208.800781 L 273.921875 208.851563 L 273.871094 208.898438 L 273.820313 208.9375 L 273.761719 208.972656 L 273.703125 209.003906 L 273.640625 209.03125 L 273.574219 209.054688 L 273.503906 209.070313 L 273.433594 209.082031 L 273.355469 209.089844 L 273.277344 209.09375 L 273.199219 209.089844 L 273.125 209.082031 L 273.054688 209.070313 L 272.988281 209.054688 L 272.921875 209.03125 L 272.859375 209.003906 L 272.796875 208.972656 L 272.738281 208.9375 L 272.683594 208.898438 L 272.632813 208.851563 L 272.585938 208.800781 L 272.546875 208.746094 L 272.507813 208.6875 L 272.476563 208.628906 L 272.429688 208.503906 L 272.414063 208.4375 L 272.402344 208.367188 L 272.394531 208.296875 L 272.390625 208.222656 L 272.394531 208.148438 L 272.402344 208.078125 L 272.414063 208.007813 L 272.429688 207.941406 L 272.476563 207.816406 L 272.507813 207.757813 L 272.546875 207.699219 L 272.585938 207.644531 L 272.632813 207.59375 L 272.683594 207.542969 L 272.738281 207.5 L 272.796875 207.460938 L 272.859375 207.429688 L 272.921875 207.402344 L 272.988281 207.378906 L 273.054688 207.359375 L 273.125 207.347656 L 273.199219 207.339844 Z M 273.277344 207.335938 "/>
<path style=" stroke:none;fill-rule:nonzero;fill:rgb(0%,0%,0%);fill-opacity:1;" d="M 283.671875 210.863281 L 283.839844 210.867188 L 284 210.886719 L 284.152344 210.921875 L 284.300781 210.964844 L 284.441406 211.023438 L 284.574219 211.09375 L 284.699219 211.179688 L 284.820313 211.273438 L 284.929688 211.382813 L 285.035156 211.507813 L 285.132813 211.636719 L 285.21875 211.777344 L 285.296875 211.925781 L 285.363281 212.082031 L 285.417969 212.246094 L 285.464844 212.417969 L 285.5 212.601563 L 285.527344 212.792969 L 285.542969 212.992188 L 285.546875 213.203125 L 285.546875 218.945313 L 284.210938 218.945313 L 284.210938 213.351563 L 284.203125 213.078125 L 284.175781 212.832031 L 284.128906 212.617188 L 284.0625 212.429688 L 283.980469 212.273438 L 283.878906 212.140625 L 283.757813 212.042969 L 283.617188 211.96875 L 283.457031 211.925781 L 283.28125 211.910156 L 283.105469 211.925781 L 282.929688 211.96875 L 282.753906 212.035156 L 282.585938 212.132813 L 282.417969 212.257813 L 282.257813 212.410156 L 282.09375 212.589844 L 281.9375 212.796875 L 281.785156 213.03125 L 281.632813 213.292969 L 281.632813 218.945313 L 280.296875 218.945313 L 280.296875 213.351563 L 280.289063 213.078125 L 280.261719 212.832031 L 280.214844 212.617188 L 280.148438 212.429688 L 280.066406 212.273438 L 279.960938 212.140625 L 279.839844 212.042969 L 279.703125 211.96875 L 279.542969 211.925781 L 279.367188 211.910156 L 279.1875 211.925781 L 279.007813 211.96875 L 278.835938 212.035156 L 278.664063 212.132813 L 278.496094 212.257813 L 278.332031 212.410156 L 278.175781 212.589844 L 278.019531 212.796875 L 277.867188 213.03125 L 277.71875 213.292969 L 277.71875 218.945313 L 276.382813 218.945313 L 276.382813 211.058594 L 277.550781 211.058594 L 277.65625 212.210938 L 277.835938 211.957031 L 278.019531 211.726563 L 278.210938 211.523438 L 278.410156 211.347656 L 278.617188 211.199219 L 278.832031 211.078125 L 279.050781 210.984375 L 279.28125 210.917969 L 279.515625 210.875 L 279.757813 210.863281 L 279.882813 210.867188 L 280.007813 210.878906 L 280.125 210.894531 L 280.242188 210.921875 L 280.351563 210.957031 L 280.460938 210.996094 L 280.566406 211.046875 L 280.664063 211.101563 L 280.761719 211.164063 L 280.851563 211.238281 L 280.941406 211.316406 L 281.023438 211.398438 L 281.171875 211.585938 L 281.238281 211.691406 L 281.300781 211.800781 L 281.355469 211.917969 L 281.410156 212.039063 L 281.457031 212.167969 L 281.496094 212.300781 L 281.683594 212.027344 L 281.875 211.785156 L 282.078125 211.566406 L 282.285156 211.378906 L 282.5 211.222656 L 282.71875 211.09375 L 282.945313 210.992188 L 283.183594 210.917969 L 283.421875 210.875 Z M 283.671875 210.863281 "/>
<path style=" stroke:none;fill-rule:nonzero;fill:rgb(0%,0%,0%);fill-opacity:1;" d="M 293.453125 214.761719 L 293.453125 214.824219 L 293.449219 214.890625 L 293.449219 215.027344 L 293.4375 215.238281 L 293.433594 215.3125 L 293.429688 215.390625 L 293.421875 215.46875 L 288.832031 215.46875 L 288.847656 215.734375 L 288.875 215.988281 L 288.90625 216.226563 L 288.949219 216.449219 L 289 216.65625 L 289.0625 216.847656 L 289.128906 217.023438 L 289.207031 217.183594 L 289.292969 217.332031 L 289.386719 217.460938 L 289.488281 217.574219 L 289.597656 217.679688 L 289.714844 217.769531 L 289.839844 217.847656 L 289.972656 217.910156 L 290.109375 217.964844 L 290.257813 218.007813 L 290.410156 218.039063 L 290.570313 218.054688 L 290.738281 218.0625 L 290.949219 218.054688 L 291.050781 218.046875 L 291.148438 218.035156 L 291.34375 218.003906 L 291.523438 217.957031 L 291.613281 217.929688 L 291.695313 217.898438 L 291.785156 217.863281 L 291.871094 217.824219 L 292.050781 217.730469 L 292.140625 217.679688 L 292.230469 217.625 L 292.320313 217.5625 L 292.414063 217.5 L 292.503906 217.429688 L 292.597656 217.355469 L 293.195313 218.152344 L 292.972656 218.339844 L 292.742188 218.507813 L 292.503906 218.65625 L 292.261719 218.785156 L 292.011719 218.894531 L 291.757813 218.984375 L 291.496094 219.054688 L 291.230469 219.101563 L 290.957031 219.132813 L 290.675781 219.140625 L 290.375 219.132813 L 290.085938 219.097656 L 289.8125 219.046875 L 289.550781 218.972656 L 289.304688 218.875 L 289.070313 218.757813 L 288.851563 218.621094 L 288.648438 218.460938 L 288.453125 218.28125 L 288.277344 218.078125 L 288.117188 217.851563 L 287.976563 217.609375 L 287.847656 217.351563 L 287.738281 217.078125 L 287.648438 216.785156 L 287.570313 216.472656 L 287.511719 216.144531 L 287.46875 215.800781 L 287.445313 215.441406 L 287.4375 215.0625 L 287.445313 214.683594 L 287.46875 214.320313 L 287.511719 213.972656 L 287.566406 213.644531 L 287.640625 213.328125 L 287.730469 213.03125 L 287.832031 212.75 L 287.957031 212.484375 L 288.09375 212.234375 L 288.246094 212.003906 L 288.414063 211.785156 L 288.597656 211.589844 L 288.789063 211.421875 L 288.996094 211.273438 L 289.214844 211.148438 L 289.445313 211.042969 L 289.691406 210.964844 L 289.945313 210.90625 L 290.214844 210.875 L 290.496094 210.863281 L 290.777344 210.871094 L 291.039063 210.902344 L 291.292969 210.953125 L 291.53125 211.023438 L 291.757813 211.117188 L 291.96875 211.230469 L 292.167969 211.363281 L 292.355469 211.515625 L 292.527344 211.6875 L 292.6875 211.882813 L 292.832031 212.089844 L 292.960938 212.320313 L 293.078125 212.5625 L 293.175781 212.824219 L 293.261719 213.105469 L 293.328125 213.402344 L 293.382813 213.714844 L 293.421875 214.046875 L 293.445313 214.394531 Z M 292.148438 214.355469 L 292.128906 213.886719 L 292.082031 213.464844 L 292 213.09375 L 291.886719 212.773438 L 291.738281 212.5 L 291.558594 212.277344 L 291.347656 212.105469 L 291.101563 211.980469 L 290.824219 211.90625 L 290.511719 211.882813 L 290.363281 211.886719 L 290.226563 211.90625 L 290.089844 211.9375 L 289.960938 211.984375 L 289.839844 212.039063 L 289.726563 212.109375 L 289.617188 212.191406 L 289.515625 212.285156 L 289.417969 212.390625 L 289.328125 212.511719 L 289.242188 212.644531 L 289.167969 212.789063 L 289.101563 212.953125 L 289.039063 213.128906 L 288.984375 213.320313 L 288.941406 213.53125 L 288.902344 213.753906 L 288.871094 213.996094 L 288.847656 214.25 L 288.832031 214.523438 L 292.148438 214.523438 Z M 292.148438 214.355469 "/>
<path style=" stroke:none;fill-rule:nonzero;fill:rgb(0%,0%,0%);fill-opacity:1;" d="M 29.886719 73.554688 L 30.96875 73.71875 L 30.96875 77.289063 L 34.371094 77.289063 L 34.371094 74.183594 L 35.453125 74.183594 L 35.453125 77.289063 L 39.113281 77.289063 L 39.113281 73.507813 L 40.207031 73.507813 L 40.207031 78.683594 L 29.886719 78.683594 Z M 29.886719 73.554688 "/>
<path style=" stroke:none;fill-rule:nonzero;fill:rgb(0%,0%,0%);fill-opacity:1;" d="M 28.011719 69.246094 L 29.09375 69.246094 L 29.09375 70.792969 L 40.882813 70.792969 L 40.882813 69.246094 L 41.949219 69.246094 L 41.949219 72.066406 L 28.011719 72.066406 Z M 28.011719 69.246094 "/>
<path style=" stroke:none;fill-rule:nonzero;fill:rgb(0%,0%,0%);fill-opacity:1;" d="M 29.886719 61.179688 L 36.234375 64.148438 L 40.207031 64.148438 L 40.207031 65.558594 L 36.246094 65.558594 L 29.886719 68.527344 L 29.886719 67.027344 L 35.046875 64.824219 L 29.886719 62.632813 Z M 29.886719 61.179688 "/>
<path style=" stroke:none;fill-rule:nonzero;fill:rgb(0%,0%,0%);fill-opacity:1;" d="M 28.117188 57.21875 L 28.34375 57.355469 L 28.566406 57.488281 L 28.78125 57.617188 L 29.203125 57.851563 L 29.40625 57.960938 L 29.605469 58.066406 L 29.796875 58.164063 L 29.988281 58.257813 L 30.171875 58.34375 L 30.359375 58.425781 L 30.550781 58.503906 L 30.746094 58.578125 L 30.945313 58.648438 L 31.152344 58.71875 L 31.363281 58.78125 L 31.578125 58.84375 L 31.800781 58.898438 L 32.027344 58.953125 L 32.257813 59.003906 L 32.492188 59.046875 L 32.734375 59.082031 L 32.984375 59.117188 L 33.246094 59.148438 L 33.511719 59.171875 L 33.785156 59.191406 L 34.066406 59.207031 L 34.355469 59.21875 L 34.652344 59.226563 L 35.261719 59.226563 L 35.558594 59.21875 L 35.851563 59.207031 L 36.132813 59.191406 L 36.40625 59.171875 L 36.671875 59.148438 L 36.929688 59.117188 L 37.179688 59.082031 L 37.421875 59.046875 L 37.65625 59.003906 L 37.886719 58.953125 L 38.332031 58.84375 L 38.546875 58.78125 L 38.757813 58.71875 L 38.964844 58.648438 L 39.164063 58.578125 L 39.363281 58.503906 L 39.554688 58.425781 L 39.742188 58.34375 L 39.929688 58.257813 L 40.3125 58.066406 L 40.511719 57.960938 L 40.714844 57.851563 L 40.921875 57.734375 L 41.132813 57.617188 L 41.351563 57.488281 L 41.570313 57.355469 L 41.796875 57.21875 L 42.367188 58.089844 L 42.121094 58.25 L 41.882813 58.40625 L 41.648438 58.554688 L 41.417969 58.699219 L 41.195313 58.835938 L 40.976563 58.964844 L 40.765625 59.089844 L 40.558594 59.207031 L 40.359375 59.316406 L 40.164063 59.421875 L 39.964844 59.523438 L 39.761719 59.621094 L 39.550781 59.710938 L 39.332031 59.800781 L 39.109375 59.886719 L 38.878906 59.96875 L 38.644531 60.046875 L 38.402344 60.125 L 38.152344 60.195313 L 37.898438 60.261719 L 37.636719 60.324219 L 37.367188 60.382813 L 37.089844 60.429688 L 36.808594 60.472656 L 36.519531 60.511719 L 36.21875 60.539063 L 35.914063 60.5625 L 35.605469 60.578125 L 35.285156 60.589844 L 34.957031 60.59375 L 34.632813 60.589844 L 34.3125 60.578125 L 34 60.5625 L 33.695313 60.539063 L 33.398438 60.511719 L 33.109375 60.472656 L 32.824219 60.429688 L 32.546875 60.382813 L 32.28125 60.324219 L 32.019531 60.261719 L 31.761719 60.195313 L 31.515625 60.125 L 31.273438 60.046875 L 31.039063 59.96875 L 30.808594 59.886719 L 30.589844 59.800781 L 30.375 59.710938 L 30.164063 59.621094 L 29.964844 59.523438 L 29.769531 59.421875 L 29.570313 59.316406 L 29.367188 59.207031 L 29.160156 59.089844 L 28.945313 58.964844 L 28.726563 58.835938 L 28.5 58.699219 L 28.269531 58.554688 L 28.035156 58.40625 L 27.792969 58.25 L 27.546875 58.089844 Z M 28.117188 57.21875 "/>
<path style=" stroke:none;fill-rule:nonzero;fill:rgb(0%,0%,0%);fill-opacity:1;" d="M 30.007813 52.777344 L 30.019531 52.480469 L 30.058594 52.203125 L 30.125 51.933594 L 30.214844 51.683594 L 30.335938 51.445313 L 30.476563 51.222656 L 30.648438 51.015625 L 30.84375 50.824219 L 31.066406 50.644531 L 31.3125 50.484375 L 31.585938 50.335938 L 31.886719 50.203125 L 32.210938 50.085938 L 32.5625 49.984375 L 32.9375 49.898438 L 33.339844 49.828125 L 33.765625 49.773438 L 34.21875 49.734375 L 34.695313 49.710938 L 35.199219 49.703125 L 35.707031 49.710938 L 36.191406 49.734375 L 36.644531 49.773438 L 37.078125 49.828125 L 37.480469 49.898438 L 37.859375 49.984375 L 38.210938 50.085938 L 38.539063 50.203125 L 38.839844 50.335938 L 39.113281 50.484375 L 39.359375 50.644531 L 39.578125 50.824219 L 39.769531 51.015625 L 39.9375 51.222656 L 40.082031 51.445313 L 40.195313 51.683594 L 40.285156 51.933594 L 40.351563 52.203125 L 40.390625 52.480469 L 40.402344 52.777344 L 40.390625 53.078125 L 40.351563 53.359375 L 40.285156 53.628906 L 40.195313 53.882813 L 40.078125 54.121094 L 39.933594 54.34375 L 39.761719 54.550781 L 39.566406 54.746094 L 39.347656 54.925781 L 39.097656 55.089844 L 38.824219 55.234375 L 38.523438 55.367188 L 38.199219 55.484375 L 37.847656 55.585938 L 37.46875 55.671875 L 37.066406 55.742188 L 36.640625 55.796875 L 36.183594 55.835938 L 35.703125 55.859375 L 35.199219 55.867188 L 34.210938 55.835938 L 33.328125 55.746094 L 32.550781 55.589844 L 31.875 55.375 L 31.304688 55.09375 L 30.839844 54.753906 L 30.476563 54.355469 L 30.214844 53.890625 L 30.058594 53.363281 Z M 31.058594 52.777344 L 31.066406 52.949219 L 31.097656 53.109375 L 31.144531 53.257813 L 31.210938 53.402344 L 31.296875 53.535156 L 31.402344 53.660156 L 31.527344 53.777344 L 31.671875 53.882813 L 31.835938 53.980469 L 32.019531 54.066406 L 32.21875 54.144531 L 32.449219 54.214844 L 32.699219 54.273438 L 32.980469 54.328125 L 33.285156 54.371094 L 33.617188 54.40625 L 33.972656 54.4375 L 34.355469 54.457031 L 34.765625 54.46875 L 35.199219 54.472656 L 35.636719 54.46875 L 36.046875 54.457031 L 36.429688 54.4375 L 36.789063 54.40625 L 37.121094 54.371094 L 37.429688 54.328125 L 37.707031 54.273438 L 37.960938 54.214844 L 38.191406 54.144531 L 38.394531 54.066406 L 38.574219 53.980469 L 38.734375 53.882813 L 38.875 53.777344 L 38.996094 53.660156 L 39.101563 53.535156 L 39.1875 53.402344 L 39.253906 53.257813 L 39.300781 53.109375 L 39.328125 52.949219 L 39.339844 52.777344 L 39.328125 52.613281 L 39.300781 52.453125 L 39.253906 52.304688 L 39.1875 52.164063 L 39.101563 52.035156 L 38.996094 51.914063 L 38.875 51.800781 L 38.734375 51.699219 L 38.574219 51.601563 L 38.394531 51.519531 L 38.191406 51.4375 L 37.960938 51.367188 L 37.707031 51.304688 L 37.429688 51.25 L 37.121094 51.203125 L 36.789063 51.164063 L 36.429688 51.136719 L 36.046875 51.113281 L 35.636719 51.101563 L 35.199219 51.097656 L 34.761719 51.101563 L 34.351563 51.113281 L 33.964844 51.132813 L 33.605469 51.164063 L 33.273438 51.199219 L 32.96875 51.242188 L 32.6875 51.296875 L 32.433594 51.355469 L 32.203125 51.425781 L 32.003906 51.503906 L 31.824219 51.589844 L 31.664063 51.683594 L 31.519531 51.789063 L 31.398438 51.902344 L 31.292969 52.023438 L 31.210938 52.15625 L 31.144531 52.296875 L 31.097656 52.449219 L 31.066406 52.609375 Z M 31.058594 52.777344 "/>
<path style=" stroke:none;fill-rule:nonzero;fill:rgb(0%,0%,0%);fill-opacity:1;" d="M 27.546875 47.484375 L 27.800781 47.320313 L 28.046875 47.160156 L 28.285156 47.011719 L 28.515625 46.867188 L 28.746094 46.730469 L 28.964844 46.597656 L 29.179688 46.476563 L 29.386719 46.359375 L 29.585938 46.25 L 29.976563 46.046875 L 30.179688 45.949219 L 30.386719 45.859375 L 30.605469 45.769531 L 30.824219 45.683594 L 31.054688 45.601563 L 31.289063 45.523438 L 31.53125 45.445313 L 31.777344 45.375 L 32.03125 45.308594 L 32.292969 45.246094 L 32.558594 45.1875 L 32.832031 45.140625 L 33.113281 45.097656 L 33.402344 45.058594 L 33.699219 45.03125 L 34 45.007813 L 34.3125 44.992188 L 34.632813 44.980469 L 34.957031 44.976563 L 35.285156 44.980469 L 35.605469 44.992188 L 35.914063 45.007813 L 36.21875 45.03125 L 36.519531 45.058594 L 36.808594 45.097656 L 37.089844 45.140625 L 37.367188 45.1875 L 37.636719 45.246094 L 37.898438 45.308594 L 38.148438 45.375 L 38.394531 45.445313 L 38.632813 45.523438 L 38.867188 45.601563 L 39.09375 45.683594 L 39.316406 45.769531 L 39.527344 45.859375 L 39.734375 45.949219 L 39.9375 46.046875 L 40.328125 46.25 L 40.53125 46.359375 L 40.738281 46.476563 L 40.953125 46.597656 L 41.171875 46.730469 L 41.398438 46.867188 L 41.632813 47.011719 L 41.871094 47.160156 L 42.117188 47.320313 L 42.367188 47.484375 L 41.796875 48.351563 L 41.570313 48.214844 L 41.351563 48.082031 L 41.132813 47.957031 L 40.921875 47.835938 L 40.714844 47.722656 L 40.511719 47.613281 L 40.3125 47.511719 L 40.117188 47.417969 L 39.929688 47.328125 L 39.742188 47.242188 L 39.554688 47.160156 L 39.363281 47.082031 L 39.164063 47.007813 L 38.964844 46.9375 L 38.757813 46.867188 L 38.546875 46.804688 L 38.332031 46.742188 L 37.886719 46.632813 L 37.65625 46.582031 L 37.421875 46.539063 L 37.175781 46.496094 L 36.921875 46.460938 L 36.664063 46.429688 L 36.398438 46.402344 L 36.125 46.382813 L 35.84375 46.363281 L 35.554688 46.351563 L 35.261719 46.34375 L 34.65625 46.34375 L 34.359375 46.351563 L 34.074219 46.363281 L 33.792969 46.382813 L 33.523438 46.402344 L 33.257813 46.429688 L 33 46.460938 L 32.75 46.496094 L 32.507813 46.539063 L 32.273438 46.582031 L 32.042969 46.632813 L 31.816406 46.6875 L 31.59375 46.742188 L 31.378906 46.804688 L 31.167969 46.867188 L 30.960938 46.9375 L 30.761719 47.007813 L 30.5625 47.082031 L 30.375 47.160156 L 30.1875 47.242188 L 30 47.328125 L 29.808594 47.417969 L 29.609375 47.511719 L 29.410156 47.613281 L 29.207031 47.722656 L 28.996094 47.835938 L 28.78125 47.957031 L 28.566406 48.082031 L 28.34375 48.214844 L 28.117188 48.351563 Z M 27.546875 47.484375 "/>
<path style=" stroke:none;fill-rule:nonzero;fill:rgb(0%,0%,0%);fill-opacity:1;" d="M 28.101563 41.152344 L 41.738281 41.152344 L 41.738281 42.414063 L 28.101563 42.414063 Z M 28.101563 41.152344 "/>
<path style=" stroke:none;fill-rule:nonzero;fill:rgb(0%,0%,0%);fill-opacity:1;" d="M 39.863281 34.179688 L 39.964844 34.328125 L 40.058594 34.484375 L 40.136719 34.644531 L 40.207031 34.804688 L 40.269531 34.96875 L 40.316406 35.136719 L 40.355469 35.308594 L 40.382813 35.484375 L 40.398438 35.660156 L 40.402344 35.84375 L 40.398438 36.03125 L 40.378906 36.210938 L 40.351563 36.378906 L 40.3125 36.542969 L 40.265625 36.695313 L 40.203125 36.839844 L 40.132813 36.972656 L 40.046875 37.101563 L 39.953125 37.21875 L 39.847656 37.328125 L 39.730469 37.425781 L 39.609375 37.511719 L 39.472656 37.589844 L 39.332031 37.65625 L 39.179688 37.710938 L 39.019531 37.757813 L 38.851563 37.792969 L 38.671875 37.816406 L 38.484375 37.832031 L 38.289063 37.839844 L 33.339844 37.839844 L 33.339844 38.964844 L 32.316406 38.964844 L 32.316406 37.839844 L 30.503906 37.839844 L 30.339844 36.488281 L 32.316406 36.488281 L 32.316406 34.746094 L 33.339844 34.898438 L 33.339844 36.488281 L 38.273438 36.488281 L 38.464844 36.480469 L 38.640625 36.453125 L 38.792969 36.410156 L 38.925781 36.351563 L 39.039063 36.273438 L 39.128906 36.179688 L 39.199219 36.070313 L 39.253906 35.941406 L 39.28125 35.796875 L 39.292969 35.632813 L 39.292969 35.582031 L 39.289063 35.53125 L 39.28125 35.4375 L 39.257813 35.296875 L 39.246094 35.253906 L 39.230469 35.210938 L 39.21875 35.167969 L 39.203125 35.121094 L 39.183594 35.074219 L 39.167969 35.027344 L 39.144531 34.980469 L 39.125 34.933594 L 39.101563 34.882813 L 39.074219 34.832031 L 39.050781 34.777344 L 39.023438 34.726563 L 38.992188 34.671875 Z M 39.863281 34.179688 "/>
<path style=" stroke:none;fill-rule:nonzero;fill:rgb(0%,0%,0%);fill-opacity:1;" d="M 28.011719 30.742188 L 41.949219 30.742188 L 41.949219 33.5625 L 40.882813 33.5625 L 40.882813 32.019531 L 29.09375 32.019531 L 29.09375 33.5625 L 28.011719 33.5625 Z M 28.011719 30.742188 "/>
</g>
</svg>
