<?xml version="1.0" encoding="UTF-8" standalone="no"?>
<!-- Created with Inkscape (http://www.inkscape.org/) -->

<svg
   xmlns:dc="http://purl.org/dc/elements/1.1/"
   xmlns:cc="http://creativecommons.org/ns#"
   xmlns:rdf="http://www.w3.org/1999/02/22-rdf-syntax-ns#"
   xmlns:svg="http://www.w3.org/2000/svg"
   xmlns="http://www.w3.org/2000/svg"
   xmlns:sodipodi="http://sodipodi.sourceforge.net/DTD/sodipodi-0.dtd"
   xmlns:inkscape="http://www.inkscape.org/namespaces/inkscape"
   width="297mm"
   height="210mm"
   viewBox="0 0 297 210"
   version="1.1"
   id="svg6293"
   inkscape:version="0.92.3 (2405546, 2018-03-11)"
   sodipodi:docname="two_dist.svg">
  <defs
     id="defs6287" />
  <sodipodi:namedview
     id="base"
     pagecolor="#ffffff"
     bordercolor="#666666"
     borderopacity="1.0"
     inkscape:pageopacity="0.0"
     inkscape:pageshadow="2"
     inkscape:zoom="1.979899"
     inkscape:cx="401.01201"
     inkscape:cy="352.9323"
     inkscape:document-units="mm"
     inkscape:current-layer="layer1"
     showgrid="false"
     inkscape:window-width="3840"
     inkscape:window-height="1973"
     inkscape:window-x="-18"
     inkscape:window-y="-18"
     inkscape:window-maximized="1" />
  <metadata
     id="metadata6290">
    <rdf:RDF>
      <cc:Work
         rdf:about="">
        <dc:format>image/svg+xml</dc:format>
        <dc:type
           rdf:resource="http://purl.org/dc/dcmitype/StillImage" />
        <dc:title></dc:title>
      </cc:Work>
    </rdf:RDF>
  </metadata>
  <g
     inkscape:label="Layer 1"
     inkscape:groupmode="layer"
     id="layer1"
     transform="translate(0,-87)">
    <path
       inkscape:connector-curvature="0"
       class="cls-1"
       d="m 197.70341,132.14434 c 1.82632,0.54397 3.66719,0.93178 5.47593,1.67748 1.73298,0.71314 3.43504,1.77897 5.14619,2.73285 0.7395,0.40995 1.47899,0.8485 2.19788,1.39508 1.63115,1.24152 3.26289,2.48822 4.8698,3.86508 1.79661,1.52909 3.57201,3.18184 5.28923,5.10917 a 58.917497,126.49306 0 0 1 7.95326,10.79226 c 1.51537,2.42444 3.03073,4.83588 4.52488,7.31627 0.76254,1.26625 1.47658,2.66653 2.21123,4.00824 1.00985,1.84533 2.03848,3.64382 3.02165,5.55163 1.07469,2.08219 2.18213,4.08761 3.23439,6.24658 1.51113,3.09855 3.00104,6.26347 4.64491,9.05622 0.22064,0.3748 0.40915,0.83808 0.60918,1.26753 q 1.84389,3.95098 3.68658,7.90842 c 2.5919,5.58288 5.35713,10.77794 7.92599,16.41808 0.94922,2.08219 2.09241,3.76356 3.15196,5.6128 0.62312,1.08794 1.28745,2.07438 1.87905,3.2352 1.13047,2.22012 2.38822,4.085 3.57263,6.15027 a 60.140096,129.11793 0 0 0 5.18257,8.02424 c 2.60643,3.63214 5.28924,6.98447 8.12601,9.71471 1.09712,1.05542 2.28335,1.67227 3.39987,2.64441 1.35231,1.17123 2.81737,1.34041 4.18848,2.34245 0.60069,0.43726 1.26017,0.49062 1.88814,0.7704 0.30672,0.13656 0.60252,0.39043 0.92862,0.60775 -0.31216,0.79123 -0.67706,0.39952 -0.98559,0.40082 q -12.30175,0.0417 -24.60412,0.0206 -13.6383,0 -27.27056,0.0138 l -34.18669,-0.0115 h -1.93967 -23.76097 q -3.81873,0 -7.63745,-0.0115 -13.39586,0.007 -26.79171,0.0234 -16.42658,0 -32.85317,-0.0115 -9.51651,0 -19.03302,0 h -1.201985 l -0.01945,-0.26029 c 0.403697,-0.24076 0.80496,-0.50363 1.212292,-0.71704 0.427935,-0.22385 0.861332,-0.40084 1.292912,-0.59603 0.666757,-0.30061 1.333526,-0.59473 2.000283,-0.90316 0.470365,-0.21858 0.948615,-0.39039 1.406262,-0.70012 0.651604,-0.44118 1.29473,-0.94871 1.92877,-1.4992 1.56628,-1.35861 3.203476,-2.34245 4.693386,-4.10712 0.74132,-0.87452 1.48567,-1.73601 2.2179,-2.64437 1.98574,-2.46347 3.96784,-4.94521 5.83537,-7.80822 1.59962,-2.45958 3.17621,-4.98295 4.69461,-7.67806 1.08197,-1.92084 2.20517,-3.73494 3.29805,-5.62712 0.62554,-1.08274 1.22441,-2.23706 1.84208,-3.34063 0.86436,-1.54212 1.73964,-3.05692 2.60158,-4.60425 0.24731,-0.44376 0.46977,-0.95259 0.69828,-1.44319 1.79965,-3.86508 3.52778,-7.90063 5.41532,-11.55618 2.37003,-4.58993 4.5461,-9.59629 6.88401,-14.23827 0.97469,-1.93515 1.90634,-3.99129 2.93133,-5.78978 0.94074,-1.65275 1.77601,-3.51371 2.66705,-5.25883 0.65161,-1.27275 1.3711,-2.38541 2.0609,-3.57618 a 5.7583974,12.363006 0 0 0 0.54553,-1.01637 c 1.45475,-3.25342 3.16105,-5.86655 4.81099,-8.61897 1.23594,-2.06267 2.47006,-4.13705 3.7478,-6.07609 1.44446,-2.1915 2.88649,-4.42466 4.42064,-6.30122 2.17243,-2.65219 4.39214,-5.15602 6.65913,-7.4087 1.79178,-1.77897 3.63143,-3.3289 5.54988,-4.3661 a 6.6488275,14.274716 0 0 0 0.92498,-0.61034 c 1.64024,-1.46794 3.37866,-2.16028 5.07588,-3.19615 1.78935,-1.09186 3.62113,-1.54473 5.43168,-2.28261 0.81467,-0.33187 1.67721,-0.2772 2.50643,-0.65069 l 0.48491,-0.0115 1.69722,-0.51145 0.48491,-0.009 c 0.16063,0 0.32671,0.0559 0.48067,-0.0161 2.06393,-0.963 4.15333,-0.34746 6.22998,-0.43075 0.58918,-0.0183 1.16562,0.63766 1.77784,0.45288 h 0.48491 l 1.69722,0.52054 z"
       id="path3284"
       style="fill:#9f28d5;fill-opacity:0.41445785;stroke:#9f28d5;stroke-width:3.36500025;stroke-miterlimit:4;stroke-dasharray:none;stroke-opacity:1" />
    <path
       inkscape:connector-curvature="0"
       class="cls-1"
       d="M 75.175562,254.9134 H 54.079748 c -0.168193,0 -0.341424,-0.0353 -0.504569,0.009 -2.426108,0.67075 -4.887536,0.26871 -7.331316,0.40309 l -4.709258,0.0198 c -1.881184,0 -3.762368,-0.0154 -5.643544,0 -0.438134,0 -0.875423,0.10671 -1.314396,0.14721 -0.932602,0.0919 -1.865203,0.17374 -2.797798,0.26022 l -2.018255,0.0176 c -1.527988,0.0576 -3.065232,-0.22289 -4.579765,0.33912 -0.457469,0.17066 -0.982218,0.0544 -1.475848,0.0694 l -1.345501,0.0115 -0.672754,-0.006 c 0,-0.14502 0,-0.29008 0.0055,-0.4351 a 50.507687,64.049186 0 0 0 7.343926,-4.63672 c 0.761893,-0.58866 1.597793,-1.02801 2.395839,-1.53774 2.501799,-1.59963 4.742903,-3.72176 7.098374,-5.61355 a 0.7930062,1.0056172 0 0 0 0.129509,-0.13648 c 1.802131,-2.32797 3.917934,-4.23365 5.615792,-6.70022 0.475972,-0.68999 0.955307,-1.38632 1.350548,-2.15416 1.591062,-3.07549 3.233417,-6.11688 4.686561,-9.2958 0.713955,-1.5623 1.399318,-3.21095 1.734857,-5.0121 a 0.47849475,0.60678287 0 0 1 0.06392,-0.19738 c 0.909059,-1.71797 1.266456,-3.74522 1.934163,-5.60183 0.41206,-1.14957 0.619768,-2.4154 0.951097,-3.61402 0.220325,-0.79769 0.496162,-1.56976 0.749276,-2.35142 0.06392,-0.1963 0.182488,-0.37858 0.200145,-0.57907 0.158099,-1.78621 0.895603,-3.3677 1.182363,-5.0718 0.40786,-2.43246 1.474172,-4.60578 1.617128,-7.11717 a 1.3715728,1.739302 0 0 1 0.09419,-0.40736 c 0.888871,-3.4253 1.866043,-6.81858 2.637184,-10.28653 0.499523,-2.24797 1.017541,-4.48528 1.609557,-6.69487 q 1.131908,-4.22614 2.336137,-8.42455 c 0.321236,-1.11442 0.768619,-2.17016 1.106673,-3.27815 0.319558,-1.04933 0.443181,-2.20105 1.066311,-3.07978 0.873738,-3.70041 2.474885,-6.97639 3.842252,-10.38033 a 70.981204,90.01181 0 0 1 6.687156,-13.4644 c 0.905685,-1.51964 2.043481,-2.81424 2.97272,-4.31253 a 33.861281,42.93975 0 0 1 3.766572,-5.12941 c 2.01321,-2.33649 4.102111,-4.54501 6.456732,-6.36215 2.34118,-1.80542 4.655447,-3.65241 7.147989,-5.09421 0.85776,-0.49586 1.765975,-0.84459 2.658215,-1.25515 0.10428,-0.047 0.23294,-0.0198 0.3288,-0.0823 1.62133,-1.044 3.39403,-1.37245 5.1558,-1.74356 0.60296,-0.12595 1.21095,-0.21337 1.81727,-0.30714 0.66182,-0.10672 1.3228,-0.2783 1.98631,-0.29856 1.11339,-0.0342 2.22932,0.0115 3.34358,0.0607 0.33048,0.0131 0.65677,0.21337 0.98557,0.21337 2.76417,0 5.44929,0.68034 8.03518,1.81289 1.57341,0.69101 3.07531,1.7137 4.52594,2.77263 2.52955,1.84061 4.76055,4.1899 6.8116,6.82497 0.97802,1.25942 1.88203,2.63404 3.10055,3.56712 a 2.1065542,2.6713378 0 0 1 0.48186,0.59079 c 1.33121,1.9995 2.70279,3.95954 3.97429,6.01877 1.6146,2.6159 3.17623,5.28615 4.70925,7.9799 2.61113,4.59299 5.26766,9.14654 7.53987,14.03384 0.8216,1.76812 1.74915,3.45621 2.60691,5.19766 2.72381,5.52287 5.46107,11.03512 8.14787,16.58573 2.892,5.97187 5.77054,11.96078 8.58431,17.99341 2.79025,5.98147 5.91602,11.68137 8.96022,17.44743 1.48594,2.81422 3.16613,5.46637 4.84717,8.11316 1.89801,2.98593 3.96588,5.75859 6.06065,8.51416 1.64069,2.15945 3.48907,3.97448 5.36436,5.75857 0.93598,0.89044 1.93416,1.68065 2.88022,2.55083 2.27811,2.09228 4.78748,3.60765 7.34225,5.07823 a 66.865647,84.792842 0 0 0 7.66265,3.72601 c 2.3378,0.92774 4.66048,1.89819 7.0807,2.49857 2.12927,0.5332 4.2047,1.40657 6.29528,2.17547 a 48.665184,61.712696 0 0 0 5.19785,1.55373 c -0.27246,0.4671 -0.67275,0.4191 -1.05959,0.42017 q -2.16205,0.009 -4.32579,0.0115 c -2.06451,-0.006 -4.12818,-0.009 -6.19268,-0.0234 -0.99904,-0.006 -2.00228,0.0992 -2.98281,-0.31991 -0.30442,-0.13013 -0.6635,-0.0683 -0.99735,-0.0683 q -8.20001,0 -16.39834,0 l -5.71838,-0.0176 c -1.89381,-0.006 -3.78424,0 -5.68056,-0.0256 -1.32952,-0.0198 -2.67081,0.16957 -3.97848,-0.34766 -0.25228,-0.10672 -0.55334,-0.0395 -0.83169,-0.0395 l -9.3563,0.006 -4.70926,-0.0198 c -1.33709,-0.006 -2.67503,-0.006 -4.01212,-0.022 -0.77703,-0.009 -1.55153,0.0545 -2.31512,-0.28151 -0.35402,-0.15467 -0.77114,-0.10672 -1.15964,-0.10672 q -7.18919,-0.006 -14.38007,0 l -6.05477,-0.0198 c -2.00816,-0.006 -4.01717,0 -6.02534,-0.0256 -1.33204,-0.0176 -2.67503,0.16627 -3.98437,-0.34977 -0.25228,-0.1067 -0.55502,-0.0362 -0.83336,-0.0362 h -16.06751 l -5.38202,-0.0176 c -1.6743,-0.006 -3.34946,0 -5.02461,-0.0256 -1.05454,-0.0115 -2.11664,0.12159 -3.15268,-0.31993 -0.30443,-0.13013 -0.66351,-0.0651 -0.9982,-0.0651 q -11.053301,0 -22.108307,0 h -6.05476 z"
       id="path8667"
       style="fill:#169fdd;fill-opacity:0.41445785;stroke:#169fdd;stroke-width:3.36500025;stroke-miterlimit:4;stroke-dasharray:none;stroke-opacity:1" />
  </g>
</svg>
