<?xml version="1.0" encoding="UTF-8"?>
<svg xmlns="http://www.w3.org/2000/svg" xmlns:xlink="http://www.w3.org/1999/xlink" width="432pt" height="360pt" viewBox="0 0 432 360" version="1.1">
<defs>
<clipPath id="clip1">
  <path d="M 50 245 L 402.113281 245 L 402.113281 246 L 50 246 Z M 50 245 "/>
</clipPath>
<clipPath id="clip2">
  <path d="M 50 159 L 402.113281 159 L 402.113281 160 L 50 160 Z M 50 159 "/>
</clipPath>
<clipPath id="clip3">
  <path d="M 50 73 L 402.113281 73 L 402.113281 74 L 50 74 Z M 50 73 "/>
</clipPath>
<clipPath id="clip4">
  <path d="M 119 29.886719 L 120 29.886719 L 120 310 L 119 310 Z M 119 29.886719 "/>
</clipPath>
<clipPath id="clip5">
  <path d="M 208 29.886719 L 209 29.886719 L 209 310 L 208 310 Z M 208 29.886719 "/>
</clipPath>
<clipPath id="clip6">
  <path d="M 296 29.886719 L 298 29.886719 L 298 310 L 296 310 Z M 296 29.886719 "/>
</clipPath>
<clipPath id="clip7">
  <path d="M 385 29.886719 L 387 29.886719 L 387 310 L 385 310 Z M 385 29.886719 "/>
</clipPath>
<clipPath id="clip8">
  <path d="M 242 29.886719 L 246 29.886719 L 246 310 L 242 310 Z M 242 29.886719 "/>
</clipPath>
</defs>
<g id="surface104">
<rect x="0" y="0" width="432" height="360" style="fill:rgb(100%,100%,100%);fill-opacity:1;stroke:none;"/>
<g clip-path="url(#clip1)" clip-rule="nonzero">
<path style="fill:none;stroke-width:0.426791;stroke-linecap:butt;stroke-linejoin:round;stroke:rgb(80%,80%,80%);stroke-opacity:1;stroke-miterlimit:10;" d="M 50 245.648438 L 402.113281 245.648438 "/>
</g>
<g clip-path="url(#clip2)" clip-rule="nonzero">
<path style="fill:none;stroke-width:0.426791;stroke-linecap:butt;stroke-linejoin:round;stroke:rgb(80%,80%,80%);stroke-opacity:1;stroke-miterlimit:10;" d="M 50 159.621094 L 402.113281 159.621094 "/>
</g>
<g clip-path="url(#clip3)" clip-rule="nonzero">
<path style="fill:none;stroke-width:0.426791;stroke-linecap:butt;stroke-linejoin:round;stroke:rgb(80%,80%,80%);stroke-opacity:1;stroke-miterlimit:10;" d="M 50 73.589844 L 402.113281 73.589844 "/>
</g>
<g clip-path="url(#clip4)" clip-rule="nonzero">
<path style="fill:none;stroke-width:0.426791;stroke-linecap:butt;stroke-linejoin:round;stroke:rgb(80%,80%,80%);stroke-opacity:1;stroke-miterlimit:10;" d="M 119.355469 310 L 119.355469 29.886719 "/>
</g>
<g clip-path="url(#clip5)" clip-rule="nonzero">
<path style="fill:none;stroke-width:0.426791;stroke-linecap:butt;stroke-linejoin:round;stroke:rgb(80%,80%,80%);stroke-opacity:1;stroke-miterlimit:10;" d="M 208.273438 310 L 208.273438 29.886719 "/>
</g>
<g clip-path="url(#clip6)" clip-rule="nonzero">
<path style="fill:none;stroke-width:0.426791;stroke-linecap:butt;stroke-linejoin:round;stroke:rgb(80%,80%,80%);stroke-opacity:1;stroke-miterlimit:10;" d="M 297.191406 310 L 297.191406 29.886719 "/>
</g>
<g clip-path="url(#clip7)" clip-rule="nonzero">
<path style="fill:none;stroke-width:0.426791;stroke-linecap:butt;stroke-linejoin:round;stroke:rgb(80%,80%,80%);stroke-opacity:1;stroke-miterlimit:10;" d="M 386.105469 310 L 386.105469 29.886719 "/>
</g>
<path style="fill-rule:nonzero;fill:rgb(79.607843%,70.196078%,74.901961%);fill-opacity:1;stroke-width:0.708661;stroke-linecap:round;stroke-linejoin:round;stroke:rgb(79.607843%,70.196078%,74.901961%);stroke-opacity:1;stroke-miterlimit:10;" d="M 69.5625 297.265625 C 69.5625 302.007813 62.449219 302.007813 62.449219 297.265625 C 62.449219 292.527344 69.5625 292.527344 69.5625 297.265625 "/>
<path style="fill-rule:nonzero;fill:rgb(79.607843%,70.196078%,74.901961%);fill-opacity:1;stroke-width:0.708661;stroke-linecap:round;stroke-linejoin:round;stroke:rgb(79.607843%,70.196078%,74.901961%);stroke-opacity:1;stroke-miterlimit:10;" d="M 105.128906 280.0625 C 105.128906 284.800781 98.015625 284.800781 98.015625 280.0625 C 98.015625 275.320313 105.128906 275.320313 105.128906 280.0625 "/>
<path style="fill-rule:nonzero;fill:rgb(79.607843%,70.196078%,74.901961%);fill-opacity:1;stroke-width:0.708661;stroke-linecap:round;stroke-linejoin:round;stroke:rgb(79.607843%,70.196078%,74.901961%);stroke-opacity:1;stroke-miterlimit:10;" d="M 140.695313 262.855469 C 140.695313 267.597656 133.582031 267.597656 133.582031 262.855469 C 133.582031 258.113281 140.695313 258.113281 140.695313 262.855469 "/>
<path style="fill-rule:nonzero;fill:rgb(79.607843%,70.196078%,74.901961%);fill-opacity:1;stroke-width:0.708661;stroke-linecap:round;stroke-linejoin:round;stroke:rgb(79.607843%,70.196078%,74.901961%);stroke-opacity:1;stroke-miterlimit:10;" d="M 176.261719 245.648438 C 176.261719 250.390625 169.152344 250.390625 169.152344 245.648438 C 169.152344 240.910156 176.261719 240.910156 176.261719 245.648438 "/>
<path style="fill-rule:nonzero;fill:rgb(79.607843%,70.196078%,74.901961%);fill-opacity:1;stroke-width:0.708661;stroke-linecap:round;stroke-linejoin:round;stroke:rgb(79.607843%,70.196078%,74.901961%);stroke-opacity:1;stroke-miterlimit:10;" d="M 211.828125 228.445313 C 211.828125 233.183594 204.71875 233.183594 204.71875 228.445313 C 204.71875 223.703125 211.828125 223.703125 211.828125 228.445313 "/>
<path style="fill-rule:nonzero;fill:rgb(79.607843%,70.196078%,74.901961%);fill-opacity:1;stroke-width:0.708661;stroke-linecap:round;stroke-linejoin:round;stroke:rgb(79.607843%,70.196078%,74.901961%);stroke-opacity:1;stroke-miterlimit:10;" d="M 247.394531 211.238281 C 247.394531 215.976563 240.285156 215.976563 240.285156 211.238281 C 240.285156 206.496094 247.394531 206.496094 247.394531 211.238281 "/>
<path style="fill-rule:nonzero;fill:rgb(79.607843%,70.196078%,74.901961%);fill-opacity:1;stroke-width:0.708661;stroke-linecap:round;stroke-linejoin:round;stroke:rgb(79.607843%,70.196078%,74.901961%);stroke-opacity:1;stroke-miterlimit:10;" d="M 282.960938 194.03125 C 282.960938 198.773438 275.851563 198.773438 275.851563 194.03125 C 275.851563 189.292969 282.960938 189.292969 282.960938 194.03125 "/>
<path style="fill-rule:nonzero;fill:rgb(79.607843%,70.196078%,74.901961%);fill-opacity:1;stroke-width:0.708661;stroke-linecap:round;stroke-linejoin:round;stroke:rgb(79.607843%,70.196078%,74.901961%);stroke-opacity:1;stroke-miterlimit:10;" d="M 318.527344 176.824219 C 318.527344 181.566406 311.417969 181.566406 311.417969 176.824219 C 311.417969 172.085938 318.527344 172.085938 318.527344 176.824219 "/>
<path style="fill-rule:nonzero;fill:rgb(79.607843%,70.196078%,74.901961%);fill-opacity:1;stroke-width:0.708661;stroke-linecap:round;stroke-linejoin:round;stroke:rgb(79.607843%,70.196078%,74.901961%);stroke-opacity:1;stroke-miterlimit:10;" d="M 354.09375 159.621094 C 354.09375 164.359375 346.984375 164.359375 346.984375 159.621094 C 346.984375 154.878906 354.09375 154.878906 354.09375 159.621094 "/>
<path style="fill-rule:nonzero;fill:rgb(79.607843%,70.196078%,74.901961%);fill-opacity:1;stroke-width:0.708661;stroke-linecap:round;stroke-linejoin:round;stroke:rgb(79.607843%,70.196078%,74.901961%);stroke-opacity:1;stroke-miterlimit:10;" d="M 389.664063 142.414063 C 389.664063 147.15625 382.550781 147.15625 382.550781 142.414063 C 382.550781 137.675781 389.664063 137.675781 389.664063 142.414063 "/>
<path style="fill-rule:nonzero;fill:rgb(100%,78.431373%,34.117647%);fill-opacity:1;stroke-width:0.708661;stroke-linecap:round;stroke-linejoin:round;stroke:rgb(100%,78.431373%,34.117647%);stroke-opacity:1;stroke-miterlimit:10;" d="M 69.5625 280.0625 C 69.5625 284.800781 62.449219 284.800781 62.449219 280.0625 C 62.449219 275.320313 69.5625 275.320313 69.5625 280.0625 "/>
<path style="fill-rule:nonzero;fill:rgb(100%,78.431373%,34.117647%);fill-opacity:1;stroke-width:0.708661;stroke-linecap:round;stroke-linejoin:round;stroke:rgb(100%,78.431373%,34.117647%);stroke-opacity:1;stroke-miterlimit:10;" d="M 105.128906 262.855469 C 105.128906 267.597656 98.015625 267.597656 98.015625 262.855469 C 98.015625 258.113281 105.128906 258.113281 105.128906 262.855469 "/>
<path style="fill-rule:nonzero;fill:rgb(100%,78.431373%,34.117647%);fill-opacity:1;stroke-width:0.708661;stroke-linecap:round;stroke-linejoin:round;stroke:rgb(100%,78.431373%,34.117647%);stroke-opacity:1;stroke-miterlimit:10;" d="M 140.695313 245.648438 C 140.695313 250.390625 133.582031 250.390625 133.582031 245.648438 C 133.582031 240.910156 140.695313 240.910156 140.695313 245.648438 "/>
<path style="fill-rule:nonzero;fill:rgb(100%,78.431373%,34.117647%);fill-opacity:1;stroke-width:0.708661;stroke-linecap:round;stroke-linejoin:round;stroke:rgb(100%,78.431373%,34.117647%);stroke-opacity:1;stroke-miterlimit:10;" d="M 176.261719 228.445313 C 176.261719 233.183594 169.152344 233.183594 169.152344 228.445313 C 169.152344 223.703125 176.261719 223.703125 176.261719 228.445313 "/>
<path style="fill-rule:nonzero;fill:rgb(100%,78.431373%,34.117647%);fill-opacity:1;stroke-width:0.708661;stroke-linecap:round;stroke-linejoin:round;stroke:rgb(100%,78.431373%,34.117647%);stroke-opacity:1;stroke-miterlimit:10;" d="M 211.828125 211.238281 C 211.828125 215.976563 204.71875 215.976563 204.71875 211.238281 C 204.71875 206.496094 211.828125 206.496094 211.828125 211.238281 "/>
<path style="fill-rule:nonzero;fill:rgb(100%,78.431373%,34.117647%);fill-opacity:1;stroke-width:0.708661;stroke-linecap:round;stroke-linejoin:round;stroke:rgb(100%,78.431373%,34.117647%);stroke-opacity:1;stroke-miterlimit:10;" d="M 247.394531 194.03125 C 247.394531 198.773438 240.285156 198.773438 240.285156 194.03125 C 240.285156 189.292969 247.394531 189.292969 247.394531 194.03125 "/>
<path style="fill-rule:nonzero;fill:rgb(100%,78.431373%,34.117647%);fill-opacity:1;stroke-width:0.708661;stroke-linecap:round;stroke-linejoin:round;stroke:rgb(100%,78.431373%,34.117647%);stroke-opacity:1;stroke-miterlimit:10;" d="M 282.960938 156.179688 C 282.960938 160.917969 275.851563 160.917969 275.851563 156.179688 C 275.851563 151.4375 282.960938 151.4375 282.960938 156.179688 "/>
<path style="fill-rule:nonzero;fill:rgb(100%,78.431373%,34.117647%);fill-opacity:1;stroke-width:0.708661;stroke-linecap:round;stroke-linejoin:round;stroke:rgb(100%,78.431373%,34.117647%);stroke-opacity:1;stroke-miterlimit:10;" d="M 318.527344 118.324219 C 318.527344 123.066406 311.417969 123.066406 311.417969 118.324219 C 311.417969 113.585938 318.527344 113.585938 318.527344 118.324219 "/>
<path style="fill-rule:nonzero;fill:rgb(100%,78.431373%,34.117647%);fill-opacity:1;stroke-width:0.708661;stroke-linecap:round;stroke-linejoin:round;stroke:rgb(100%,78.431373%,34.117647%);stroke-opacity:1;stroke-miterlimit:10;" d="M 354.09375 80.472656 C 354.09375 85.214844 346.984375 85.214844 346.984375 80.472656 C 346.984375 75.734375 354.09375 75.734375 354.09375 80.472656 "/>
<path style="fill-rule:nonzero;fill:rgb(100%,78.431373%,34.117647%);fill-opacity:1;stroke-width:0.708661;stroke-linecap:round;stroke-linejoin:round;stroke:rgb(100%,78.431373%,34.117647%);stroke-opacity:1;stroke-miterlimit:10;" d="M 389.664063 42.621094 C 389.664063 47.359375 382.550781 47.359375 382.550781 42.621094 C 382.550781 37.878906 389.664063 37.878906 389.664063 42.621094 "/>
<path style="fill:none;stroke-width:2.133957;stroke-linecap:butt;stroke-linejoin:round;stroke:rgb(79.607843%,70.196078%,74.901961%);stroke-opacity:1;stroke-miterlimit:10;" d="M 66.003906 297.265625 L 101.574219 280.0625 L 172.707031 245.648438 L 208.273438 228.445313 L 314.972656 176.824219 L 350.539063 159.621094 L 386.105469 142.414063 "/>
<path style="fill:none;stroke-width:2.133957;stroke-linecap:butt;stroke-linejoin:round;stroke:rgb(100%,78.431373%,34.117647%);stroke-opacity:1;stroke-miterlimit:10;" d="M 66.003906 280.0625 L 101.574219 262.855469 L 137.140625 245.648438 L 172.707031 228.445313 L 243.839844 194.03125 L 279.40625 156.179688 L 314.972656 118.324219 L 386.105469 42.621094 "/>
<g clip-path="url(#clip8)" clip-rule="nonzero">
<path style="fill:none;stroke-width:2.347352;stroke-linecap:butt;stroke-linejoin:round;stroke:rgb(66.27451%,66.27451%,66.27451%);stroke-opacity:1;stroke-dasharray:9.389409,9.389409;stroke-miterlimit:10;" d="M 243.839844 310 L 243.839844 29.886719 "/>
</g>
<path style=" stroke:none;fill-rule:nonzero;fill:rgb(0%,0%,0%);fill-opacity:1;" d="M 377.792969 315.726563 L 377.617188 316.945313 L 374.910156 316.945313 L 374.910156 326.734375 L 373.425781 326.734375 L 373.425781 316.945313 L 370.640625 316.945313 L 370.640625 315.726563 Z M 377.792969 315.726563 "/>
<path style=" stroke:none;fill-rule:nonzero;fill:rgb(0%,0%,0%);fill-opacity:1;" d="M 380.609375 318.320313 L 380.609375 326.734375 L 379.167969 326.734375 L 379.167969 318.320313 Z M 379.886719 314.351563 L 379.96875 314.355469 L 380.046875 314.363281 L 380.125 314.375 L 380.195313 314.394531 L 380.265625 314.421875 L 380.328125 314.449219 L 380.390625 314.484375 L 380.453125 314.527344 L 380.507813 314.574219 L 380.613281 314.679688 L 380.699219 314.796875 L 380.734375 314.863281 L 380.765625 314.929688 L 380.789063 314.996094 L 380.808594 315.066406 L 380.820313 315.140625 L 380.828125 315.21875 L 380.832031 315.296875 L 380.828125 315.375 L 380.820313 315.449219 L 380.808594 315.523438 L 380.792969 315.59375 L 380.769531 315.664063 L 380.738281 315.730469 L 380.707031 315.792969 L 380.667969 315.855469 L 380.625 315.914063 L 380.574219 315.96875 L 380.523438 316.015625 L 380.464844 316.058594 L 380.40625 316.097656 L 380.34375 316.132813 L 380.277344 316.160156 L 380.207031 316.183594 L 380.132813 316.199219 L 380.054688 316.214844 L 379.972656 316.222656 L 379.804688 316.222656 L 379.726563 316.214844 L 379.578125 316.183594 L 379.507813 316.160156 L 379.441406 316.132813 L 379.375 316.097656 L 379.316406 316.058594 L 379.257813 316.015625 L 379.199219 315.96875 L 379.152344 315.914063 L 379.109375 315.855469 L 379.070313 315.792969 L 379.035156 315.730469 L 379.007813 315.664063 L 378.984375 315.59375 L 378.96875 315.523438 L 378.953125 315.449219 L 378.945313 315.375 L 378.945313 315.21875 L 378.953125 315.140625 L 378.96875 315.066406 L 378.984375 314.996094 L 379.007813 314.929688 L 379.035156 314.863281 L 379.070313 314.796875 L 379.109375 314.738281 L 379.152344 314.679688 L 379.199219 314.625 L 379.257813 314.574219 L 379.316406 314.527344 L 379.375 314.484375 L 379.441406 314.449219 L 379.507813 314.421875 L 379.578125 314.394531 L 379.652344 314.375 L 379.726563 314.363281 L 379.804688 314.355469 Z M 379.886719 314.351563 "/>
<path style=" stroke:none;fill-rule:nonzero;fill:rgb(0%,0%,0%);fill-opacity:1;" d="M 390.976563 318.113281 L 391.15625 318.117188 L 391.324219 318.140625 L 391.488281 318.175781 L 391.648438 318.222656 L 391.796875 318.285156 L 391.9375 318.359375 L 392.074219 318.449219 L 392.199219 318.550781 L 392.320313 318.667969 L 392.433594 318.800781 L 392.535156 318.9375 L 392.628906 319.085938 L 392.710938 319.246094 L 392.78125 319.410156 L 392.839844 319.589844 L 392.890625 319.773438 L 392.925781 319.96875 L 392.953125 320.171875 L 392.96875 320.386719 L 392.976563 320.609375 L 392.976563 326.734375 L 391.550781 326.734375 L 391.550781 320.769531 L 391.542969 320.476563 L 391.511719 320.214844 L 391.460938 319.984375 L 391.394531 319.785156 L 391.304688 319.617188 L 391.195313 319.476563 L 391.066406 319.371094 L 390.917969 319.292969 L 390.75 319.246094 L 390.558594 319.230469 L 390.371094 319.246094 L 390.183594 319.289063 L 390 319.363281 L 389.816406 319.46875 L 389.640625 319.601563 L 389.464844 319.761719 L 389.292969 319.953125 L 389.125 320.175781 L 388.960938 320.425781 L 388.800781 320.703125 L 388.800781 326.734375 L 387.375 326.734375 L 387.375 320.769531 L 387.367188 320.476563 L 387.335938 320.214844 L 387.285156 319.984375 L 387.21875 319.785156 L 387.128906 319.617188 L 387.019531 319.476563 L 386.890625 319.371094 L 386.742188 319.292969 L 386.574219 319.246094 L 386.382813 319.230469 L 386.191406 319.246094 L 386 319.289063 L 385.816406 319.363281 L 385.632813 319.46875 L 385.457031 319.601563 L 385.28125 319.761719 L 385.113281 319.953125 L 384.945313 320.175781 L 384.78125 320.425781 L 384.625 320.703125 L 384.625 326.734375 L 383.199219 326.734375 L 383.199219 318.320313 L 384.449219 318.320313 L 384.558594 319.550781 L 384.75 319.277344 L 384.945313 319.035156 L 385.152344 318.816406 L 385.363281 318.628906 L 385.585938 318.472656 L 385.8125 318.34375 L 386.046875 318.242188 L 386.289063 318.167969 L 386.542969 318.125 L 386.800781 318.113281 L 386.9375 318.117188 L 387.066406 318.128906 L 387.195313 318.148438 L 387.316406 318.175781 L 387.4375 318.210938 L 387.550781 318.257813 L 387.660156 318.308594 L 387.769531 318.367188 L 387.871094 318.4375 L 387.96875 318.511719 L 388.0625 318.59375 L 388.148438 318.683594 L 388.230469 318.78125 L 388.308594 318.886719 L 388.378906 318.996094 L 388.445313 319.113281 L 388.507813 319.238281 L 388.5625 319.367188 L 388.613281 319.503906 L 388.65625 319.648438 L 388.855469 319.355469 L 389.0625 319.09375 L 389.273438 318.863281 L 389.496094 318.664063 L 389.722656 318.496094 L 389.960938 318.359375 L 390.203125 318.25 L 390.453125 318.171875 L 390.710938 318.128906 Z M 390.976563 318.113281 "/>
<path style=" stroke:none;fill-rule:nonzero;fill:rgb(0%,0%,0%);fill-opacity:1;" d="M 401.40625 322.273438 L 401.40625 322.480469 L 401.398438 322.628906 L 401.398438 322.703125 L 401.390625 322.78125 L 401.386719 322.859375 L 401.382813 322.941406 L 401.375 323.023438 L 396.480469 323.023438 L 396.496094 323.308594 L 396.523438 323.582031 L 396.558594 323.832031 L 396.605469 324.070313 L 396.660156 324.292969 L 396.722656 324.496094 L 396.796875 324.683594 L 396.878906 324.855469 L 396.972656 325.011719 L 397.070313 325.152344 L 397.179688 325.273438 L 397.296875 325.382813 L 397.421875 325.476563 L 397.554688 325.5625 L 397.695313 325.632813 L 397.84375 325.691406 L 398 325.734375 L 398.164063 325.765625 L 398.332031 325.785156 L 398.511719 325.792969 L 398.738281 325.785156 L 398.847656 325.777344 L 398.953125 325.765625 L 399.054688 325.75 L 399.15625 325.730469 L 399.253906 325.707031 L 399.351563 325.679688 L 399.445313 325.648438 L 399.535156 325.617188 L 399.628906 325.578125 L 399.816406 325.492188 L 399.914063 325.4375 L 400.007813 325.382813 L 400.105469 325.324219 L 400.203125 325.261719 L 400.300781 325.191406 L 400.398438 325.117188 L 400.496094 325.039063 L 401.136719 325.886719 L 400.894531 326.089844 L 400.648438 326.269531 L 400.398438 326.425781 L 400.136719 326.5625 L 399.871094 326.679688 L 399.601563 326.773438 L 399.320313 326.847656 L 399.035156 326.902344 L 398.746094 326.933594 L 398.449219 326.945313 L 398.125 326.933594 L 397.816406 326.898438 L 397.527344 326.84375 L 397.246094 326.761719 L 396.984375 326.660156 L 396.734375 326.535156 L 396.5 326.386719 L 396.28125 326.21875 L 396.078125 326.023438 L 395.886719 325.808594 L 395.71875 325.570313 L 395.566406 325.3125 L 395.429688 325.035156 L 395.316406 324.742188 L 395.214844 324.429688 L 395.136719 324.097656 L 395.074219 323.75 L 395.027344 323.382813 L 395 322.996094 L 394.992188 322.59375 L 395 322.1875 L 395.027344 321.800781 L 395.070313 321.429688 L 395.128906 321.078125 L 395.207031 320.742188 L 395.304688 320.425781 L 395.414063 320.125 L 395.546875 319.84375 L 395.691406 319.578125 L 395.855469 319.328125 L 396.035156 319.097656 L 396.230469 318.890625 L 396.433594 318.707031 L 396.65625 318.550781 L 396.886719 318.417969 L 397.136719 318.304688 L 397.394531 318.222656 L 397.667969 318.160156 L 397.957031 318.125 L 398.257813 318.113281 L 398.554688 318.121094 L 398.835938 318.15625 L 399.105469 318.210938 L 399.359375 318.285156 L 399.601563 318.382813 L 399.828125 318.503906 L 400.039063 318.644531 L 400.238281 318.808594 L 400.421875 318.992188 L 400.59375 319.199219 L 400.746094 319.421875 L 400.886719 319.664063 L 401.007813 319.925781 L 401.113281 320.207031 L 401.203125 320.503906 L 401.277344 320.820313 L 401.335938 321.15625 L 401.375 321.507813 L 401.398438 321.882813 Z M 400.015625 321.839844 L 400 321.339844 L 399.945313 320.890625 L 399.859375 320.492188 L 399.738281 320.152344 L 399.582031 319.859375 L 399.386719 319.621094 L 399.160156 319.4375 L 398.898438 319.304688 L 398.601563 319.226563 L 398.273438 319.199219 L 398.117188 319.207031 L 397.964844 319.226563 L 397.824219 319.261719 L 397.6875 319.308594 L 397.554688 319.367188 L 397.433594 319.441406 L 397.316406 319.53125 L 397.207031 319.628906 L 397.105469 319.746094 L 397.007813 319.871094 L 396.917969 320.011719 L 396.839844 320.167969 L 396.765625 320.339844 L 396.699219 320.53125 L 396.644531 320.734375 L 396.59375 320.957031 L 396.554688 321.199219 L 396.523438 321.453125 L 396.496094 321.726563 L 396.480469 322.015625 L 400.015625 322.015625 Z M 400.015625 321.839844 "/>
<path style=" stroke:none;fill-rule:nonzero;fill:rgb(0%,0%,0%);fill-opacity:1;" d="M 29.886719 29.953125 L 36.65625 33.121094 L 40.894531 33.121094 L 40.894531 34.625 L 36.671875 34.625 L 29.886719 37.792969 L 29.886719 36.191406 L 35.390625 33.839844 L 29.886719 31.503906 Z M 29.886719 29.953125 "/>
</g>
</svg>
