<?xml version="1.0" encoding="UTF-8"?>
<svg xmlns="http://www.w3.org/2000/svg" xmlns:xlink="http://www.w3.org/1999/xlink" width="864pt" height="360pt" viewBox="0 0 864 360" version="1.1">
<defs>
<clipPath id="clip1">
  <path d="M 55.480469 242 L 402.113281 242 L 402.113281 243 L 55.480469 243 Z M 55.480469 242 "/>
</clipPath>
<clipPath id="clip2">
  <path d="M 55.480469 159 L 402.113281 159 L 402.113281 161 L 55.480469 161 Z M 55.480469 159 "/>
</clipPath>
<clipPath id="clip3">
  <path d="M 55.480469 77 L 402.113281 77 L 402.113281 78 L 55.480469 78 Z M 55.480469 77 "/>
</clipPath>
<clipPath id="clip4">
  <path d="M 123 35.367188 L 124 35.367188 L 124 304.519531 L 123 304.519531 Z M 123 35.367188 "/>
</clipPath>
<clipPath id="clip5">
  <path d="M 211 35.367188 L 212 35.367188 L 212 304.519531 L 211 304.519531 Z M 211 35.367188 "/>
</clipPath>
<clipPath id="clip6">
  <path d="M 298 35.367188 L 300 35.367188 L 300 304.519531 L 298 304.519531 Z M 298 35.367188 "/>
</clipPath>
<clipPath id="clip7">
  <path d="M 386 35.367188 L 387 35.367188 L 387 304.519531 L 386 304.519531 Z M 386 35.367188 "/>
</clipPath>
<clipPath id="clip8">
  <path d="M 245 35.367188 L 248 35.367188 L 248 304.519531 L 245 304.519531 Z M 245 35.367188 "/>
</clipPath>
<clipPath id="clip9">
  <path d="M 482 253 L 828.632813 253 L 828.632813 254 L 482 254 Z M 482 253 "/>
</clipPath>
<clipPath id="clip10">
  <path d="M 482 182 L 828.632813 182 L 828.632813 183 L 482 183 Z M 482 182 "/>
</clipPath>
<clipPath id="clip11">
  <path d="M 482 111 L 828.632813 111 L 828.632813 112 L 482 112 Z M 482 111 "/>
</clipPath>
<clipPath id="clip12">
  <path d="M 482 40 L 828.632813 40 L 828.632813 41 L 482 41 Z M 482 40 "/>
</clipPath>
<clipPath id="clip13">
  <path d="M 550 35.367188 L 551 35.367188 L 551 304.519531 L 550 304.519531 Z M 550 35.367188 "/>
</clipPath>
<clipPath id="clip14">
  <path d="M 637 35.367188 L 639 35.367188 L 639 304.519531 L 637 304.519531 Z M 637 35.367188 "/>
</clipPath>
<clipPath id="clip15">
  <path d="M 725 35.367188 L 726 35.367188 L 726 304.519531 L 725 304.519531 Z M 725 35.367188 "/>
</clipPath>
<clipPath id="clip16">
  <path d="M 812 35.367188 L 814 35.367188 L 814 304.519531 L 812 304.519531 Z M 812 35.367188 "/>
</clipPath>
<clipPath id="clip17">
  <path d="M 689 35.367188 L 692 35.367188 L 692 304.519531 L 689 304.519531 Z M 689 35.367188 "/>
</clipPath>
<clipPath id="clip18">
  <path d="M 482 252 L 828.632813 252 L 828.632813 255 L 482 255 Z M 482 252 "/>
</clipPath>
</defs>
<g id="surface124">
<rect x="0" y="0" width="864" height="360" style="fill:rgb(100%,100%,100%);fill-opacity:1;stroke:none;"/>
<rect x="0" y="0" width="864" height="360" style="fill:rgb(100%,100%,100%);fill-opacity:1;stroke:none;"/>
<path style="fill:none;stroke-width:1.066978;stroke-linecap:round;stroke-linejoin:round;stroke:rgb(100%,100%,100%);stroke-opacity:1;stroke-miterlimit:10;" d="M 0 360 L 864 360 L 864 0 L 0 0 Z M 0 360 "/>
<g clip-path="url(#clip1)" clip-rule="nonzero">
<path style="fill:none;stroke-width:0.426791;stroke-linecap:butt;stroke-linejoin:round;stroke:rgb(80%,80%,80%);stroke-opacity:1;stroke-miterlimit:10;" d="M 55.480469 242.6875 L 402.113281 242.6875 "/>
</g>
<g clip-path="url(#clip2)" clip-rule="nonzero">
<path style="fill:none;stroke-width:0.426791;stroke-linecap:butt;stroke-linejoin:round;stroke:rgb(80%,80%,80%);stroke-opacity:1;stroke-miterlimit:10;" d="M 55.480469 160.023438 L 402.113281 160.023438 "/>
</g>
<g clip-path="url(#clip3)" clip-rule="nonzero">
<path style="fill:none;stroke-width:0.426791;stroke-linecap:butt;stroke-linejoin:round;stroke:rgb(80%,80%,80%);stroke-opacity:1;stroke-miterlimit:10;" d="M 55.480469 77.359375 L 402.113281 77.359375 "/>
</g>
<g clip-path="url(#clip4)" clip-rule="nonzero">
<path style="fill:none;stroke-width:0.426791;stroke-linecap:butt;stroke-linejoin:round;stroke:rgb(80%,80%,80%);stroke-opacity:1;stroke-miterlimit:10;" d="M 123.757813 304.519531 L 123.757813 35.367188 "/>
</g>
<g clip-path="url(#clip5)" clip-rule="nonzero">
<path style="fill:none;stroke-width:0.426791;stroke-linecap:butt;stroke-linejoin:round;stroke:rgb(80%,80%,80%);stroke-opacity:1;stroke-miterlimit:10;" d="M 211.289063 304.519531 L 211.289063 35.367188 "/>
</g>
<g clip-path="url(#clip6)" clip-rule="nonzero">
<path style="fill:none;stroke-width:0.426791;stroke-linecap:butt;stroke-linejoin:round;stroke:rgb(80%,80%,80%);stroke-opacity:1;stroke-miterlimit:10;" d="M 298.824219 304.519531 L 298.824219 35.367188 "/>
</g>
<g clip-path="url(#clip7)" clip-rule="nonzero">
<path style="fill:none;stroke-width:0.426791;stroke-linecap:butt;stroke-linejoin:round;stroke:rgb(80%,80%,80%);stroke-opacity:1;stroke-miterlimit:10;" d="M 386.355469 304.519531 L 386.355469 35.367188 "/>
</g>
<path style="fill-rule:nonzero;fill:rgb(79.607843%,70.196078%,74.901961%);fill-opacity:1;stroke-width:0.708661;stroke-linecap:round;stroke-linejoin:round;stroke:rgb(79.607843%,70.196078%,74.901961%);stroke-opacity:1;stroke-miterlimit:10;" d="M 74.792969 292.285156 C 74.792969 297.027344 67.679688 297.027344 67.679688 292.285156 C 67.679688 287.546875 74.792969 287.546875 74.792969 292.285156 "/>
<path style="fill-rule:nonzero;fill:rgb(79.607843%,70.196078%,74.901961%);fill-opacity:1;stroke-width:0.708661;stroke-linecap:round;stroke-linejoin:round;stroke:rgb(79.607843%,70.196078%,74.901961%);stroke-opacity:1;stroke-miterlimit:10;" d="M 109.804688 275.753906 C 109.804688 280.492188 102.695313 280.492188 102.695313 275.753906 C 102.695313 271.011719 109.804688 271.011719 109.804688 275.753906 "/>
<path style="fill-rule:nonzero;fill:rgb(79.607843%,70.196078%,74.901961%);fill-opacity:1;stroke-width:0.708661;stroke-linecap:round;stroke-linejoin:round;stroke:rgb(79.607843%,70.196078%,74.901961%);stroke-opacity:1;stroke-miterlimit:10;" d="M 144.816406 259.21875 C 144.816406 263.960938 137.707031 263.960938 137.707031 259.21875 C 137.707031 254.480469 144.816406 254.480469 144.816406 259.21875 "/>
<path style="fill-rule:nonzero;fill:rgb(79.607843%,70.196078%,74.901961%);fill-opacity:1;stroke-width:0.708661;stroke-linecap:round;stroke-linejoin:round;stroke:rgb(79.607843%,70.196078%,74.901961%);stroke-opacity:1;stroke-miterlimit:10;" d="M 179.832031 242.6875 C 179.832031 247.429688 172.71875 247.429688 172.71875 242.6875 C 172.71875 237.949219 179.832031 237.949219 179.832031 242.6875 "/>
<path style="fill-rule:nonzero;fill:rgb(79.607843%,70.196078%,74.901961%);fill-opacity:1;stroke-width:0.708661;stroke-linecap:round;stroke-linejoin:round;stroke:rgb(79.607843%,70.196078%,74.901961%);stroke-opacity:1;stroke-miterlimit:10;" d="M 214.84375 226.15625 C 214.84375 230.894531 207.734375 230.894531 207.734375 226.15625 C 207.734375 221.414063 214.84375 221.414063 214.84375 226.15625 "/>
<path style="fill-rule:nonzero;fill:rgb(79.607843%,70.196078%,74.901961%);fill-opacity:1;stroke-width:0.708661;stroke-linecap:round;stroke-linejoin:round;stroke:rgb(79.607843%,70.196078%,74.901961%);stroke-opacity:1;stroke-miterlimit:10;" d="M 249.859375 209.621094 C 249.859375 214.363281 242.746094 214.363281 242.746094 209.621094 C 242.746094 204.882813 249.859375 204.882813 249.859375 209.621094 "/>
<path style="fill-rule:nonzero;fill:rgb(79.607843%,70.196078%,74.901961%);fill-opacity:1;stroke-width:0.708661;stroke-linecap:round;stroke-linejoin:round;stroke:rgb(79.607843%,70.196078%,74.901961%);stroke-opacity:1;stroke-miterlimit:10;" d="M 284.871094 193.089844 C 284.871094 197.828125 277.761719 197.828125 277.761719 193.089844 C 277.761719 188.347656 284.871094 188.347656 284.871094 193.089844 "/>
<path style="fill-rule:nonzero;fill:rgb(79.607843%,70.196078%,74.901961%);fill-opacity:1;stroke-width:0.708661;stroke-linecap:round;stroke-linejoin:round;stroke:rgb(79.607843%,70.196078%,74.901961%);stroke-opacity:1;stroke-miterlimit:10;" d="M 319.882813 176.558594 C 319.882813 181.296875 312.773438 181.296875 312.773438 176.558594 C 312.773438 171.816406 319.882813 171.816406 319.882813 176.558594 "/>
<path style="fill-rule:nonzero;fill:rgb(79.607843%,70.196078%,74.901961%);fill-opacity:1;stroke-width:0.708661;stroke-linecap:round;stroke-linejoin:round;stroke:rgb(79.607843%,70.196078%,74.901961%);stroke-opacity:1;stroke-miterlimit:10;" d="M 354.898438 160.023438 C 354.898438 164.765625 347.789063 164.765625 347.789063 160.023438 C 347.789063 155.285156 354.898438 155.285156 354.898438 160.023438 "/>
<path style="fill-rule:nonzero;fill:rgb(79.607843%,70.196078%,74.901961%);fill-opacity:1;stroke-width:0.708661;stroke-linecap:round;stroke-linejoin:round;stroke:rgb(79.607843%,70.196078%,74.901961%);stroke-opacity:1;stroke-miterlimit:10;" d="M 389.910156 143.492188 C 389.910156 148.230469 382.800781 148.230469 382.800781 143.492188 C 382.800781 138.75 389.910156 138.75 389.910156 143.492188 "/>
<path style="fill-rule:nonzero;fill:rgb(100%,78.431373%,34.117647%);fill-opacity:1;stroke-width:0.708661;stroke-linecap:round;stroke-linejoin:round;stroke:rgb(100%,78.431373%,34.117647%);stroke-opacity:1;stroke-miterlimit:10;" d="M 74.792969 275.753906 C 74.792969 280.492188 67.679688 280.492188 67.679688 275.753906 C 67.679688 271.011719 74.792969 271.011719 74.792969 275.753906 "/>
<path style="fill-rule:nonzero;fill:rgb(100%,78.431373%,34.117647%);fill-opacity:1;stroke-width:0.708661;stroke-linecap:round;stroke-linejoin:round;stroke:rgb(100%,78.431373%,34.117647%);stroke-opacity:1;stroke-miterlimit:10;" d="M 109.804688 259.21875 C 109.804688 263.960938 102.695313 263.960938 102.695313 259.21875 C 102.695313 254.480469 109.804688 254.480469 109.804688 259.21875 "/>
<path style="fill-rule:nonzero;fill:rgb(100%,78.431373%,34.117647%);fill-opacity:1;stroke-width:0.708661;stroke-linecap:round;stroke-linejoin:round;stroke:rgb(100%,78.431373%,34.117647%);stroke-opacity:1;stroke-miterlimit:10;" d="M 144.816406 242.6875 C 144.816406 247.429688 137.707031 247.429688 137.707031 242.6875 C 137.707031 237.949219 144.816406 237.949219 144.816406 242.6875 "/>
<path style="fill-rule:nonzero;fill:rgb(100%,78.431373%,34.117647%);fill-opacity:1;stroke-width:0.708661;stroke-linecap:round;stroke-linejoin:round;stroke:rgb(100%,78.431373%,34.117647%);stroke-opacity:1;stroke-miterlimit:10;" d="M 179.832031 226.15625 C 179.832031 230.894531 172.71875 230.894531 172.71875 226.15625 C 172.71875 221.414063 179.832031 221.414063 179.832031 226.15625 "/>
<path style="fill-rule:nonzero;fill:rgb(100%,78.431373%,34.117647%);fill-opacity:1;stroke-width:0.708661;stroke-linecap:round;stroke-linejoin:round;stroke:rgb(100%,78.431373%,34.117647%);stroke-opacity:1;stroke-miterlimit:10;" d="M 214.84375 209.621094 C 214.84375 214.363281 207.734375 214.363281 207.734375 209.621094 C 207.734375 204.882813 214.84375 204.882813 214.84375 209.621094 "/>
<path style="fill-rule:nonzero;fill:rgb(100%,78.431373%,34.117647%);fill-opacity:1;stroke-width:0.708661;stroke-linecap:round;stroke-linejoin:round;stroke:rgb(100%,78.431373%,34.117647%);stroke-opacity:1;stroke-miterlimit:10;" d="M 249.859375 193.089844 C 249.859375 197.828125 242.746094 197.828125 242.746094 193.089844 C 242.746094 188.347656 249.859375 188.347656 249.859375 193.089844 "/>
<path style="fill-rule:nonzero;fill:rgb(100%,78.431373%,34.117647%);fill-opacity:1;stroke-width:0.708661;stroke-linecap:round;stroke-linejoin:round;stroke:rgb(100%,78.431373%,34.117647%);stroke-opacity:1;stroke-miterlimit:10;" d="M 284.871094 156.71875 C 284.871094 161.457031 277.761719 161.457031 277.761719 156.71875 C 277.761719 151.976563 284.871094 151.976563 284.871094 156.71875 "/>
<path style="fill-rule:nonzero;fill:rgb(100%,78.431373%,34.117647%);fill-opacity:1;stroke-width:0.708661;stroke-linecap:round;stroke-linejoin:round;stroke:rgb(100%,78.431373%,34.117647%);stroke-opacity:1;stroke-miterlimit:10;" d="M 319.882813 120.34375 C 319.882813 125.085938 312.773438 125.085938 312.773438 120.34375 C 312.773438 115.605469 319.882813 115.605469 319.882813 120.34375 "/>
<path style="fill-rule:nonzero;fill:rgb(100%,78.431373%,34.117647%);fill-opacity:1;stroke-width:0.708661;stroke-linecap:round;stroke-linejoin:round;stroke:rgb(100%,78.431373%,34.117647%);stroke-opacity:1;stroke-miterlimit:10;" d="M 354.898438 83.972656 C 354.898438 88.714844 347.789063 88.714844 347.789063 83.972656 C 347.789063 79.234375 354.898438 79.234375 354.898438 83.972656 "/>
<path style="fill-rule:nonzero;fill:rgb(100%,78.431373%,34.117647%);fill-opacity:1;stroke-width:0.708661;stroke-linecap:round;stroke-linejoin:round;stroke:rgb(100%,78.431373%,34.117647%);stroke-opacity:1;stroke-miterlimit:10;" d="M 389.910156 47.601563 C 389.910156 52.34375 382.800781 52.34375 382.800781 47.601563 C 382.800781 42.859375 389.910156 42.859375 389.910156 47.601563 "/>
<path style="fill:none;stroke-width:2.133957;stroke-linecap:butt;stroke-linejoin:round;stroke:rgb(79.607843%,70.196078%,74.901961%);stroke-opacity:1;stroke-miterlimit:10;" d="M 71.234375 292.285156 L 106.25 275.753906 L 141.261719 259.21875 L 176.277344 242.6875 L 211.289063 226.15625 L 246.300781 209.621094 L 281.316406 193.089844 L 316.328125 176.558594 L 351.34375 160.023438 L 386.355469 143.492188 "/>
<path style="fill:none;stroke-width:2.133957;stroke-linecap:butt;stroke-linejoin:round;stroke:rgb(100%,78.431373%,34.117647%);stroke-opacity:1;stroke-miterlimit:10;" d="M 71.234375 275.753906 L 106.25 259.21875 L 141.261719 242.6875 L 176.277344 226.15625 L 211.289063 209.621094 L 246.300781 193.089844 L 281.316406 156.71875 L 316.328125 120.34375 L 351.34375 83.972656 L 386.355469 47.601563 "/>
<g clip-path="url(#clip8)" clip-rule="nonzero">
<path style="fill:none;stroke-width:2.347352;stroke-linecap:butt;stroke-linejoin:round;stroke:rgb(66.27451%,66.27451%,66.27451%);stroke-opacity:1;stroke-dasharray:9.389409,9.389409;stroke-miterlimit:10;" d="M 246.300781 304.519531 L 246.300781 35.367188 "/>
</g>
<path style=" stroke:none;fill-rule:nonzero;fill:rgb(0%,0%,0%);fill-opacity:1;" d="M 377.792969 310.25 L 377.617188 311.464844 L 374.910156 311.464844 L 374.910156 321.257813 L 373.425781 321.257813 L 373.425781 311.464844 L 370.640625 311.464844 L 370.640625 310.25 Z M 377.792969 310.25 "/>
<path style=" stroke:none;fill-rule:nonzero;fill:rgb(0%,0%,0%);fill-opacity:1;" d="M 380.609375 312.839844 L 380.609375 321.257813 L 379.167969 321.257813 L 379.167969 312.839844 Z M 379.886719 308.871094 L 379.96875 308.875 L 380.046875 308.882813 L 380.125 308.898438 L 380.195313 308.917969 L 380.265625 308.941406 L 380.328125 308.96875 L 380.453125 309.046875 L 380.507813 309.09375 L 380.613281 309.199219 L 380.65625 309.257813 L 380.699219 309.320313 L 380.734375 309.382813 L 380.765625 309.449219 L 380.789063 309.515625 L 380.808594 309.589844 L 380.820313 309.660156 L 380.828125 309.738281 L 380.832031 309.816406 L 380.828125 309.894531 L 380.820313 309.972656 L 380.808594 310.046875 L 380.792969 310.117188 L 380.769531 310.183594 L 380.738281 310.25 L 380.707031 310.3125 L 380.667969 310.375 L 380.625 310.433594 L 380.574219 310.488281 L 380.523438 310.539063 L 380.464844 310.582031 L 380.40625 310.621094 L 380.34375 310.652344 L 380.277344 310.679688 L 380.207031 310.703125 L 380.132813 310.722656 L 380.054688 310.734375 L 379.972656 310.742188 L 379.886719 310.746094 L 379.804688 310.742188 L 379.726563 310.734375 L 379.652344 310.722656 L 379.578125 310.703125 L 379.507813 310.679688 L 379.441406 310.652344 L 379.375 310.621094 L 379.316406 310.582031 L 379.257813 310.539063 L 379.199219 310.488281 L 379.152344 310.433594 L 379.109375 310.375 L 379.070313 310.3125 L 379.035156 310.25 L 379.007813 310.183594 L 378.984375 310.117188 L 378.96875 310.046875 L 378.953125 309.972656 L 378.945313 309.894531 L 378.945313 309.738281 L 378.953125 309.660156 L 378.96875 309.589844 L 378.984375 309.515625 L 379.007813 309.449219 L 379.035156 309.382813 L 379.070313 309.320313 L 379.109375 309.257813 L 379.152344 309.199219 L 379.199219 309.144531 L 379.257813 309.09375 L 379.316406 309.046875 L 379.375 309.007813 L 379.441406 308.96875 L 379.507813 308.941406 L 379.578125 308.917969 L 379.652344 308.898438 L 379.726563 308.882813 L 379.804688 308.875 Z M 379.886719 308.871094 "/>
<path style=" stroke:none;fill-rule:nonzero;fill:rgb(0%,0%,0%);fill-opacity:1;" d="M 390.976563 312.632813 L 391.15625 312.640625 L 391.324219 312.660156 L 391.488281 312.695313 L 391.648438 312.742188 L 391.796875 312.804688 L 391.9375 312.878906 L 392.074219 312.96875 L 392.199219 313.074219 L 392.320313 313.191406 L 392.433594 313.320313 L 392.535156 313.460938 L 392.628906 313.609375 L 392.710938 313.765625 L 392.78125 313.933594 L 392.839844 314.109375 L 392.890625 314.292969 L 392.925781 314.488281 L 392.953125 314.691406 L 392.96875 314.90625 L 392.976563 315.128906 L 392.976563 321.257813 L 391.550781 321.257813 L 391.550781 315.289063 L 391.542969 314.996094 L 391.511719 314.734375 L 391.460938 314.503906 L 391.394531 314.304688 L 391.304688 314.136719 L 391.195313 314 L 391.066406 313.890625 L 390.917969 313.8125 L 390.75 313.769531 L 390.558594 313.753906 L 390.371094 313.765625 L 390.183594 313.8125 L 390 313.886719 L 389.816406 313.988281 L 389.640625 314.121094 L 389.464844 314.28125 L 389.292969 314.472656 L 389.125 314.695313 L 388.960938 314.945313 L 388.800781 315.226563 L 388.800781 321.257813 L 387.375 321.257813 L 387.375 315.289063 L 387.367188 314.996094 L 387.335938 314.734375 L 387.285156 314.503906 L 387.21875 314.304688 L 387.128906 314.136719 L 387.019531 314 L 386.890625 313.890625 L 386.742188 313.8125 L 386.574219 313.769531 L 386.382813 313.753906 L 386.191406 313.765625 L 386 313.8125 L 385.816406 313.886719 L 385.632813 313.988281 L 385.457031 314.121094 L 385.28125 314.28125 L 385.113281 314.472656 L 384.945313 314.695313 L 384.78125 314.945313 L 384.625 315.226563 L 384.625 321.257813 L 383.199219 321.257813 L 383.199219 312.839844 L 384.449219 312.839844 L 384.558594 314.074219 L 384.75 313.800781 L 384.945313 313.554688 L 385.152344 313.339844 L 385.363281 313.152344 L 385.585938 312.992188 L 385.8125 312.863281 L 386.046875 312.761719 L 386.289063 312.691406 L 386.542969 312.648438 L 386.800781 312.632813 L 386.9375 312.636719 L 387.066406 312.648438 L 387.195313 312.667969 L 387.316406 312.695313 L 387.4375 312.734375 L 387.550781 312.777344 L 387.660156 312.828125 L 387.769531 312.886719 L 387.871094 312.957031 L 387.96875 313.03125 L 388.0625 313.117188 L 388.148438 313.207031 L 388.230469 313.304688 L 388.308594 313.40625 L 388.378906 313.515625 L 388.445313 313.632813 L 388.507813 313.757813 L 388.5625 313.886719 L 388.613281 314.023438 L 388.65625 314.167969 L 388.855469 313.875 L 389.0625 313.617188 L 389.273438 313.386719 L 389.496094 313.1875 L 389.722656 313.015625 L 389.960938 312.878906 L 390.203125 312.769531 L 390.453125 312.695313 L 390.710938 312.648438 Z M 390.976563 312.632813 "/>
<path style=" stroke:none;fill-rule:nonzero;fill:rgb(0%,0%,0%);fill-opacity:1;" d="M 401.40625 316.792969 L 401.40625 317 L 401.398438 317.148438 L 401.398438 317.226563 L 401.390625 317.300781 L 401.386719 317.382813 L 401.382813 317.460938 L 401.375 317.542969 L 396.480469 317.542969 L 396.496094 317.832031 L 396.523438 318.101563 L 396.558594 318.355469 L 396.605469 318.589844 L 396.660156 318.8125 L 396.722656 319.015625 L 396.796875 319.207031 L 396.878906 319.378906 L 396.972656 319.535156 L 397.070313 319.671875 L 397.179688 319.792969 L 397.296875 319.902344 L 397.421875 320 L 397.554688 320.082031 L 397.695313 320.152344 L 397.84375 320.210938 L 398 320.253906 L 398.164063 320.285156 L 398.332031 320.304688 L 398.511719 320.3125 L 398.625 320.3125 L 398.738281 320.304688 L 398.847656 320.296875 L 398.953125 320.285156 L 399.054688 320.269531 L 399.15625 320.25 L 399.253906 320.226563 L 399.351563 320.199219 L 399.445313 320.171875 L 399.535156 320.136719 L 399.722656 320.058594 L 399.816406 320.011719 L 399.914063 319.960938 L 400.007813 319.90625 L 400.203125 319.78125 L 400.300781 319.710938 L 400.496094 319.5625 L 401.136719 320.410156 L 400.894531 320.609375 L 400.648438 320.789063 L 400.398438 320.945313 L 400.136719 321.085938 L 399.871094 321.199219 L 399.601563 321.296875 L 399.320313 321.371094 L 399.035156 321.421875 L 398.746094 321.453125 L 398.449219 321.464844 L 398.125 321.453125 L 397.816406 321.417969 L 397.527344 321.363281 L 397.246094 321.28125 L 396.984375 321.179688 L 396.734375 321.054688 L 396.5 320.90625 L 396.28125 320.738281 L 396.078125 320.542969 L 395.886719 320.328125 L 395.71875 320.089844 L 395.566406 319.832031 L 395.429688 319.554688 L 395.316406 319.261719 L 395.214844 318.949219 L 395.136719 318.617188 L 395.074219 318.269531 L 395.027344 317.902344 L 395 317.515625 L 394.992188 317.113281 L 395 316.707031 L 395.027344 316.320313 L 395.070313 315.953125 L 395.128906 315.601563 L 395.207031 315.265625 L 395.304688 314.945313 L 395.414063 314.644531 L 395.546875 314.363281 L 395.691406 314.097656 L 395.855469 313.847656 L 396.035156 313.617188 L 396.230469 313.410156 L 396.433594 313.226563 L 396.65625 313.070313 L 396.886719 312.9375 L 397.136719 312.828125 L 397.394531 312.742188 L 397.667969 312.679688 L 397.957031 312.644531 L 398.257813 312.632813 L 398.554688 312.644531 L 398.835938 312.675781 L 399.105469 312.730469 L 399.359375 312.808594 L 399.601563 312.90625 L 399.828125 313.023438 L 400.039063 313.164063 L 400.238281 313.328125 L 400.421875 313.515625 L 400.59375 313.71875 L 400.746094 313.945313 L 400.886719 314.1875 L 401.007813 314.449219 L 401.113281 314.726563 L 401.203125 315.023438 L 401.277344 315.339844 L 401.335938 315.675781 L 401.375 316.03125 L 401.398438 316.402344 Z M 400.015625 316.359375 L 400 315.859375 L 399.945313 315.410156 L 399.859375 315.015625 L 399.738281 314.671875 L 399.582031 314.378906 L 399.386719 314.144531 L 399.160156 313.957031 L 398.898438 313.828125 L 398.601563 313.746094 L 398.273438 313.71875 L 398.117188 313.726563 L 397.964844 313.746094 L 397.824219 313.78125 L 397.6875 313.828125 L 397.554688 313.886719 L 397.433594 313.960938 L 397.316406 314.050781 L 397.207031 314.152344 L 397.105469 314.265625 L 397.007813 314.394531 L 396.917969 314.53125 L 396.839844 314.6875 L 396.765625 314.859375 L 396.699219 315.050781 L 396.644531 315.257813 L 396.59375 315.480469 L 396.554688 315.71875 L 396.523438 315.976563 L 396.496094 316.246094 L 396.480469 316.535156 L 400.015625 316.535156 Z M 400.015625 316.359375 "/>
<path style=" stroke:none;fill-rule:nonzero;fill:rgb(0%,0%,0%);fill-opacity:1;" d="M 35.367188 35.429688 L 42.136719 38.597656 L 46.375 38.597656 L 46.375 40.101563 L 42.152344 40.101563 L 35.367188 43.269531 L 35.367188 41.671875 L 40.871094 39.320313 L 35.367188 36.984375 Z M 35.367188 35.429688 "/>
<g clip-path="url(#clip9)" clip-rule="nonzero">
<path style="fill:none;stroke-width:0.426791;stroke-linecap:butt;stroke-linejoin:round;stroke:rgb(80%,80%,80%);stroke-opacity:1;stroke-miterlimit:10;" d="M 482 253.265625 L 828.632813 253.265625 "/>
</g>
<g clip-path="url(#clip10)" clip-rule="nonzero">
<path style="fill:none;stroke-width:0.426791;stroke-linecap:butt;stroke-linejoin:round;stroke:rgb(80%,80%,80%);stroke-opacity:1;stroke-miterlimit:10;" d="M 482 182.347656 L 828.632813 182.347656 "/>
</g>
<g clip-path="url(#clip11)" clip-rule="nonzero">
<path style="fill:none;stroke-width:0.426791;stroke-linecap:butt;stroke-linejoin:round;stroke:rgb(80%,80%,80%);stroke-opacity:1;stroke-miterlimit:10;" d="M 482 111.429688 L 828.632813 111.429688 "/>
</g>
<g clip-path="url(#clip12)" clip-rule="nonzero">
<path style="fill:none;stroke-width:0.426791;stroke-linecap:butt;stroke-linejoin:round;stroke:rgb(80%,80%,80%);stroke-opacity:1;stroke-miterlimit:10;" d="M 482 40.507813 L 828.632813 40.507813 "/>
</g>
<g clip-path="url(#clip13)" clip-rule="nonzero">
<path style="fill:none;stroke-width:0.426791;stroke-linecap:butt;stroke-linejoin:round;stroke:rgb(80%,80%,80%);stroke-opacity:1;stroke-miterlimit:10;" d="M 550.277344 304.519531 L 550.277344 35.367188 "/>
</g>
<g clip-path="url(#clip14)" clip-rule="nonzero">
<path style="fill:none;stroke-width:0.426791;stroke-linecap:butt;stroke-linejoin:round;stroke:rgb(80%,80%,80%);stroke-opacity:1;stroke-miterlimit:10;" d="M 637.808594 304.519531 L 637.808594 35.367188 "/>
</g>
<g clip-path="url(#clip15)" clip-rule="nonzero">
<path style="fill:none;stroke-width:0.426791;stroke-linecap:butt;stroke-linejoin:round;stroke:rgb(80%,80%,80%);stroke-opacity:1;stroke-miterlimit:10;" d="M 725.34375 304.519531 L 725.34375 35.367188 "/>
</g>
<g clip-path="url(#clip16)" clip-rule="nonzero">
<path style="fill:none;stroke-width:0.426791;stroke-linecap:butt;stroke-linejoin:round;stroke:rgb(80%,80%,80%);stroke-opacity:1;stroke-miterlimit:10;" d="M 812.875 304.519531 L 812.875 35.367188 "/>
</g>
<g clip-path="url(#clip17)" clip-rule="nonzero">
<path style="fill:none;stroke-width:2.133957;stroke-linecap:butt;stroke-linejoin:round;stroke:rgb(66.27451%,66.27451%,66.27451%);stroke-opacity:1;stroke-dasharray:8.535827,8.535827;stroke-miterlimit:10;" d="M 690.328125 304.519531 L 690.328125 35.367188 "/>
</g>
<g clip-path="url(#clip18)" clip-rule="nonzero">
<path style="fill:none;stroke-width:2.133957;stroke-linecap:butt;stroke-linejoin:round;stroke:rgb(66.27451%,66.27451%,66.27451%);stroke-opacity:1;stroke-miterlimit:10;" d="M 482 253.265625 L 828.632813 253.265625 "/>
</g>
<path style="fill:none;stroke-width:1.066978;stroke-linecap:butt;stroke-linejoin:round;stroke:rgb(6.666667%,61.568627%,64.313725%);stroke-opacity:1;stroke-miterlimit:10;" d="M 497.757813 292.285156 L 497.757813 221.367188 "/>
<path style="fill:none;stroke-width:1.066978;stroke-linecap:butt;stroke-linejoin:round;stroke:rgb(6.666667%,61.568627%,64.313725%);stroke-opacity:1;stroke-miterlimit:10;" d="M 532.769531 287.792969 L 532.769531 216.875 "/>
<path style="fill:none;stroke-width:1.066978;stroke-linecap:butt;stroke-linejoin:round;stroke:rgb(6.666667%,61.568627%,64.313725%);stroke-opacity:1;stroke-miterlimit:10;" d="M 567.78125 289.285156 L 567.78125 218.367188 "/>
<path style="fill:none;stroke-width:1.066978;stroke-linecap:butt;stroke-linejoin:round;stroke:rgb(6.666667%,61.568627%,64.313725%);stroke-opacity:1;stroke-miterlimit:10;" d="M 602.796875 282.433594 L 602.796875 211.515625 "/>
<path style="fill:none;stroke-width:1.066978;stroke-linecap:butt;stroke-linejoin:round;stroke:rgb(6.666667%,61.568627%,64.313725%);stroke-opacity:1;stroke-miterlimit:10;" d="M 637.808594 287.894531 L 637.808594 216.976563 "/>
<path style="fill:none;stroke-width:1.066978;stroke-linecap:butt;stroke-linejoin:round;stroke:rgb(6.666667%,61.568627%,64.313725%);stroke-opacity:1;stroke-miterlimit:10;" d="M 672.824219 253.265625 L 672.824219 253.265625 "/>
<path style="fill:none;stroke-width:1.066978;stroke-linecap:butt;stroke-linejoin:round;stroke:rgb(6.666667%,61.568627%,64.313725%);stroke-opacity:1;stroke-miterlimit:10;" d="M 707.835938 246.171875 L 707.835938 175.253906 "/>
<path style="fill:none;stroke-width:1.066978;stroke-linecap:butt;stroke-linejoin:round;stroke:rgb(6.666667%,61.568627%,64.313725%);stroke-opacity:1;stroke-miterlimit:10;" d="M 742.851563 203.621094 L 742.851563 132.703125 "/>
<path style="fill:none;stroke-width:1.066978;stroke-linecap:butt;stroke-linejoin:round;stroke:rgb(6.666667%,61.568627%,64.313725%);stroke-opacity:1;stroke-miterlimit:10;" d="M 777.863281 161.070313 L 777.863281 90.152344 "/>
<path style="fill:none;stroke-width:1.066978;stroke-linecap:butt;stroke-linejoin:round;stroke:rgb(6.666667%,61.568627%,64.313725%);stroke-opacity:1;stroke-miterlimit:10;" d="M 812.875 118.519531 L 812.875 47.601563 "/>
<path style="fill-rule:nonzero;fill:rgb(6.666667%,61.568627%,64.313725%);fill-opacity:0.298039;stroke-width:0.708661;stroke-linecap:round;stroke-linejoin:round;stroke:rgb(6.666667%,61.568627%,64.313725%);stroke-opacity:1;stroke-miterlimit:10;" d="M 501.3125 256.828125 C 501.3125 261.566406 494.203125 261.566406 494.203125 256.828125 C 494.203125 252.085938 501.3125 252.085938 501.3125 256.828125 "/>
<path style="fill-rule:nonzero;fill:rgb(6.666667%,61.568627%,64.313725%);fill-opacity:0.298039;stroke-width:0.708661;stroke-linecap:round;stroke-linejoin:round;stroke:rgb(6.666667%,61.568627%,64.313725%);stroke-opacity:1;stroke-miterlimit:10;" d="M 536.324219 252.332031 C 536.324219 257.074219 529.214844 257.074219 529.214844 252.332031 C 529.214844 247.59375 536.324219 247.59375 536.324219 252.332031 "/>
<path style="fill-rule:nonzero;fill:rgb(6.666667%,61.568627%,64.313725%);fill-opacity:0.298039;stroke-width:0.708661;stroke-linecap:round;stroke-linejoin:round;stroke:rgb(6.666667%,61.568627%,64.313725%);stroke-opacity:1;stroke-miterlimit:10;" d="M 571.339844 253.824219 C 571.339844 258.566406 564.226563 258.566406 564.226563 253.824219 C 564.226563 249.085938 571.339844 249.085938 571.339844 253.824219 "/>
<path style="fill-rule:nonzero;fill:rgb(6.666667%,61.568627%,64.313725%);fill-opacity:0.298039;stroke-width:0.708661;stroke-linecap:round;stroke-linejoin:round;stroke:rgb(6.666667%,61.568627%,64.313725%);stroke-opacity:1;stroke-miterlimit:10;" d="M 606.351563 246.976563 C 606.351563 251.714844 599.242188 251.714844 599.242188 246.976563 C 599.242188 242.234375 606.351563 242.234375 606.351563 246.976563 "/>
<path style="fill-rule:nonzero;fill:rgb(6.666667%,61.568627%,64.313725%);fill-opacity:0.298039;stroke-width:0.708661;stroke-linecap:round;stroke-linejoin:round;stroke:rgb(6.666667%,61.568627%,64.313725%);stroke-opacity:1;stroke-miterlimit:10;" d="M 641.363281 252.4375 C 641.363281 257.175781 634.253906 257.175781 634.253906 252.4375 C 634.253906 247.695313 641.363281 247.695313 641.363281 252.4375 "/>
<path style="fill-rule:nonzero;fill:rgb(6.666667%,61.568627%,64.313725%);fill-opacity:0.298039;stroke-width:0.708661;stroke-linecap:round;stroke-linejoin:round;stroke:rgb(6.666667%,61.568627%,64.313725%);stroke-opacity:1;stroke-miterlimit:10;" d="M 676.378906 253.265625 C 676.378906 258.003906 669.269531 258.003906 669.269531 253.265625 C 669.269531 248.523438 676.378906 248.523438 676.378906 253.265625 "/>
<path style="fill-rule:nonzero;fill:rgb(6.666667%,61.568627%,64.313725%);fill-opacity:0.298039;stroke-width:0.708661;stroke-linecap:round;stroke-linejoin:round;stroke:rgb(6.666667%,61.568627%,64.313725%);stroke-opacity:1;stroke-miterlimit:10;" d="M 711.390625 210.714844 C 711.390625 215.453125 704.28125 215.453125 704.28125 210.714844 C 704.28125 205.972656 711.390625 205.972656 711.390625 210.714844 "/>
<path style="fill-rule:nonzero;fill:rgb(6.666667%,61.568627%,64.313725%);fill-opacity:0.298039;stroke-width:0.708661;stroke-linecap:round;stroke-linejoin:round;stroke:rgb(6.666667%,61.568627%,64.313725%);stroke-opacity:1;stroke-miterlimit:10;" d="M 746.40625 168.164063 C 746.40625 172.902344 739.292969 172.902344 739.292969 168.164063 C 739.292969 163.421875 746.40625 163.421875 746.40625 168.164063 "/>
<path style="fill-rule:nonzero;fill:rgb(6.666667%,61.568627%,64.313725%);fill-opacity:0.298039;stroke-width:0.708661;stroke-linecap:round;stroke-linejoin:round;stroke:rgb(6.666667%,61.568627%,64.313725%);stroke-opacity:1;stroke-miterlimit:10;" d="M 781.417969 125.613281 C 781.417969 130.351563 774.308594 130.351563 774.308594 125.613281 C 774.308594 120.871094 781.417969 120.871094 781.417969 125.613281 "/>
<path style="fill-rule:nonzero;fill:rgb(6.666667%,61.568627%,64.313725%);fill-opacity:0.298039;stroke-width:0.708661;stroke-linecap:round;stroke-linejoin:round;stroke:rgb(6.666667%,61.568627%,64.313725%);stroke-opacity:1;stroke-miterlimit:10;" d="M 816.433594 83.0625 C 816.433594 87.800781 809.320313 87.800781 809.320313 83.0625 C 809.320313 78.320313 816.433594 78.320313 816.433594 83.0625 "/>
<path style=" stroke:none;fill-rule:nonzero;fill:rgb(0%,0%,0%);fill-opacity:1;" d="M 804.3125 310.25 L 804.136719 311.464844 L 801.433594 311.464844 L 801.433594 321.257813 L 799.945313 321.257813 L 799.945313 311.464844 L 797.160156 311.464844 L 797.160156 310.25 Z M 804.3125 310.25 "/>
<path style=" stroke:none;fill-rule:nonzero;fill:rgb(0%,0%,0%);fill-opacity:1;" d="M 807.128906 312.839844 L 807.128906 321.257813 L 805.6875 321.257813 L 805.6875 312.839844 Z M 806.410156 308.871094 L 806.488281 308.875 L 806.570313 308.882813 L 806.644531 308.898438 L 806.714844 308.917969 L 806.785156 308.941406 L 806.851563 308.96875 L 806.914063 309.007813 L 806.972656 309.046875 L 807.027344 309.09375 L 807.082031 309.144531 L 807.132813 309.199219 L 807.179688 309.257813 L 807.21875 309.320313 L 807.253906 309.382813 L 807.285156 309.449219 L 807.308594 309.515625 L 807.328125 309.589844 L 807.339844 309.660156 L 807.351563 309.738281 L 807.351563 309.894531 L 807.34375 309.972656 L 807.328125 310.046875 L 807.3125 310.117188 L 807.289063 310.183594 L 807.261719 310.25 L 807.226563 310.3125 L 807.1875 310.375 L 807.144531 310.433594 L 807.097656 310.488281 L 807.042969 310.539063 L 806.988281 310.582031 L 806.925781 310.621094 L 806.863281 310.652344 L 806.796875 310.679688 L 806.726563 310.703125 L 806.652344 310.722656 L 806.574219 310.734375 L 806.492188 310.742188 L 806.410156 310.746094 L 806.328125 310.742188 L 806.246094 310.734375 L 806.171875 310.722656 L 806.097656 310.703125 L 806.027344 310.679688 L 805.960938 310.652344 L 805.898438 310.621094 L 805.835938 310.582031 L 805.777344 310.539063 L 805.71875 310.488281 L 805.671875 310.433594 L 805.628906 310.375 L 805.589844 310.3125 L 805.558594 310.25 L 805.527344 310.183594 L 805.503906 310.117188 L 805.488281 310.046875 L 805.476563 309.972656 L 805.46875 309.894531 L 805.464844 309.816406 L 805.46875 309.738281 L 805.476563 309.660156 L 805.488281 309.589844 L 805.503906 309.515625 L 805.527344 309.449219 L 805.558594 309.382813 L 805.589844 309.320313 L 805.628906 309.257813 L 805.671875 309.199219 L 805.71875 309.144531 L 805.777344 309.09375 L 805.835938 309.046875 L 805.960938 308.96875 L 806.027344 308.941406 L 806.097656 308.917969 L 806.171875 308.898438 L 806.246094 308.882813 L 806.328125 308.875 Z M 806.410156 308.871094 "/>
<path style=" stroke:none;fill-rule:nonzero;fill:rgb(0%,0%,0%);fill-opacity:1;" d="M 817.496094 312.632813 L 817.675781 312.640625 L 817.847656 312.660156 L 818.011719 312.695313 L 818.167969 312.742188 L 818.316406 312.804688 L 818.457031 312.878906 L 818.59375 312.96875 L 818.71875 313.074219 L 818.839844 313.191406 L 818.953125 313.320313 L 819.054688 313.460938 L 819.148438 313.609375 L 819.230469 313.765625 L 819.300781 313.933594 L 819.359375 314.109375 L 819.410156 314.292969 L 819.449219 314.488281 L 819.476563 314.691406 L 819.492188 314.90625 L 819.496094 315.128906 L 819.496094 321.257813 L 818.074219 321.257813 L 818.074219 315.289063 L 818.0625 314.996094 L 818.03125 314.734375 L 817.984375 314.503906 L 817.914063 314.304688 L 817.824219 314.136719 L 817.714844 314 L 817.585938 313.890625 L 817.4375 313.8125 L 817.269531 313.769531 L 817.082031 313.753906 L 816.890625 313.765625 L 816.703125 313.8125 L 816.519531 313.886719 L 816.339844 313.988281 L 816.160156 314.121094 L 815.984375 314.28125 L 815.816406 314.472656 L 815.648438 314.695313 L 815.480469 314.945313 L 815.320313 315.226563 L 815.320313 321.257813 L 813.898438 321.257813 L 813.898438 315.289063 L 813.886719 314.996094 L 813.855469 314.734375 L 813.808594 314.503906 L 813.738281 314.304688 L 813.648438 314.136719 L 813.539063 314 L 813.410156 313.890625 L 813.261719 313.8125 L 813.09375 313.769531 L 812.90625 313.753906 L 812.710938 313.765625 L 812.523438 313.8125 L 812.335938 313.886719 L 812.15625 313.988281 L 811.976563 314.121094 L 811.800781 314.28125 L 811.632813 314.472656 L 811.464844 314.695313 L 811.304688 314.945313 L 811.144531 315.226563 L 811.144531 321.257813 L 809.71875 321.257813 L 809.71875 312.839844 L 810.96875 312.839844 L 811.082031 314.074219 L 811.269531 313.800781 L 811.46875 313.554688 L 811.671875 313.339844 L 811.882813 313.152344 L 812.105469 312.992188 L 812.332031 312.863281 L 812.566406 312.761719 L 812.8125 312.691406 L 813.0625 312.648438 L 813.320313 312.632813 L 813.457031 312.636719 L 813.585938 312.648438 L 813.714844 312.667969 L 813.835938 312.695313 L 813.957031 312.734375 L 814.070313 312.777344 L 814.183594 312.828125 L 814.289063 312.886719 L 814.390625 312.957031 L 814.488281 313.03125 L 814.582031 313.117188 L 814.667969 313.207031 L 814.753906 313.304688 L 814.828125 313.40625 L 814.902344 313.515625 L 814.964844 313.632813 L 815.027344 313.757813 L 815.082031 313.886719 L 815.132813 314.023438 L 815.175781 314.167969 L 815.375 313.875 L 815.582031 313.617188 L 815.796875 313.386719 L 816.015625 313.1875 L 816.246094 313.015625 L 816.480469 312.878906 L 816.722656 312.769531 L 816.972656 312.695313 L 817.230469 312.648438 Z M 817.496094 312.632813 "/>
<path style=" stroke:none;fill-rule:nonzero;fill:rgb(0%,0%,0%);fill-opacity:1;" d="M 827.929688 316.792969 L 827.929688 316.859375 L 827.925781 316.929688 L 827.925781 317 L 827.921875 317.074219 L 827.921875 317.148438 L 827.917969 317.226563 L 827.914063 317.300781 L 827.90625 317.382813 L 827.902344 317.460938 L 827.898438 317.542969 L 823 317.542969 L 823.019531 317.832031 L 823.042969 318.101563 L 823.082031 318.355469 L 823.125 318.589844 L 823.179688 318.8125 L 823.246094 319.015625 L 823.316406 319.207031 L 823.398438 319.378906 L 823.492188 319.535156 L 823.59375 319.671875 L 823.703125 319.792969 L 823.820313 319.902344 L 823.945313 320 L 824.078125 320.082031 L 824.214844 320.152344 L 824.363281 320.210938 L 824.519531 320.253906 L 824.683594 320.285156 L 824.855469 320.304688 L 825.03125 320.3125 L 825.148438 320.3125 L 825.367188 320.296875 L 825.472656 320.285156 L 825.578125 320.269531 L 825.679688 320.25 L 825.777344 320.226563 L 825.964844 320.171875 L 826.054688 320.136719 L 826.242188 320.058594 L 826.339844 320.011719 L 826.433594 319.960938 L 826.527344 319.90625 L 826.722656 319.78125 L 826.820313 319.710938 L 827.015625 319.5625 L 827.65625 320.410156 L 827.417969 320.609375 L 827.171875 320.789063 L 826.917969 320.945313 L 826.660156 321.085938 L 826.394531 321.199219 L 826.121094 321.296875 L 825.84375 321.371094 L 825.558594 321.421875 L 825.265625 321.453125 L 824.96875 321.464844 L 824.644531 321.453125 L 824.339844 321.417969 L 824.046875 321.363281 L 823.769531 321.28125 L 823.503906 321.179688 L 823.257813 321.054688 L 823.023438 320.90625 L 822.804688 320.738281 L 822.597656 320.542969 L 822.410156 320.328125 L 822.238281 320.089844 L 822.085938 319.832031 L 821.953125 319.554688 L 821.835938 319.261719 L 821.738281 318.949219 L 821.65625 318.617188 L 821.59375 318.269531 L 821.546875 317.902344 L 821.523438 317.515625 L 821.511719 317.113281 L 821.519531 316.707031 L 821.546875 316.320313 L 821.589844 315.953125 L 821.652344 315.601563 L 821.730469 315.265625 L 821.824219 314.945313 L 821.9375 314.644531 L 822.066406 314.363281 L 822.210938 314.097656 L 822.375 313.847656 L 822.554688 313.617188 L 822.75 313.410156 L 822.957031 313.226563 L 823.175781 313.070313 L 823.410156 312.9375 L 823.65625 312.828125 L 823.914063 312.742188 L 824.1875 312.679688 L 824.476563 312.644531 L 824.777344 312.632813 L 825.074219 312.644531 L 825.355469 312.675781 L 825.625 312.730469 L 825.878906 312.808594 L 826.121094 312.90625 L 826.347656 313.023438 L 826.558594 313.164063 L 826.757813 313.328125 L 826.941406 313.515625 L 827.113281 313.71875 L 827.269531 313.945313 L 827.40625 314.1875 L 827.527344 314.449219 L 827.636719 314.726563 L 827.726563 315.023438 L 827.796875 315.339844 L 827.855469 315.675781 L 827.894531 316.03125 L 827.921875 316.402344 Z M 826.535156 316.359375 L 826.519531 315.859375 L 826.46875 315.410156 L 826.378906 315.015625 L 826.257813 314.671875 L 826.101563 314.378906 L 825.910156 314.144531 L 825.683594 313.957031 L 825.421875 313.828125 L 825.125 313.746094 L 824.792969 313.71875 L 824.636719 313.726563 L 824.484375 313.746094 L 824.34375 313.78125 L 824.207031 313.828125 L 824.078125 313.886719 L 823.953125 313.960938 L 823.835938 314.050781 L 823.726563 314.152344 L 823.625 314.265625 L 823.527344 314.394531 L 823.441406 314.53125 L 823.359375 314.6875 L 823.285156 314.859375 L 823.222656 315.050781 L 823.164063 315.257813 L 823.117188 315.480469 L 823.074219 315.71875 L 823.042969 315.976563 L 823.015625 316.246094 L 823 316.535156 L 826.535156 316.535156 Z M 826.535156 316.359375 "/>
<path style=" stroke:none;fill-rule:nonzero;fill:rgb(0%,0%,0%);fill-opacity:1;" d="M 461.886719 92.535156 L 463.039063 92.710938 L 463.039063 96.519531 L 466.671875 96.519531 L 466.671875 93.207031 L 467.824219 93.207031 L 467.824219 96.519531 L 471.726563 96.519531 L 471.726563 92.488281 L 472.894531 92.488281 L 472.894531 98.007813 L 461.886719 98.007813 Z M 461.886719 92.535156 "/>
<path style=" stroke:none;fill-rule:nonzero;fill:rgb(0%,0%,0%);fill-opacity:1;" d="M 464.273438 88.390625 L 464.28125 88.101563 L 464.308594 87.820313 L 464.359375 87.546875 L 464.425781 87.277344 L 464.511719 87.015625 L 464.617188 86.757813 L 464.742188 86.511719 L 464.886719 86.265625 L 465.050781 86.03125 L 465.230469 85.800781 L 466.078125 86.40625 L 465.945313 86.609375 L 465.882813 86.707031 L 465.828125 86.808594 L 465.773438 86.902344 L 465.722656 87 L 465.671875 87.09375 L 465.628906 87.1875 L 465.550781 87.367188 L 465.488281 87.546875 L 465.460938 87.640625 L 465.4375 87.734375 L 465.417969 87.828125 L 465.402344 87.921875 L 465.390625 88.019531 L 465.382813 88.113281 L 465.378906 88.210938 L 465.375 88.3125 L 465.378906 88.441406 L 465.390625 88.5625 L 465.40625 88.679688 L 465.425781 88.792969 L 465.457031 88.898438 L 465.492188 89 L 465.53125 89.097656 L 465.582031 89.1875 L 465.636719 89.273438 L 465.695313 89.351563 L 465.757813 89.421875 L 465.828125 89.484375 L 465.898438 89.539063 L 465.976563 89.585938 L 466.058594 89.628906 L 466.148438 89.660156 L 466.238281 89.6875 L 466.335938 89.703125 L 466.4375 89.714844 L 466.542969 89.71875 L 466.648438 89.714844 L 466.746094 89.707031 L 466.839844 89.6875 L 466.929688 89.664063 L 467.015625 89.632813 L 467.097656 89.59375 L 467.171875 89.546875 L 467.246094 89.492188 L 467.3125 89.433594 L 467.375 89.367188 L 467.4375 89.289063 L 467.5 89.195313 L 467.558594 89.089844 L 467.621094 88.96875 L 467.683594 88.839844 L 467.746094 88.695313 L 467.808594 88.539063 L 467.871094 88.367188 L 467.9375 88.1875 L 468 87.992188 L 468.082031 87.746094 L 468.167969 87.511719 L 468.253906 87.292969 L 468.347656 87.089844 L 468.445313 86.898438 L 468.542969 86.722656 L 468.644531 86.558594 L 468.753906 86.410156 L 468.863281 86.273438 L 468.976563 86.152344 L 469.09375 86.042969 L 469.222656 85.945313 L 469.359375 85.859375 L 469.503906 85.78125 L 469.660156 85.71875 L 469.824219 85.667969 L 469.992188 85.628906 L 470.175781 85.597656 L 470.363281 85.582031 L 470.558594 85.574219 L 470.792969 85.585938 L 471.015625 85.609375 L 471.226563 85.652344 L 471.429688 85.714844 L 471.621094 85.792969 L 471.800781 85.886719 L 471.972656 86 L 472.136719 86.128906 L 472.289063 86.273438 L 472.433594 86.4375 L 472.558594 86.617188 L 472.675781 86.800781 L 472.773438 86.996094 L 472.863281 87.199219 L 472.9375 87.410156 L 472.996094 87.632813 L 473.042969 87.859375 L 473.078125 88.097656 L 473.097656 88.34375 L 473.105469 88.597656 L 473.09375 88.9375 L 473.058594 89.261719 L 473 89.578125 L 472.921875 89.882813 L 472.820313 90.179688 L 472.695313 90.464844 L 472.546875 90.738281 L 472.375 91 L 472.183594 91.253906 L 471.96875 91.496094 L 471.167969 90.757813 L 471.324219 90.558594 L 471.460938 90.351563 L 471.585938 90.144531 L 471.691406 89.933594 L 471.78125 89.722656 L 471.851563 89.507813 L 471.910156 89.292969 L 471.953125 89.074219 L 471.976563 88.855469 L 471.984375 88.632813 L 471.980469 88.492188 L 471.96875 88.359375 L 471.953125 88.234375 L 471.925781 88.113281 L 471.894531 87.996094 L 471.855469 87.882813 L 471.8125 87.777344 L 471.757813 87.679688 L 471.699219 87.585938 L 471.632813 87.496094 L 471.558594 87.414063 L 471.480469 87.339844 L 471.394531 87.273438 L 471.308594 87.21875 L 471.210938 87.171875 L 471.113281 87.132813 L 471.003906 87.101563 L 470.894531 87.082031 L 470.777344 87.066406 L 470.65625 87.0625 L 470.566406 87.066406 L 470.484375 87.070313 L 470.402344 87.078125 L 470.324219 87.089844 L 470.25 87.101563 L 470.183594 87.121094 L 470.113281 87.140625 L 470.050781 87.164063 L 469.992188 87.191406 L 469.882813 87.253906 L 469.828125 87.292969 L 469.777344 87.332031 L 469.679688 87.429688 L 469.632813 87.488281 L 469.585938 87.550781 L 469.542969 87.617188 L 469.457031 87.765625 L 469.410156 87.847656 L 469.367188 87.9375 L 469.320313 88.03125 L 469.273438 88.132813 L 469.226563 88.242188 L 469.179688 88.359375 L 469.132813 88.484375 L 469.085938 88.617188 L 469.039063 88.757813 L 468.992188 88.902344 L 468.910156 89.136719 L 468.824219 89.355469 L 468.738281 89.5625 L 468.644531 89.753906 L 468.550781 89.933594 L 468.453125 90.101563 L 468.355469 90.253906 L 468.25 90.394531 L 468.140625 90.519531 L 468.03125 90.632813 L 467.917969 90.730469 L 467.796875 90.820313 L 467.667969 90.902344 L 467.535156 90.96875 L 467.394531 91.027344 L 467.25 91.074219 L 467.097656 91.113281 L 466.941406 91.136719 L 466.777344 91.152344 L 466.609375 91.160156 L 466.476563 91.15625 L 466.34375 91.144531 L 466.21875 91.128906 L 466.09375 91.101563 L 465.972656 91.070313 L 465.851563 91.03125 L 465.738281 90.988281 L 465.625 90.933594 L 465.515625 90.875 L 465.40625 90.808594 L 465.304688 90.734375 L 465.207031 90.65625 L 465.109375 90.570313 L 465.019531 90.480469 L 464.9375 90.386719 L 464.855469 90.285156 L 464.777344 90.179688 L 464.707031 90.070313 L 464.640625 89.953125 L 464.574219 89.832031 L 464.464844 89.574219 L 464.421875 89.441406 L 464.382813 89.300781 L 464.347656 89.160156 L 464.320313 89.011719 L 464.300781 88.863281 L 464.285156 88.710938 L 464.273438 88.550781 Z M 464.273438 88.390625 "/>
<path style=" stroke:none;fill-rule:nonzero;fill:rgb(0%,0%,0%);fill-opacity:1;" d="M 472.527344 79.75 L 472.636719 79.914063 L 472.734375 80.078125 L 472.820313 80.246094 L 472.898438 80.417969 L 472.960938 80.59375 L 473.011719 80.773438 L 473.050781 80.957031 L 473.082031 81.144531 L 473.097656 81.332031 L 473.105469 81.527344 L 473.097656 81.726563 L 473.082031 81.917969 L 473.050781 82.101563 L 473.007813 82.273438 L 472.957031 82.433594 L 472.890625 82.589844 L 472.8125 82.734375 L 472.726563 82.867188 L 472.625 82.996094 L 472.511719 83.113281 L 472.390625 83.214844 L 472.257813 83.308594 L 472.113281 83.390625 L 471.960938 83.460938 L 471.800781 83.519531 L 471.628906 83.566406 L 471.449219 83.605469 L 471.257813 83.632813 L 471.058594 83.648438 L 470.847656 83.65625 L 465.566406 83.65625 L 465.566406 84.855469 L 464.480469 84.855469 L 464.480469 83.65625 L 462.542969 83.65625 L 462.367188 82.214844 L 464.480469 82.214844 L 464.480469 80.359375 L 465.566406 80.519531 L 465.566406 82.214844 L 470.832031 82.214844 L 471.039063 82.207031 L 471.222656 82.179688 L 471.386719 82.132813 L 471.527344 82.070313 L 471.648438 81.988281 L 471.746094 81.886719 L 471.820313 81.769531 L 471.875 81.632813 L 471.910156 81.476563 L 471.917969 81.304688 L 471.917969 81.195313 L 471.914063 81.144531 L 471.898438 81.042969 L 471.890625 80.996094 L 471.878906 80.945313 L 471.855469 80.851563 L 471.839844 80.808594 L 471.824219 80.757813 L 471.804688 80.710938 L 471.785156 80.660156 L 471.761719 80.609375 L 471.738281 80.554688 L 471.714844 80.503906 L 471.660156 80.394531 L 471.632813 80.335938 L 471.601563 80.28125 Z M 472.527344 79.75 "/>
<path style=" stroke:none;fill-rule:nonzero;fill:rgb(0%,0%,0%);fill-opacity:1;" d="M 471.070313 78.121094 L 471.074219 78.03125 L 471.085938 77.945313 L 471.097656 77.867188 L 471.121094 77.789063 L 471.148438 77.714844 L 471.179688 77.644531 L 471.222656 77.578125 L 471.265625 77.515625 L 471.316406 77.457031 L 471.375 77.398438 L 471.433594 77.34375 L 471.496094 77.296875 L 471.558594 77.253906 L 471.625 77.214844 L 471.695313 77.183594 L 471.769531 77.15625 L 471.84375 77.136719 L 471.917969 77.121094 L 471.996094 77.113281 L 472.160156 77.113281 L 472.242188 77.121094 L 472.320313 77.136719 L 472.394531 77.15625 L 472.46875 77.183594 L 472.539063 77.214844 L 472.609375 77.253906 L 472.675781 77.296875 L 472.738281 77.34375 L 472.800781 77.398438 L 472.859375 77.457031 L 472.910156 77.515625 L 472.953125 77.578125 L 472.996094 77.644531 L 473.027344 77.714844 L 473.054688 77.789063 L 473.078125 77.867188 L 473.089844 77.945313 L 473.101563 78.03125 L 473.105469 78.121094 L 473.101563 78.203125 L 473.078125 78.367188 L 473.054688 78.441406 L 473.027344 78.515625 L 472.996094 78.585938 L 472.910156 78.71875 L 472.859375 78.78125 L 472.800781 78.839844 L 472.738281 78.890625 L 472.675781 78.9375 L 472.609375 78.976563 L 472.539063 79.011719 L 472.46875 79.042969 L 472.394531 79.066406 L 472.320313 79.085938 L 472.242188 79.101563 L 472.160156 79.109375 L 472.078125 79.113281 L 471.996094 79.109375 L 471.917969 79.101563 L 471.84375 79.085938 L 471.769531 79.066406 L 471.695313 79.042969 L 471.625 79.011719 L 471.558594 78.976563 L 471.496094 78.9375 L 471.433594 78.890625 L 471.375 78.839844 L 471.316406 78.78125 L 471.265625 78.71875 L 471.179688 78.585938 L 471.148438 78.515625 L 471.121094 78.441406 L 471.097656 78.367188 L 471.074219 78.203125 Z M 471.070313 78.121094 "/>
<path style=" stroke:none;fill-rule:nonzero;fill:rgb(0%,0%,0%);fill-opacity:1;" d="M 461.886719 65.816406 L 463.039063 65.992188 L 463.039063 69.800781 L 466.671875 69.800781 L 466.671875 66.488281 L 467.824219 66.488281 L 467.824219 69.800781 L 471.726563 69.800781 L 471.726563 65.765625 L 472.894531 65.765625 L 472.894531 71.289063 L 461.886719 71.289063 Z M 461.886719 65.816406 "/>
<path style=" stroke:none;fill-rule:nonzero;fill:rgb(0%,0%,0%);fill-opacity:1;" d="M 462.046875 61.09375 L 462.050781 61.210938 L 462.058594 61.320313 L 462.074219 61.421875 L 462.09375 61.519531 L 462.121094 61.613281 L 462.152344 61.695313 L 462.1875 61.773438 L 462.230469 61.847656 L 462.28125 61.914063 L 462.335938 61.976563 L 462.398438 62.027344 L 462.464844 62.074219 L 462.539063 62.113281 L 462.617188 62.148438 L 462.703125 62.179688 L 462.796875 62.203125 L 462.894531 62.222656 L 463 62.238281 L 463.113281 62.246094 L 464.480469 62.246094 L 464.480469 60.359375 L 465.566406 60.519531 L 465.566406 62.246094 L 472.894531 62.246094 L 472.894531 63.6875 L 465.566406 63.6875 L 465.566406 64.933594 L 464.480469 64.933594 L 464.480469 63.6875 L 463.246094 63.6875 L 463.039063 63.679688 L 462.84375 63.660156 L 462.652344 63.628906 L 462.46875 63.585938 L 462.296875 63.527344 L 462.128906 63.457031 L 461.972656 63.375 L 461.824219 63.277344 L 461.683594 63.167969 L 461.550781 63.046875 L 461.429688 62.910156 L 461.320313 62.765625 L 461.226563 62.609375 L 461.140625 62.441406 L 461.070313 62.265625 L 461.015625 62.082031 L 460.96875 61.886719 L 460.9375 61.679688 L 460.917969 61.464844 L 460.910156 61.238281 L 460.917969 61.046875 L 460.929688 60.855469 L 460.953125 60.667969 L 460.984375 60.476563 L 461.027344 60.289063 L 461.078125 60.097656 L 461.140625 59.910156 L 461.207031 59.722656 L 461.289063 59.539063 L 461.375 59.351563 L 462.367188 59.785156 L 462.308594 59.914063 L 462.253906 60.046875 L 462.203125 60.175781 L 462.164063 60.308594 L 462.128906 60.4375 L 462.097656 60.570313 L 462.078125 60.703125 L 462.0625 60.832031 L 462.050781 60.964844 Z M 462.046875 61.09375 "/>
<path style=" stroke:none;fill-rule:nonzero;fill:rgb(0%,0%,0%);fill-opacity:1;" d="M 462.046875 56.199219 L 462.050781 56.316406 L 462.058594 56.425781 L 462.074219 56.527344 L 462.09375 56.625 L 462.121094 56.714844 L 462.152344 56.800781 L 462.1875 56.878906 L 462.230469 56.953125 L 462.28125 57.019531 L 462.335938 57.078125 L 462.398438 57.132813 L 462.464844 57.175781 L 462.539063 57.21875 L 462.617188 57.253906 L 462.703125 57.285156 L 462.796875 57.308594 L 462.894531 57.328125 L 463 57.339844 L 463.113281 57.347656 L 463.230469 57.351563 L 464.480469 57.351563 L 464.480469 55.464844 L 465.566406 55.625 L 465.566406 57.351563 L 472.894531 57.351563 L 472.894531 58.792969 L 465.566406 58.792969 L 465.566406 60.039063 L 464.480469 60.039063 L 464.480469 58.792969 L 463.246094 58.792969 L 463.039063 58.785156 L 462.84375 58.765625 L 462.652344 58.734375 L 462.46875 58.6875 L 462.296875 58.632813 L 462.128906 58.5625 L 461.972656 58.476563 L 461.824219 58.382813 L 461.683594 58.273438 L 461.550781 58.152344 L 461.429688 58.015625 L 461.320313 57.867188 L 461.226563 57.714844 L 461.140625 57.546875 L 461.070313 57.371094 L 461.015625 57.1875 L 460.96875 56.988281 L 460.9375 56.785156 L 460.917969 56.570313 L 460.910156 56.34375 L 460.917969 56.152344 L 460.929688 55.960938 L 460.953125 55.769531 L 460.984375 55.582031 L 461.027344 55.390625 L 461.078125 55.203125 L 461.140625 55.015625 L 461.207031 54.828125 L 461.289063 54.640625 L 461.375 54.457031 L 462.367188 54.886719 L 462.308594 55.019531 L 462.253906 55.148438 L 462.203125 55.28125 L 462.164063 55.414063 L 462.128906 55.542969 L 462.097656 55.675781 L 462.078125 55.804688 L 462.0625 55.9375 L 462.050781 56.066406 Z M 462.046875 56.199219 "/>
<path style=" stroke:none;fill-rule:nonzero;fill:rgb(0%,0%,0%);fill-opacity:1;" d="M 468.433594 48.152344 L 468.640625 48.152344 L 468.863281 48.164063 L 469.019531 48.171875 L 469.101563 48.175781 L 469.183594 48.183594 L 469.183594 53.078125 L 469.46875 53.0625 L 469.738281 53.035156 L 469.992188 53 L 470.230469 52.953125 L 470.453125 52.898438 L 470.65625 52.835938 L 470.84375 52.761719 L 471.015625 52.679688 L 471.171875 52.589844 L 471.3125 52.488281 L 471.433594 52.378906 L 471.542969 52.261719 L 471.636719 52.136719 L 471.722656 52.003906 L 471.792969 51.863281 L 471.847656 51.714844 L 471.894531 51.558594 L 471.925781 51.398438 L 471.945313 51.226563 L 471.953125 51.046875 L 471.945313 50.820313 L 471.9375 50.714844 L 471.921875 50.605469 L 471.90625 50.503906 L 471.886719 50.402344 L 471.867188 50.304688 L 471.839844 50.207031 L 471.808594 50.113281 L 471.777344 50.023438 L 471.738281 49.929688 L 471.695313 49.835938 L 471.648438 49.742188 L 471.597656 49.648438 L 471.542969 49.550781 L 471.484375 49.453125 L 471.417969 49.359375 L 471.351563 49.261719 L 471.277344 49.164063 L 471.199219 49.0625 L 472.046875 48.421875 L 472.25 48.664063 L 472.429688 48.910156 L 472.585938 49.164063 L 472.722656 49.421875 L 472.839844 49.6875 L 472.933594 49.960938 L 473.007813 50.238281 L 473.0625 50.523438 L 473.09375 50.8125 L 473.105469 51.113281 L 473.09375 51.433594 L 473.058594 51.742188 L 473 52.035156 L 472.921875 52.3125 L 472.820313 52.574219 L 472.695313 52.824219 L 472.546875 53.058594 L 472.375 53.277344 L 472.183594 53.480469 L 471.96875 53.671875 L 471.726563 53.839844 L 471.46875 53.992188 L 471.195313 54.128906 L 470.902344 54.246094 L 470.589844 54.34375 L 470.257813 54.425781 L 469.910156 54.488281 L 469.542969 54.53125 L 469.15625 54.558594 L 468.75 54.566406 L 468.347656 54.558594 L 467.960938 54.53125 L 467.589844 54.488281 L 467.238281 54.429688 L 466.902344 54.351563 L 466.585938 54.257813 L 466.285156 54.144531 L 466.003906 54.015625 L 465.738281 53.867188 L 465.488281 53.703125 L 465.257813 53.523438 L 465.050781 53.332031 L 464.867188 53.125 L 464.710938 52.90625 L 464.574219 52.671875 L 464.464844 52.425781 L 464.382813 52.164063 L 464.320313 51.890625 L 464.285156 51.605469 L 464.273438 51.304688 L 464.28125 51.007813 L 464.316406 50.722656 L 464.371094 50.453125 L 464.445313 50.199219 L 464.542969 49.960938 L 464.664063 49.734375 L 464.804688 49.519531 L 464.96875 49.320313 L 465.152344 49.136719 L 465.359375 48.96875 L 465.582031 48.8125 L 465.824219 48.671875 L 466.085938 48.550781 L 466.367188 48.445313 L 466.664063 48.355469 L 466.980469 48.28125 L 467.316406 48.226563 L 467.667969 48.183594 L 468.042969 48.160156 Z M 468 49.542969 L 467.5 49.5625 L 467.050781 49.613281 L 466.652344 49.699219 L 466.308594 49.824219 L 466.019531 49.980469 L 465.78125 50.171875 L 465.597656 50.398438 L 465.464844 50.660156 L 465.386719 50.957031 L 465.359375 51.289063 L 465.367188 51.445313 L 465.386719 51.59375 L 465.421875 51.738281 L 465.46875 51.875 L 465.527344 52.003906 L 465.601563 52.125 L 465.6875 52.242188 L 465.789063 52.351563 L 465.902344 52.457031 L 466.03125 52.550781 L 466.171875 52.640625 L 466.328125 52.722656 L 466.5 52.792969 L 466.691406 52.859375 L 466.894531 52.914063 L 467.117188 52.964844 L 467.359375 53.003906 L 467.613281 53.039063 L 467.886719 53.0625 L 468.175781 53.078125 L 468.175781 49.542969 Z M 468 49.542969 "/>
<path style=" stroke:none;fill-rule:nonzero;fill:rgb(0%,0%,0%);fill-opacity:1;" d="M 464.273438 43.222656 L 464.273438 43.089844 L 464.28125 42.960938 L 464.292969 42.832031 L 464.308594 42.703125 L 464.328125 42.578125 L 464.351563 42.457031 L 464.382813 42.335938 L 464.414063 42.21875 L 464.453125 42.105469 L 464.496094 41.992188 L 464.542969 41.878906 L 464.59375 41.769531 L 464.652344 41.660156 L 464.714844 41.550781 L 464.78125 41.445313 L 464.851563 41.335938 L 464.925781 41.230469 L 465.007813 41.125 L 465.09375 41.023438 L 465.183594 40.917969 L 466.046875 41.558594 L 465.988281 41.636719 L 465.933594 41.714844 L 465.878906 41.789063 L 465.785156 41.945313 L 465.742188 42.019531 L 465.699219 42.097656 L 465.664063 42.171875 L 465.628906 42.25 L 465.601563 42.328125 L 465.570313 42.40625 L 465.542969 42.484375 L 465.519531 42.5625 L 465.496094 42.644531 L 465.480469 42.726563 L 465.464844 42.8125 L 465.453125 42.894531 L 465.445313 42.984375 L 465.441406 43.070313 L 465.441406 43.160156 L 465.449219 43.34375 L 465.472656 43.519531 L 465.511719 43.6875 L 465.566406 43.847656 L 465.640625 44 L 465.726563 44.140625 L 465.832031 44.277344 L 465.953125 44.402344 L 466.089844 44.523438 L 466.238281 44.632813 L 466.410156 44.730469 L 466.597656 44.816406 L 466.800781 44.890625 L 467.023438 44.960938 L 467.265625 45.015625 L 467.523438 45.0625 L 467.800781 45.097656 L 468.09375 45.121094 L 468.40625 45.136719 L 468.734375 45.144531 L 469.335938 45.125 L 469.875 45.0625 L 470.351563 44.964844 L 470.761719 44.824219 L 471.113281 44.648438 L 471.398438 44.429688 L 471.617188 44.171875 L 471.777344 43.875 L 471.871094 43.535156 L 471.902344 43.160156 L 471.902344 43.070313 L 471.898438 42.984375 L 471.882813 42.8125 L 471.867188 42.730469 L 471.851563 42.652344 L 471.832031 42.570313 L 471.8125 42.492188 L 471.789063 42.417969 L 471.761719 42.34375 L 471.691406 42.195313 L 471.652344 42.117188 L 471.609375 42.042969 L 471.5625 41.964844 L 471.515625 41.882813 L 471.464844 41.804688 L 471.355469 41.640625 L 471.296875 41.558594 L 472.175781 40.886719 L 472.351563 41.09375 L 472.511719 41.308594 L 472.648438 41.527344 L 472.769531 41.75 L 472.871094 41.980469 L 472.957031 42.214844 L 473.019531 42.453125 L 473.066406 42.699219 L 473.09375 42.949219 L 473.105469 43.207031 L 473.09375 43.523438 L 473.058594 43.828125 L 473.003906 44.113281 L 472.925781 44.390625 L 472.824219 44.652344 L 472.699219 44.898438 L 472.554688 45.132813 L 472.386719 45.351563 L 472.195313 45.558594 L 471.984375 45.75 L 471.75 45.925781 L 471.496094 46.078125 L 471.222656 46.214844 L 470.929688 46.335938 L 470.617188 46.433594 L 470.28125 46.515625 L 469.929688 46.582031 L 469.558594 46.625 L 469.164063 46.652344 L 468.75 46.664063 L 468.480469 46.660156 L 468.214844 46.648438 L 467.960938 46.625 L 467.710938 46.597656 L 467.46875 46.558594 L 467.234375 46.511719 L 467.003906 46.460938 L 466.785156 46.398438 L 466.574219 46.328125 L 466.367188 46.246094 L 466.171875 46.15625 L 465.984375 46.0625 L 465.804688 45.957031 L 465.636719 45.847656 L 465.476563 45.730469 L 465.324219 45.609375 L 465.183594 45.476563 L 465.050781 45.339844 L 464.929688 45.199219 L 464.816406 45.046875 L 464.710938 44.886719 L 464.621094 44.722656 L 464.539063 44.554688 L 464.46875 44.378906 L 464.40625 44.199219 L 464.359375 44.015625 L 464.320313 43.824219 L 464.292969 43.628906 L 464.277344 43.429688 Z M 464.273438 43.222656 "/>
<path style=" stroke:none;fill-rule:nonzero;fill:rgb(0%,0%,0%);fill-opacity:1;" d="M 472.527344 35.320313 L 472.636719 35.480469 L 472.734375 35.644531 L 472.820313 35.816406 L 472.898438 35.988281 L 472.960938 36.164063 L 473.011719 36.34375 L 473.050781 36.527344 L 473.082031 36.710938 L 473.097656 36.902344 L 473.105469 37.09375 L 473.097656 37.296875 L 473.082031 37.488281 L 473.050781 37.667969 L 473.007813 37.839844 L 472.957031 38.003906 L 472.890625 38.15625 L 472.8125 38.300781 L 472.726563 38.4375 L 472.625 38.5625 L 472.511719 38.679688 L 472.390625 38.78125 L 472.257813 38.875 L 472.113281 38.957031 L 471.960938 39.027344 L 471.800781 39.085938 L 471.628906 39.136719 L 471.449219 39.175781 L 471.257813 39.203125 L 471.058594 39.21875 L 470.847656 39.222656 L 465.566406 39.222656 L 465.566406 40.421875 L 464.480469 40.421875 L 464.480469 39.222656 L 462.542969 39.222656 L 462.367188 37.785156 L 464.480469 37.785156 L 464.480469 35.925781 L 465.566406 36.085938 L 465.566406 37.785156 L 470.832031 37.785156 L 471.039063 37.773438 L 471.222656 37.746094 L 471.386719 37.703125 L 471.527344 37.636719 L 471.648438 37.554688 L 471.746094 37.453125 L 471.820313 37.335938 L 471.875 37.199219 L 471.910156 37.042969 L 471.917969 36.871094 L 471.917969 36.765625 L 471.914063 36.710938 L 471.90625 36.660156 L 471.898438 36.613281 L 471.890625 36.5625 L 471.855469 36.421875 L 471.824219 36.328125 L 471.785156 36.226563 L 471.738281 36.125 L 471.714844 36.070313 L 471.632813 35.90625 L 471.601563 35.847656 Z M 472.527344 35.320313 "/>
</g>
</svg>
