<?xml version="1.0" encoding="UTF-8"?>
<svg xmlns="http://www.w3.org/2000/svg" xmlns:xlink="http://www.w3.org/1999/xlink" width="504pt" height="504pt" viewBox="0 0 504 504" version="1.1">
<defs>
<clipPath id="clip1">
  <path d="M 255 28.347656 L 257 28.347656 L 257 419.757813 L 255 419.757813 Z M 255 28.347656 "/>
</clipPath>
</defs>
<g id="surface44">
<rect x="0" y="0" width="504" height="504" style="fill:rgb(100%,100%,100%);fill-opacity:1;stroke:none;"/>
<path style="fill:none;stroke-width:2.347352;stroke-linecap:butt;stroke-linejoin:round;stroke:rgb(50.980392%,3.921569%,58.039216%);stroke-opacity:1;stroke-miterlimit:10;" d="M 56.824219 401.964844 L 96.710938 399.066406 L 136.601563 339.457031 L 176.488281 303.484375 L 216.378906 304.421875 L 256.265625 277.976563 L 296.15625 214.074219 L 336.042969 174.253906 L 375.933594 131.25 L 415.820313 58.730469 L 455.710938 46.136719 "/>
<path style="fill:none;stroke-width:2.347352;stroke-linecap:butt;stroke-linejoin:round;stroke:rgb(97.254902%,58.039216%,25.490196%);stroke-opacity:1;stroke-miterlimit:10;" d="M 56.824219 401.964844 L 96.710938 399.066406 L 136.601563 339.457031 L 176.488281 303.484375 L 216.378906 304.421875 L 256.265625 277.976563 L 296.15625 245.382813 L 336.042969 236.875 L 375.933594 225.179688 L 415.820313 183.972656 L 455.710938 202.691406 "/>
<path style="fill-rule:nonzero;fill:rgb(50.980392%,3.921569%,58.039216%);fill-opacity:1;stroke-width:0.708661;stroke-linecap:round;stroke-linejoin:round;stroke:rgb(50.980392%,3.921569%,58.039216%);stroke-opacity:1;stroke-miterlimit:10;" d="M 60.378906 401.964844 C 60.378906 406.703125 53.269531 406.703125 53.269531 401.964844 C 53.269531 397.222656 60.378906 397.222656 60.378906 401.964844 "/>
<path style="fill-rule:nonzero;fill:rgb(50.980392%,3.921569%,58.039216%);fill-opacity:1;stroke-width:0.708661;stroke-linecap:round;stroke-linejoin:round;stroke:rgb(50.980392%,3.921569%,58.039216%);stroke-opacity:1;stroke-miterlimit:10;" d="M 100.269531 399.066406 C 100.269531 403.808594 93.15625 403.808594 93.15625 399.066406 C 93.15625 394.328125 100.269531 394.328125 100.269531 399.066406 "/>
<path style="fill-rule:nonzero;fill:rgb(50.980392%,3.921569%,58.039216%);fill-opacity:1;stroke-width:0.708661;stroke-linecap:round;stroke-linejoin:round;stroke:rgb(50.980392%,3.921569%,58.039216%);stroke-opacity:1;stroke-miterlimit:10;" d="M 140.15625 339.457031 C 140.15625 344.199219 133.046875 344.199219 133.046875 339.457031 C 133.046875 334.71875 140.15625 334.71875 140.15625 339.457031 "/>
<path style="fill-rule:nonzero;fill:rgb(50.980392%,3.921569%,58.039216%);fill-opacity:1;stroke-width:0.708661;stroke-linecap:round;stroke-linejoin:round;stroke:rgb(50.980392%,3.921569%,58.039216%);stroke-opacity:1;stroke-miterlimit:10;" d="M 180.046875 303.484375 C 180.046875 308.226563 172.933594 308.226563 172.933594 303.484375 C 172.933594 298.746094 180.046875 298.746094 180.046875 303.484375 "/>
<path style="fill-rule:nonzero;fill:rgb(50.980392%,3.921569%,58.039216%);fill-opacity:1;stroke-width:0.708661;stroke-linecap:round;stroke-linejoin:round;stroke:rgb(50.980392%,3.921569%,58.039216%);stroke-opacity:1;stroke-miterlimit:10;" d="M 219.933594 304.421875 C 219.933594 309.164063 212.824219 309.164063 212.824219 304.421875 C 212.824219 299.683594 219.933594 299.683594 219.933594 304.421875 "/>
<path style="fill-rule:nonzero;fill:rgb(50.980392%,3.921569%,58.039216%);fill-opacity:1;stroke-width:0.708661;stroke-linecap:round;stroke-linejoin:round;stroke:rgb(50.980392%,3.921569%,58.039216%);stroke-opacity:1;stroke-miterlimit:10;" d="M 259.820313 277.976563 C 259.820313 282.714844 252.710938 282.714844 252.710938 277.976563 C 252.710938 273.234375 259.820313 273.234375 259.820313 277.976563 "/>
<path style="fill-rule:nonzero;fill:rgb(50.980392%,3.921569%,58.039216%);fill-opacity:1;stroke-width:0.708661;stroke-linecap:round;stroke-linejoin:round;stroke:rgb(50.980392%,3.921569%,58.039216%);stroke-opacity:1;stroke-miterlimit:10;" d="M 299.710938 214.074219 C 299.710938 218.816406 292.601563 218.816406 292.601563 214.074219 C 292.601563 209.332031 299.710938 209.332031 299.710938 214.074219 "/>
<path style="fill-rule:nonzero;fill:rgb(50.980392%,3.921569%,58.039216%);fill-opacity:1;stroke-width:0.708661;stroke-linecap:round;stroke-linejoin:round;stroke:rgb(50.980392%,3.921569%,58.039216%);stroke-opacity:1;stroke-miterlimit:10;" d="M 339.597656 174.253906 C 339.597656 178.992188 332.488281 178.992188 332.488281 174.253906 C 332.488281 169.511719 339.597656 169.511719 339.597656 174.253906 "/>
<path style="fill-rule:nonzero;fill:rgb(50.980392%,3.921569%,58.039216%);fill-opacity:1;stroke-width:0.708661;stroke-linecap:round;stroke-linejoin:round;stroke:rgb(50.980392%,3.921569%,58.039216%);stroke-opacity:1;stroke-miterlimit:10;" d="M 379.488281 131.25 C 379.488281 135.988281 372.378906 135.988281 372.378906 131.25 C 372.378906 126.507813 379.488281 126.507813 379.488281 131.25 "/>
<path style="fill-rule:nonzero;fill:rgb(50.980392%,3.921569%,58.039216%);fill-opacity:1;stroke-width:0.708661;stroke-linecap:round;stroke-linejoin:round;stroke:rgb(50.980392%,3.921569%,58.039216%);stroke-opacity:1;stroke-miterlimit:10;" d="M 419.375 58.730469 C 419.375 63.472656 412.265625 63.472656 412.265625 58.730469 C 412.265625 53.992188 419.375 53.992188 419.375 58.730469 "/>
<path style="fill-rule:nonzero;fill:rgb(50.980392%,3.921569%,58.039216%);fill-opacity:1;stroke-width:0.708661;stroke-linecap:round;stroke-linejoin:round;stroke:rgb(50.980392%,3.921569%,58.039216%);stroke-opacity:1;stroke-miterlimit:10;" d="M 459.265625 46.136719 C 459.265625 50.878906 452.152344 50.878906 452.152344 46.136719 C 452.152344 41.398438 459.265625 41.398438 459.265625 46.136719 "/>
<path style="fill-rule:nonzero;fill:rgb(97.254902%,58.039216%,25.490196%);fill-opacity:1;stroke-width:0.708661;stroke-linecap:round;stroke-linejoin:round;stroke:rgb(97.254902%,58.039216%,25.490196%);stroke-opacity:1;stroke-miterlimit:10;" d="M 60.378906 401.964844 C 60.378906 406.703125 53.269531 406.703125 53.269531 401.964844 C 53.269531 397.222656 60.378906 397.222656 60.378906 401.964844 "/>
<path style="fill-rule:nonzero;fill:rgb(97.254902%,58.039216%,25.490196%);fill-opacity:1;stroke-width:0.708661;stroke-linecap:round;stroke-linejoin:round;stroke:rgb(97.254902%,58.039216%,25.490196%);stroke-opacity:1;stroke-miterlimit:10;" d="M 100.269531 399.066406 C 100.269531 403.808594 93.15625 403.808594 93.15625 399.066406 C 93.15625 394.328125 100.269531 394.328125 100.269531 399.066406 "/>
<path style="fill-rule:nonzero;fill:rgb(97.254902%,58.039216%,25.490196%);fill-opacity:1;stroke-width:0.708661;stroke-linecap:round;stroke-linejoin:round;stroke:rgb(97.254902%,58.039216%,25.490196%);stroke-opacity:1;stroke-miterlimit:10;" d="M 140.15625 339.457031 C 140.15625 344.199219 133.046875 344.199219 133.046875 339.457031 C 133.046875 334.71875 140.15625 334.71875 140.15625 339.457031 "/>
<path style="fill-rule:nonzero;fill:rgb(97.254902%,58.039216%,25.490196%);fill-opacity:1;stroke-width:0.708661;stroke-linecap:round;stroke-linejoin:round;stroke:rgb(97.254902%,58.039216%,25.490196%);stroke-opacity:1;stroke-miterlimit:10;" d="M 180.046875 303.484375 C 180.046875 308.226563 172.933594 308.226563 172.933594 303.484375 C 172.933594 298.746094 180.046875 298.746094 180.046875 303.484375 "/>
<path style="fill-rule:nonzero;fill:rgb(97.254902%,58.039216%,25.490196%);fill-opacity:1;stroke-width:0.708661;stroke-linecap:round;stroke-linejoin:round;stroke:rgb(97.254902%,58.039216%,25.490196%);stroke-opacity:1;stroke-miterlimit:10;" d="M 219.933594 304.421875 C 219.933594 309.164063 212.824219 309.164063 212.824219 304.421875 C 212.824219 299.683594 219.933594 299.683594 219.933594 304.421875 "/>
<path style="fill-rule:nonzero;fill:rgb(97.254902%,58.039216%,25.490196%);fill-opacity:1;stroke-width:0.708661;stroke-linecap:round;stroke-linejoin:round;stroke:rgb(97.254902%,58.039216%,25.490196%);stroke-opacity:1;stroke-miterlimit:10;" d="M 259.820313 277.976563 C 259.820313 282.714844 252.710938 282.714844 252.710938 277.976563 C 252.710938 273.234375 259.820313 273.234375 259.820313 277.976563 "/>
<path style="fill-rule:nonzero;fill:rgb(97.254902%,58.039216%,25.490196%);fill-opacity:1;stroke-width:0.708661;stroke-linecap:round;stroke-linejoin:round;stroke:rgb(97.254902%,58.039216%,25.490196%);stroke-opacity:1;stroke-miterlimit:10;" d="M 299.710938 245.382813 C 299.710938 250.125 292.601563 250.125 292.601563 245.382813 C 292.601563 240.644531 299.710938 240.644531 299.710938 245.382813 "/>
<path style="fill-rule:nonzero;fill:rgb(97.254902%,58.039216%,25.490196%);fill-opacity:1;stroke-width:0.708661;stroke-linecap:round;stroke-linejoin:round;stroke:rgb(97.254902%,58.039216%,25.490196%);stroke-opacity:1;stroke-miterlimit:10;" d="M 339.597656 236.875 C 339.597656 241.613281 332.488281 241.613281 332.488281 236.875 C 332.488281 232.132813 339.597656 232.132813 339.597656 236.875 "/>
<path style="fill-rule:nonzero;fill:rgb(97.254902%,58.039216%,25.490196%);fill-opacity:1;stroke-width:0.708661;stroke-linecap:round;stroke-linejoin:round;stroke:rgb(97.254902%,58.039216%,25.490196%);stroke-opacity:1;stroke-miterlimit:10;" d="M 379.488281 225.179688 C 379.488281 229.921875 372.378906 229.921875 372.378906 225.179688 C 372.378906 220.441406 379.488281 220.441406 379.488281 225.179688 "/>
<path style="fill-rule:nonzero;fill:rgb(97.254902%,58.039216%,25.490196%);fill-opacity:1;stroke-width:0.708661;stroke-linecap:round;stroke-linejoin:round;stroke:rgb(97.254902%,58.039216%,25.490196%);stroke-opacity:1;stroke-miterlimit:10;" d="M 419.375 183.972656 C 419.375 188.714844 412.265625 188.714844 412.265625 183.972656 C 412.265625 179.234375 419.375 179.234375 419.375 183.972656 "/>
<path style="fill-rule:nonzero;fill:rgb(97.254902%,58.039216%,25.490196%);fill-opacity:1;stroke-width:0.708661;stroke-linecap:round;stroke-linejoin:round;stroke:rgb(97.254902%,58.039216%,25.490196%);stroke-opacity:1;stroke-miterlimit:10;" d="M 459.265625 202.691406 C 459.265625 207.429688 452.152344 207.429688 452.152344 202.691406 C 452.152344 197.949219 459.265625 197.949219 459.265625 202.691406 "/>
<g clip-path="url(#clip1)" clip-rule="nonzero">
<path style="fill:none;stroke-width:1.066978;stroke-linecap:butt;stroke-linejoin:round;stroke:rgb(74.509804%,74.509804%,74.509804%);stroke-opacity:1;stroke-dasharray:4.267913,4.267913;stroke-miterlimit:10;" d="M 256.265625 419.753906 L 256.265625 28.347656 "/>
</g>
<path style="fill:none;stroke-width:1.115477;stroke-linecap:butt;stroke-linejoin:round;stroke:rgb(74.509804%,74.509804%,74.509804%);stroke-opacity:1;stroke-miterlimit:10;" d="M 36.878906 419.753906 L 475.652344 419.753906 "/>
<path style=" stroke:none;fill-rule:nonzero;fill:rgb(30.196078%,30.196078%,30.196078%);fill-opacity:1;" d="M 37.472656 428.738281 L 43.773438 428.738281 L 43.773438 430.035156 L 37.472656 430.035156 Z M 37.472656 428.738281 "/>
<path style=" stroke:none;fill-rule:nonzero;fill:rgb(30.196078%,30.196078%,30.196078%);fill-opacity:1;" d="M 54.574219 423.84375 L 49.679688 423.84375 L 49.679688 427.75 L 49.78125 427.691406 L 49.886719 427.636719 L 49.988281 427.585938 L 50.09375 427.535156 L 50.195313 427.492188 L 50.296875 427.453125 L 50.398438 427.417969 L 50.5 427.386719 L 50.601563 427.359375 L 50.703125 427.335938 L 50.914063 427.289063 L 51.023438 427.273438 L 51.128906 427.253906 L 51.238281 427.242188 L 51.351563 427.230469 L 51.460938 427.222656 L 51.574219 427.214844 L 51.6875 427.210938 L 51.800781 427.210938 L 52.105469 427.21875 L 52.394531 427.25 L 52.675781 427.300781 L 52.941406 427.375 L 53.191406 427.464844 L 53.433594 427.578125 L 53.660156 427.710938 L 53.875 427.867188 L 54.078125 428.042969 L 54.269531 428.234375 L 54.445313 428.449219 L 54.605469 428.679688 L 54.746094 428.925781 L 54.867188 429.1875 L 54.96875 429.464844 L 55.054688 429.757813 L 55.121094 430.070313 L 55.167969 430.394531 L 55.195313 430.738281 L 55.203125 431.097656 L 55.199219 431.339844 L 55.183594 431.574219 L 55.15625 431.804688 L 55.121094 432.03125 L 55.074219 432.25 L 55.015625 432.464844 L 54.949219 432.671875 L 54.871094 432.871094 L 54.78125 433.066406 L 54.683594 433.257813 L 54.578125 433.441406 L 54.460938 433.617188 L 54.339844 433.78125 L 54.207031 433.941406 L 54.066406 434.089844 L 53.914063 434.230469 L 53.757813 434.367188 L 53.585938 434.492188 L 53.410156 434.609375 L 53.222656 434.714844 L 53.03125 434.8125 L 52.832031 434.898438 L 52.625 434.972656 L 52.410156 435.039063 L 52.195313 435.09375 L 51.96875 435.140625 L 51.738281 435.175781 L 51.503906 435.199219 L 51.257813 435.214844 L 51.011719 435.21875 L 50.601563 435.207031 L 50.203125 435.160156 L 49.816406 435.085938 L 49.441406 434.984375 L 49.074219 434.851563 L 48.71875 434.6875 L 48.375 434.496094 L 48.042969 434.277344 L 47.722656 434.023438 L 47.410156 433.742188 L 48.347656 432.824219 L 48.578125 433.046875 L 48.816406 433.242188 L 49.0625 433.414063 L 49.316406 433.5625 L 49.578125 433.691406 L 49.851563 433.792969 L 50.128906 433.875 L 50.414063 433.933594 L 50.707031 433.964844 L 51.011719 433.976563 L 51.253906 433.96875 L 51.484375 433.949219 L 51.707031 433.910156 L 51.914063 433.855469 L 52.113281 433.789063 L 52.300781 433.707031 L 52.476563 433.609375 L 52.640625 433.496094 L 52.792969 433.367188 L 52.9375 433.222656 L 53.066406 433.0625 L 53.183594 432.894531 L 53.285156 432.707031 L 53.375 432.511719 L 53.449219 432.300781 L 53.511719 432.074219 L 53.558594 431.835938 L 53.59375 431.585938 L 53.613281 431.320313 L 53.621094 431.042969 L 53.613281 430.769531 L 53.597656 430.515625 L 53.566406 430.273438 L 53.523438 430.046875 L 53.46875 429.839844 L 53.398438 429.644531 L 53.320313 429.464844 L 53.230469 429.304688 L 53.125 429.160156 L 53.007813 429.027344 L 52.882813 428.910156 L 52.746094 428.800781 L 52.605469 428.707031 L 52.453125 428.625 L 52.292969 428.554688 L 52.125 428.5 L 51.949219 428.453125 L 51.765625 428.421875 L 51.570313 428.40625 L 51.371094 428.398438 L 51.273438 428.398438 L 51.085938 428.40625 L 50.90625 428.421875 L 50.820313 428.429688 L 50.734375 428.441406 L 50.648438 428.457031 L 50.566406 428.472656 L 50.488281 428.488281 L 50.40625 428.507813 L 50.320313 428.53125 L 50.226563 428.554688 L 50.132813 428.582031 L 50.027344 428.613281 L 49.921875 428.648438 L 49.808594 428.683594 L 49.695313 428.722656 L 49.570313 428.765625 L 49.445313 428.8125 L 48.21875 428.8125 L 48.21875 422.621094 L 54.789063 422.621094 Z M 54.574219 423.84375 "/>
<path style=" stroke:none;fill-rule:nonzero;fill:rgb(30.196078%,30.196078%,30.196078%);fill-opacity:1;" d="M 60.621094 433.636719 L 60.625 433.503906 L 60.640625 433.378906 L 60.664063 433.257813 L 60.695313 433.136719 L 60.734375 433.023438 L 60.785156 432.914063 L 60.84375 432.808594 L 60.910156 432.707031 L 60.988281 432.613281 L 61.070313 432.519531 L 61.167969 432.429688 L 61.265625 432.351563 L 61.371094 432.28125 L 61.476563 432.21875 L 61.589844 432.167969 L 61.707031 432.125 L 61.824219 432.09375 L 61.949219 432.070313 L 62.074219 432.058594 L 62.207031 432.050781 L 62.339844 432.058594 L 62.46875 432.070313 L 62.59375 432.09375 L 62.714844 432.125 L 62.832031 432.167969 L 62.941406 432.21875 L 63.050781 432.28125 L 63.152344 432.351563 L 63.246094 432.429688 L 63.339844 432.519531 L 63.425781 432.613281 L 63.503906 432.707031 L 63.570313 432.808594 L 63.628906 432.914063 L 63.679688 433.023438 L 63.71875 433.136719 L 63.75 433.257813 L 63.773438 433.378906 L 63.785156 433.503906 L 63.789063 433.636719 L 63.785156 433.769531 L 63.773438 433.898438 L 63.75 434.027344 L 63.71875 434.144531 L 63.679688 434.261719 L 63.628906 434.371094 L 63.570313 434.480469 L 63.503906 434.582031 L 63.425781 434.675781 L 63.339844 434.769531 L 63.246094 434.855469 L 63.152344 434.933594 L 63.050781 435 L 62.941406 435.058594 L 62.832031 435.109375 L 62.714844 435.148438 L 62.59375 435.179688 L 62.46875 435.203125 L 62.339844 435.214844 L 62.207031 435.21875 L 62.074219 435.214844 L 61.949219 435.203125 L 61.824219 435.179688 L 61.707031 435.148438 L 61.589844 435.109375 L 61.476563 435.058594 L 61.371094 435 L 61.265625 434.933594 L 61.167969 434.855469 L 61.070313 434.769531 L 60.988281 434.675781 L 60.910156 434.574219 L 60.84375 434.472656 L 60.785156 434.363281 L 60.734375 434.253906 L 60.695313 434.136719 L 60.664063 434.019531 L 60.640625 433.894531 L 60.625 433.765625 Z M 60.621094 433.636719 "/>
<path style=" stroke:none;fill-rule:nonzero;fill:rgb(30.196078%,30.196078%,30.196078%);fill-opacity:1;" d="M 73.023438 422.421875 L 73.410156 422.4375 L 73.777344 422.488281 L 74.125 422.570313 L 74.457031 422.6875 L 74.765625 422.835938 L 75.058594 423.019531 L 75.328125 423.234375 L 75.582031 423.480469 L 75.816406 423.761719 L 76.03125 424.078125 L 76.230469 424.421875 L 76.40625 424.792969 L 76.5625 425.191406 L 76.699219 425.621094 L 76.8125 426.082031 L 76.90625 426.570313 L 76.980469 427.085938 L 77.03125 427.632813 L 77.0625 428.207031 L 77.074219 428.8125 L 77.0625 429.421875 L 77.03125 430 L 76.980469 430.550781 L 76.90625 431.070313 L 76.8125 431.5625 L 76.699219 432.023438 L 76.5625 432.457031 L 76.40625 432.863281 L 76.230469 433.234375 L 76.03125 433.582031 L 75.816406 433.894531 L 75.582031 434.171875 L 75.328125 434.417969 L 75.058594 434.628906 L 74.765625 434.8125 L 74.457031 434.957031 L 74.125 435.074219 L 73.777344 435.15625 L 73.410156 435.203125 L 73.023438 435.21875 L 72.636719 435.203125 L 72.269531 435.15625 L 71.921875 435.074219 L 71.589844 434.957031 L 71.277344 434.8125 L 70.984375 434.628906 L 70.710938 434.417969 L 70.457031 434.171875 L 70.21875 433.894531 L 70 433.582031 L 69.804688 433.234375 L 69.632813 432.863281 L 69.476563 432.457031 L 69.34375 432.023438 L 69.230469 431.5625 L 69.136719 431.070313 L 69.066406 430.550781 L 69.015625 430 L 68.984375 429.421875 L 68.972656 428.8125 L 68.984375 428.207031 L 69.015625 427.632813 L 69.066406 427.085938 L 69.136719 426.570313 L 69.230469 426.082031 L 69.34375 425.621094 L 69.476563 425.191406 L 69.632813 424.792969 L 69.804688 424.421875 L 70 424.078125 L 70.21875 423.761719 L 70.457031 423.480469 L 70.710938 423.234375 L 70.984375 423.019531 L 71.277344 422.835938 L 71.589844 422.6875 L 71.921875 422.570313 L 72.269531 422.488281 L 72.636719 422.4375 Z M 73.023438 423.644531 L 72.554688 423.699219 L 72.136719 423.851563 L 71.765625 424.109375 L 71.445313 424.472656 L 71.175781 424.9375 L 70.953125 425.503906 L 70.78125 426.175781 L 70.65625 426.953125 L 70.582031 427.832031 L 70.558594 428.8125 L 70.582031 429.796875 L 70.65625 430.679688 L 70.78125 431.457031 L 70.953125 432.128906 L 71.175781 432.699219 L 71.445313 433.167969 L 71.765625 433.53125 L 72.136719 433.789063 L 72.554688 433.945313 L 73.023438 433.996094 L 73.492188 433.945313 L 73.910156 433.789063 L 74.28125 433.53125 L 74.601563 433.167969 L 74.875 432.699219 L 75.09375 432.128906 L 75.269531 431.457031 L 75.390625 430.679688 L 75.464844 429.796875 L 75.492188 428.8125 L 75.464844 427.832031 L 75.390625 426.953125 L 75.269531 426.175781 L 75.09375 425.503906 L 74.875 424.9375 L 74.601563 424.472656 L 74.28125 424.109375 L 73.910156 423.851563 L 73.492188 423.699219 Z M 73.023438 427.640625 L 73.125 427.644531 L 73.21875 427.65625 L 73.3125 427.671875 L 73.402344 427.695313 L 73.488281 427.726563 L 73.570313 427.765625 L 73.652344 427.808594 L 73.726563 427.859375 L 73.800781 427.917969 L 73.871094 427.984375 L 73.933594 428.054688 L 73.992188 428.125 L 74.042969 428.203125 L 74.089844 428.28125 L 74.125 428.363281 L 74.15625 428.445313 L 74.179688 428.535156 L 74.199219 428.625 L 74.207031 428.714844 L 74.210938 428.8125 L 74.207031 428.910156 L 74.199219 429.007813 L 74.179688 429.101563 L 74.15625 429.1875 L 74.125 429.277344 L 74.089844 429.359375 L 74.042969 429.4375 L 73.992188 429.515625 L 73.933594 429.589844 L 73.871094 429.65625 L 73.800781 429.722656 L 73.726563 429.78125 L 73.652344 429.832031 L 73.570313 429.875 L 73.488281 429.914063 L 73.402344 429.945313 L 73.3125 429.96875 L 73.21875 429.988281 L 73.125 429.996094 L 73.023438 430 L 72.925781 429.996094 L 72.828125 429.988281 L 72.738281 429.96875 L 72.648438 429.945313 L 72.5625 429.914063 L 72.476563 429.875 L 72.398438 429.832031 L 72.320313 429.78125 L 72.25 429.722656 L 72.179688 429.65625 L 72.117188 429.589844 L 72.0625 429.515625 L 72.011719 429.4375 L 71.972656 429.359375 L 71.933594 429.277344 L 71.90625 429.1875 L 71.882813 429.101563 L 71.867188 429.007813 L 71.859375 428.910156 L 71.855469 428.8125 L 71.859375 428.714844 L 71.867188 428.625 L 71.882813 428.535156 L 71.90625 428.445313 L 71.933594 428.363281 L 71.972656 428.28125 L 72.011719 428.203125 L 72.0625 428.125 L 72.117188 428.054688 L 72.179688 427.984375 L 72.25 427.917969 L 72.320313 427.859375 L 72.398438 427.808594 L 72.476563 427.765625 L 72.5625 427.726563 L 72.648438 427.695313 L 72.738281 427.671875 L 72.828125 427.65625 L 72.925781 427.644531 Z M 73.023438 427.640625 "/>
<path style=" stroke:none;fill-rule:nonzero;fill:rgb(30.196078%,30.196078%,30.196078%);fill-opacity:1;" d="M 137.195313 428.738281 L 143.496094 428.738281 L 143.496094 430.035156 L 137.195313 430.035156 Z M 137.195313 428.738281 "/>
<path style=" stroke:none;fill-rule:nonzero;fill:rgb(30.196078%,30.196078%,30.196078%);fill-opacity:1;" d="M 150.585938 422.421875 L 150.8125 422.425781 L 151.03125 422.441406 L 151.242188 422.460938 L 151.449219 422.492188 L 151.648438 422.535156 L 151.84375 422.585938 L 152.035156 422.640625 L 152.21875 422.710938 L 152.394531 422.785156 L 152.566406 422.871094 L 152.734375 422.964844 L 152.898438 423.066406 L 153.046875 423.171875 L 153.191406 423.285156 L 153.328125 423.40625 L 153.457031 423.535156 L 153.574219 423.667969 L 153.683594 423.8125 L 153.789063 423.960938 L 153.882813 424.113281 L 153.96875 424.269531 L 154.042969 424.433594 L 154.109375 424.597656 L 154.167969 424.769531 L 154.21875 424.941406 L 154.257813 425.121094 L 154.292969 425.304688 L 154.3125 425.492188 L 154.328125 425.683594 L 154.332031 425.878906 L 154.324219 426.109375 L 154.308594 426.335938 L 154.28125 426.5625 L 154.246094 426.789063 L 154.195313 427.011719 L 154.136719 427.234375 L 154.066406 427.457031 L 153.984375 427.675781 L 153.894531 427.894531 L 153.792969 428.109375 L 153.679688 428.328125 L 153.558594 428.550781 L 153.421875 428.777344 L 153.269531 429.007813 L 153.109375 429.242188 L 152.933594 429.484375 L 152.742188 429.726563 L 152.542969 429.976563 L 152.328125 430.230469 L 152.097656 430.484375 L 151.855469 430.75 L 151.59375 431.023438 L 151.308594 431.3125 L 151.007813 431.617188 L 150.6875 431.933594 L 150.34375 432.265625 L 149.984375 432.609375 L 149.605469 432.96875 L 149.207031 433.339844 L 148.789063 433.726563 L 154.621094 433.726563 L 154.441406 435.023438 L 147.058594 435.023438 L 147.058594 433.796875 L 147.53125 433.34375 L 147.980469 432.910156 L 148.402344 432.496094 L 148.800781 432.101563 L 149.175781 431.726563 L 149.523438 431.375 L 149.84375 431.042969 L 150.140625 430.726563 L 150.414063 430.433594 L 150.660156 430.160156 L 150.890625 429.902344 L 151.105469 429.652344 L 151.304688 429.40625 L 151.492188 429.171875 L 151.664063 428.941406 L 151.820313 428.722656 L 151.960938 428.507813 L 152.089844 428.300781 L 152.199219 428.101563 L 152.296875 427.910156 L 152.382813 427.722656 L 152.460938 427.535156 L 152.527344 427.339844 L 152.585938 427.144531 L 152.636719 426.949219 L 152.675781 426.75 L 152.707031 426.546875 L 152.730469 426.34375 L 152.742188 426.140625 L 152.746094 425.933594 L 152.742188 425.726563 L 152.722656 425.53125 L 152.695313 425.347656 L 152.652344 425.167969 L 152.597656 425 L 152.535156 424.839844 L 152.457031 424.691406 L 152.367188 424.550781 L 152.265625 424.417969 L 152.152344 424.292969 L 152.03125 424.179688 L 151.898438 424.082031 L 151.757813 423.992188 L 151.605469 423.914063 L 151.445313 423.847656 L 151.277344 423.796875 L 151.101563 423.753906 L 150.914063 423.722656 L 150.71875 423.707031 L 150.515625 423.699219 L 150.34375 423.703125 L 150.175781 423.710938 L 150.011719 423.726563 L 149.855469 423.75 L 149.707031 423.777344 L 149.5625 423.808594 L 149.421875 423.851563 L 149.289063 423.894531 L 149.160156 423.949219 L 149.039063 424.007813 L 148.925781 424.066406 L 148.808594 424.136719 L 148.691406 424.21875 L 148.574219 424.304688 L 148.453125 424.402344 L 148.335938 424.507813 L 148.214844 424.621094 L 148.09375 424.742188 L 147.972656 424.875 L 147.851563 425.015625 L 146.808594 424.203125 L 146.957031 424.023438 L 147.109375 423.855469 L 147.265625 423.695313 L 147.425781 423.546875 L 147.585938 423.40625 L 147.75 423.277344 L 147.921875 423.15625 L 148.09375 423.046875 L 148.265625 422.945313 L 148.445313 422.855469 L 148.632813 422.773438 L 148.824219 422.699219 L 149.023438 422.632813 L 149.230469 422.578125 L 149.441406 422.53125 L 149.65625 422.492188 L 149.878906 422.460938 L 150.109375 422.4375 L 150.347656 422.425781 Z M 150.585938 422.421875 "/>
<path style=" stroke:none;fill-rule:nonzero;fill:rgb(30.196078%,30.196078%,30.196078%);fill-opacity:1;" d="M 160.34375 433.636719 L 160.347656 433.503906 L 160.363281 433.378906 L 160.382813 433.257813 L 160.414063 433.136719 L 160.457031 433.023438 L 160.503906 432.914063 L 160.5625 432.808594 L 160.632813 432.707031 L 160.707031 432.613281 L 160.792969 432.519531 L 160.890625 432.429688 L 160.988281 432.351563 L 161.09375 432.28125 L 161.199219 432.21875 L 161.3125 432.167969 L 161.425781 432.125 L 161.546875 432.09375 L 161.667969 432.070313 L 161.796875 432.058594 L 161.925781 432.050781 L 162.0625 432.058594 L 162.191406 432.070313 L 162.316406 432.09375 L 162.4375 432.125 L 162.554688 432.167969 L 162.664063 432.21875 L 162.769531 432.28125 L 162.871094 432.351563 L 162.96875 432.429688 L 163.0625 432.519531 L 163.148438 432.613281 L 163.222656 432.707031 L 163.292969 432.808594 L 163.347656 432.914063 L 163.398438 433.023438 L 163.441406 433.136719 L 163.472656 433.257813 L 163.492188 433.378906 L 163.507813 433.503906 L 163.511719 433.636719 L 163.507813 433.769531 L 163.492188 433.898438 L 163.472656 434.027344 L 163.441406 434.144531 L 163.398438 434.261719 L 163.347656 434.371094 L 163.292969 434.480469 L 163.222656 434.582031 L 163.148438 434.675781 L 163.0625 434.769531 L 162.96875 434.855469 L 162.871094 434.933594 L 162.769531 435 L 162.664063 435.058594 L 162.554688 435.109375 L 162.4375 435.148438 L 162.316406 435.179688 L 162.191406 435.203125 L 162.0625 435.214844 L 161.925781 435.21875 L 161.796875 435.214844 L 161.667969 435.203125 L 161.546875 435.179688 L 161.425781 435.148438 L 161.3125 435.109375 L 161.199219 435.058594 L 161.09375 435 L 160.988281 434.933594 L 160.890625 434.855469 L 160.792969 434.769531 L 160.707031 434.675781 L 160.632813 434.574219 L 160.5625 434.472656 L 160.503906 434.363281 L 160.457031 434.253906 L 160.414063 434.136719 L 160.382813 434.019531 L 160.363281 433.894531 L 160.347656 433.765625 Z M 160.34375 433.636719 "/>
<path style=" stroke:none;fill-rule:nonzero;fill:rgb(30.196078%,30.196078%,30.196078%);fill-opacity:1;" d="M 175.894531 423.84375 L 171 423.84375 L 171 427.75 L 171.105469 427.691406 L 171.207031 427.636719 L 171.3125 427.585938 L 171.414063 427.535156 L 171.515625 427.492188 L 171.621094 427.453125 L 171.722656 427.417969 L 171.824219 427.386719 L 171.925781 427.359375 L 172.128906 427.3125 L 172.238281 427.289063 L 172.34375 427.273438 L 172.453125 427.253906 L 172.671875 427.230469 L 172.78125 427.222656 L 172.894531 427.214844 L 173.007813 427.210938 L 173.125 427.210938 L 173.425781 427.21875 L 173.71875 427.25 L 173.996094 427.300781 L 174.261719 427.375 L 174.515625 427.464844 L 174.753906 427.578125 L 174.980469 427.710938 L 175.195313 427.867188 L 175.398438 428.042969 L 175.589844 428.234375 L 175.765625 428.449219 L 175.925781 428.679688 L 176.066406 428.925781 L 176.1875 429.1875 L 176.292969 429.464844 L 176.375 429.757813 L 176.441406 430.070313 L 176.488281 430.394531 L 176.515625 430.738281 L 176.527344 431.097656 L 176.519531 431.339844 L 176.503906 431.574219 L 176.480469 431.804688 L 176.441406 432.03125 L 176.394531 432.25 L 176.335938 432.464844 L 176.269531 432.671875 L 176.191406 432.871094 L 176.101563 433.066406 L 176.003906 433.257813 L 175.898438 433.441406 L 175.785156 433.617188 L 175.660156 433.78125 L 175.527344 433.941406 L 175.386719 434.089844 L 175.238281 434.230469 L 175.078125 434.367188 L 174.910156 434.492188 L 174.730469 434.609375 L 174.546875 434.714844 L 174.351563 434.8125 L 174.152344 434.898438 L 173.945313 434.972656 L 173.734375 435.039063 L 173.515625 435.09375 L 173.289063 435.140625 L 173.058594 435.175781 L 172.824219 435.199219 L 172.582031 435.214844 L 172.332031 435.21875 L 171.921875 435.207031 L 171.523438 435.160156 L 171.136719 435.085938 L 170.761719 434.984375 L 170.398438 434.851563 L 170.042969 434.6875 L 169.699219 434.496094 L 169.363281 434.277344 L 169.042969 434.023438 L 168.730469 433.742188 L 169.667969 432.824219 L 169.898438 433.046875 L 170.136719 433.242188 L 170.382813 433.414063 L 170.636719 433.5625 L 170.902344 433.691406 L 171.171875 433.792969 L 171.449219 433.875 L 171.734375 433.933594 L 172.03125 433.964844 L 172.332031 433.976563 L 172.574219 433.96875 L 172.804688 433.949219 L 173.027344 433.910156 L 173.234375 433.855469 L 173.433594 433.789063 L 173.621094 433.707031 L 173.796875 433.609375 L 173.960938 433.496094 L 174.113281 433.367188 L 174.257813 433.222656 L 174.386719 433.0625 L 174.503906 432.894531 L 174.605469 432.707031 L 174.695313 432.511719 L 174.769531 432.300781 L 174.832031 432.074219 L 174.878906 431.835938 L 174.914063 431.585938 L 174.933594 431.320313 L 174.941406 431.042969 L 174.933594 430.769531 L 174.917969 430.515625 L 174.886719 430.273438 L 174.84375 430.046875 L 174.789063 429.839844 L 174.722656 429.644531 L 174.640625 429.464844 L 174.550781 429.304688 L 174.445313 429.160156 L 174.328125 429.027344 L 174.203125 428.910156 L 174.066406 428.800781 L 173.925781 428.707031 L 173.773438 428.625 L 173.613281 428.554688 L 173.445313 428.5 L 173.269531 428.453125 L 173.085938 428.421875 L 172.890625 428.40625 L 172.691406 428.398438 L 172.59375 428.398438 L 172.40625 428.40625 L 172.226563 428.421875 L 172.140625 428.429688 L 172.054688 428.441406 L 171.808594 428.488281 L 171.726563 428.507813 L 171.640625 428.53125 L 171.550781 428.554688 L 171.453125 428.582031 L 171.351563 428.613281 L 171.132813 428.683594 L 171.015625 428.722656 L 170.894531 428.765625 L 170.765625 428.8125 L 169.542969 428.8125 L 169.542969 422.621094 L 176.113281 422.621094 Z M 175.894531 423.84375 "/>
<path style=" stroke:none;fill-rule:nonzero;fill:rgb(30.196078%,30.196078%,30.196078%);fill-opacity:1;" d="M 245.464844 422.421875 L 245.851563 422.4375 L 246.21875 422.488281 L 246.570313 422.570313 L 246.898438 422.6875 L 247.207031 422.835938 L 247.5 423.019531 L 247.769531 423.234375 L 248.023438 423.480469 L 248.257813 423.761719 L 248.472656 424.078125 L 248.671875 424.421875 L 248.847656 424.792969 L 249.003906 425.191406 L 249.140625 425.621094 L 249.253906 426.082031 L 249.351563 426.570313 L 249.421875 427.085938 L 249.476563 427.632813 L 249.507813 428.207031 L 249.515625 428.8125 L 249.507813 429.421875 L 249.476563 430 L 249.421875 430.550781 L 249.351563 431.070313 L 249.253906 431.5625 L 249.140625 432.023438 L 249.003906 432.457031 L 248.847656 432.863281 L 248.671875 433.234375 L 248.472656 433.582031 L 248.257813 433.894531 L 248.023438 434.171875 L 247.769531 434.417969 L 247.5 434.628906 L 247.207031 434.8125 L 246.898438 434.957031 L 246.570313 435.074219 L 246.21875 435.15625 L 245.851563 435.203125 L 245.464844 435.21875 L 245.082031 435.203125 L 244.710938 435.15625 L 244.363281 435.074219 L 244.03125 434.957031 L 243.722656 434.8125 L 243.429688 434.628906 L 243.152344 434.417969 L 242.898438 434.171875 L 242.660156 433.894531 L 242.441406 433.582031 L 242.246094 433.234375 L 242.074219 432.863281 L 241.917969 432.457031 L 241.785156 432.023438 L 241.671875 431.5625 L 241.582031 431.070313 L 241.507813 430.550781 L 241.457031 430 L 241.425781 429.421875 L 241.417969 428.8125 L 241.425781 428.207031 L 241.457031 427.632813 L 241.507813 427.085938 L 241.582031 426.570313 L 241.671875 426.082031 L 241.785156 425.621094 L 241.917969 425.191406 L 242.074219 424.792969 L 242.246094 424.421875 L 242.441406 424.078125 L 242.660156 423.761719 L 242.898438 423.480469 L 243.152344 423.234375 L 243.429688 423.019531 L 243.722656 422.835938 L 244.03125 422.6875 L 244.363281 422.570313 L 244.710938 422.488281 L 245.082031 422.4375 Z M 245.464844 423.644531 L 245 423.699219 L 244.578125 423.851563 L 244.210938 424.109375 L 243.886719 424.472656 L 243.617188 424.9375 L 243.394531 425.503906 L 243.222656 426.175781 L 243.097656 426.953125 L 243.027344 427.832031 L 243 428.8125 L 243.027344 429.796875 L 243.097656 430.679688 L 243.222656 431.457031 L 243.394531 432.128906 L 243.617188 432.699219 L 243.886719 433.167969 L 244.210938 433.53125 L 244.578125 433.789063 L 245 433.945313 L 245.464844 433.996094 L 245.933594 433.945313 L 246.355469 433.789063 L 246.722656 433.53125 L 247.046875 433.167969 L 247.316406 432.699219 L 247.539063 432.128906 L 247.710938 431.457031 L 247.835938 430.679688 L 247.90625 429.796875 L 247.933594 428.8125 L 247.90625 427.832031 L 247.835938 426.953125 L 247.710938 426.175781 L 247.539063 425.503906 L 247.316406 424.9375 L 247.046875 424.472656 L 246.722656 424.109375 L 246.355469 423.851563 L 245.933594 423.699219 Z M 245.464844 427.640625 L 245.566406 427.644531 L 245.660156 427.65625 L 245.753906 427.671875 L 245.84375 427.695313 L 245.929688 427.726563 L 246.011719 427.765625 L 246.09375 427.808594 L 246.167969 427.859375 L 246.242188 427.917969 L 246.3125 427.984375 L 246.378906 428.054688 L 246.4375 428.125 L 246.488281 428.203125 L 246.53125 428.28125 L 246.570313 428.363281 L 246.601563 428.445313 L 246.625 428.535156 L 246.640625 428.625 L 246.652344 428.714844 L 246.65625 428.8125 L 246.652344 428.910156 L 246.640625 429.007813 L 246.625 429.101563 L 246.601563 429.1875 L 246.570313 429.277344 L 246.53125 429.359375 L 246.488281 429.4375 L 246.4375 429.515625 L 246.378906 429.589844 L 246.3125 429.65625 L 246.242188 429.722656 L 246.167969 429.78125 L 246.09375 429.832031 L 246.011719 429.875 L 245.929688 429.914063 L 245.84375 429.945313 L 245.753906 429.96875 L 245.660156 429.988281 L 245.566406 429.996094 L 245.464844 430 L 245.367188 429.996094 L 245.273438 429.988281 L 245.179688 429.96875 L 245.089844 429.945313 L 245.003906 429.914063 L 244.921875 429.875 L 244.839844 429.832031 L 244.765625 429.78125 L 244.691406 429.722656 L 244.621094 429.65625 L 244.558594 429.589844 L 244.503906 429.515625 L 244.457031 429.4375 L 244.414063 429.359375 L 244.378906 429.277344 L 244.347656 429.1875 L 244.324219 429.101563 L 244.308594 429.007813 L 244.300781 428.910156 L 244.296875 428.8125 L 244.300781 428.714844 L 244.308594 428.625 L 244.324219 428.535156 L 244.347656 428.445313 L 244.378906 428.363281 L 244.414063 428.28125 L 244.457031 428.203125 L 244.503906 428.125 L 244.558594 428.054688 L 244.621094 427.984375 L 244.691406 427.917969 L 244.765625 427.859375 L 244.839844 427.808594 L 244.921875 427.765625 L 245.003906 427.726563 L 245.089844 427.695313 L 245.179688 427.671875 L 245.273438 427.65625 L 245.367188 427.644531 Z M 245.464844 427.640625 "/>
<path style=" stroke:none;fill-rule:nonzero;fill:rgb(30.196078%,30.196078%,30.196078%);fill-opacity:1;" d="M 254.664063 433.636719 L 254.667969 433.503906 L 254.683594 433.378906 L 254.707031 433.257813 L 254.738281 433.136719 L 254.777344 433.023438 L 254.828125 432.914063 L 254.886719 432.808594 L 254.953125 432.707031 L 255.027344 432.613281 L 255.113281 432.519531 L 255.210938 432.429688 L 255.308594 432.351563 L 255.414063 432.28125 L 255.519531 432.21875 L 255.632813 432.167969 L 255.746094 432.125 L 255.867188 432.09375 L 255.992188 432.070313 L 256.117188 432.058594 L 256.25 432.050781 L 256.382813 432.058594 L 256.511719 432.070313 L 256.636719 432.09375 L 256.757813 432.125 L 256.875 432.167969 L 256.984375 432.21875 L 257.089844 432.28125 L 257.195313 432.351563 L 257.289063 432.429688 L 257.382813 432.519531 L 257.46875 432.613281 L 257.542969 432.707031 L 257.613281 432.808594 L 257.671875 432.914063 L 257.71875 433.023438 L 257.761719 433.136719 L 257.792969 433.257813 L 257.816406 433.378906 L 257.828125 433.503906 L 257.832031 433.636719 L 257.828125 433.769531 L 257.816406 433.898438 L 257.792969 434.027344 L 257.761719 434.144531 L 257.71875 434.261719 L 257.671875 434.371094 L 257.613281 434.480469 L 257.542969 434.582031 L 257.46875 434.675781 L 257.382813 434.769531 L 257.289063 434.855469 L 257.195313 434.933594 L 257.089844 435 L 256.984375 435.058594 L 256.875 435.109375 L 256.757813 435.148438 L 256.636719 435.179688 L 256.511719 435.203125 L 256.382813 435.214844 L 256.25 435.21875 L 256.117188 435.214844 L 255.992188 435.203125 L 255.867188 435.179688 L 255.746094 435.148438 L 255.632813 435.109375 L 255.519531 435.058594 L 255.414063 435 L 255.308594 434.933594 L 255.210938 434.855469 L 255.113281 434.769531 L 255.027344 434.675781 L 254.953125 434.574219 L 254.886719 434.472656 L 254.828125 434.363281 L 254.777344 434.253906 L 254.738281 434.136719 L 254.707031 434.019531 L 254.683594 433.894531 L 254.667969 433.765625 Z M 254.664063 433.636719 "/>
<path style=" stroke:none;fill-rule:nonzero;fill:rgb(30.196078%,30.196078%,30.196078%);fill-opacity:1;" d="M 267.066406 422.421875 L 267.453125 422.4375 L 267.820313 422.488281 L 268.167969 422.570313 L 268.5 422.6875 L 268.808594 422.835938 L 269.097656 423.019531 L 269.371094 423.234375 L 269.625 423.480469 L 269.859375 423.761719 L 270.074219 424.078125 L 270.269531 424.421875 L 270.449219 424.792969 L 270.605469 425.191406 L 270.742188 425.621094 L 270.855469 426.082031 L 270.949219 426.570313 L 271.023438 427.085938 L 271.074219 427.632813 L 271.105469 428.207031 L 271.117188 428.8125 L 271.105469 429.421875 L 271.074219 430 L 271.023438 430.550781 L 270.949219 431.070313 L 270.855469 431.5625 L 270.742188 432.023438 L 270.605469 432.457031 L 270.449219 432.863281 L 270.269531 433.234375 L 270.074219 433.582031 L 269.859375 433.894531 L 269.625 434.171875 L 269.371094 434.417969 L 269.097656 434.628906 L 268.808594 434.8125 L 268.5 434.957031 L 268.167969 435.074219 L 267.820313 435.15625 L 267.453125 435.203125 L 267.066406 435.21875 L 266.679688 435.203125 L 266.3125 435.15625 L 265.964844 435.074219 L 265.632813 434.957031 L 265.320313 434.8125 L 265.027344 434.628906 L 264.753906 434.417969 L 264.496094 434.171875 L 264.261719 433.894531 L 264.042969 433.582031 L 263.847656 433.234375 L 263.671875 432.863281 L 263.519531 432.457031 L 263.386719 432.023438 L 263.273438 431.5625 L 263.179688 431.070313 L 263.109375 430.550781 L 263.058594 430 L 263.027344 429.421875 L 263.015625 428.8125 L 263.027344 428.207031 L 263.058594 427.632813 L 263.109375 427.085938 L 263.179688 426.570313 L 263.273438 426.082031 L 263.386719 425.621094 L 263.519531 425.191406 L 263.671875 424.792969 L 263.847656 424.421875 L 264.042969 424.078125 L 264.261719 423.761719 L 264.496094 423.480469 L 264.753906 423.234375 L 265.027344 423.019531 L 265.320313 422.835938 L 265.632813 422.6875 L 265.964844 422.570313 L 266.3125 422.488281 L 266.679688 422.4375 Z M 267.066406 423.644531 L 266.597656 423.699219 L 266.179688 423.851563 L 265.808594 424.109375 L 265.488281 424.472656 L 265.21875 424.9375 L 264.996094 425.503906 L 264.824219 426.175781 L 264.699219 426.953125 L 264.625 427.832031 L 264.601563 428.8125 L 264.625 429.796875 L 264.699219 430.679688 L 264.824219 431.457031 L 264.996094 432.128906 L 265.21875 432.699219 L 265.488281 433.167969 L 265.808594 433.53125 L 266.179688 433.789063 L 266.597656 433.945313 L 267.066406 433.996094 L 267.535156 433.945313 L 267.953125 433.789063 L 268.324219 433.53125 L 268.644531 433.167969 L 268.917969 432.699219 L 269.136719 432.128906 L 269.3125 431.457031 L 269.433594 430.679688 L 269.507813 429.796875 L 269.53125 428.8125 L 269.507813 427.832031 L 269.433594 426.953125 L 269.3125 426.175781 L 269.136719 425.503906 L 268.917969 424.9375 L 268.644531 424.472656 L 268.324219 424.109375 L 267.953125 423.851563 L 267.535156 423.699219 Z M 267.066406 427.640625 L 267.164063 427.644531 L 267.261719 427.65625 L 267.355469 427.671875 L 267.445313 427.695313 L 267.53125 427.726563 L 267.613281 427.765625 L 267.691406 427.808594 L 267.769531 427.859375 L 267.84375 427.917969 L 267.914063 427.984375 L 267.976563 428.054688 L 268.035156 428.125 L 268.085938 428.203125 L 268.132813 428.28125 L 268.167969 428.363281 L 268.199219 428.445313 L 268.222656 428.535156 L 268.242188 428.625 L 268.25 428.714844 L 268.253906 428.8125 L 268.25 428.910156 L 268.242188 429.007813 L 268.222656 429.101563 L 268.199219 429.1875 L 268.167969 429.277344 L 268.132813 429.359375 L 268.085938 429.4375 L 268.035156 429.515625 L 267.976563 429.589844 L 267.914063 429.65625 L 267.84375 429.722656 L 267.769531 429.78125 L 267.691406 429.832031 L 267.613281 429.875 L 267.53125 429.914063 L 267.445313 429.945313 L 267.355469 429.96875 L 267.261719 429.988281 L 267.164063 429.996094 L 267.066406 430 L 266.96875 429.996094 L 266.871094 429.988281 L 266.777344 429.96875 L 266.691406 429.945313 L 266.601563 429.914063 L 266.519531 429.875 L 266.441406 429.832031 L 266.363281 429.78125 L 266.289063 429.722656 L 266.222656 429.65625 L 266.160156 429.589844 L 266.105469 429.515625 L 266.054688 429.4375 L 266.011719 429.359375 L 265.976563 429.277344 L 265.949219 429.1875 L 265.925781 429.101563 L 265.910156 429.007813 L 265.898438 428.910156 L 265.898438 428.714844 L 265.910156 428.625 L 265.925781 428.535156 L 265.949219 428.445313 L 265.976563 428.363281 L 266.011719 428.28125 L 266.054688 428.203125 L 266.105469 428.125 L 266.160156 428.054688 L 266.222656 427.984375 L 266.289063 427.917969 L 266.363281 427.859375 L 266.441406 427.808594 L 266.519531 427.765625 L 266.601563 427.726563 L 266.691406 427.695313 L 266.777344 427.671875 L 266.871094 427.65625 L 266.96875 427.644531 Z M 267.066406 427.640625 "/>
<path style=" stroke:none;fill-rule:nonzero;fill:rgb(30.196078%,30.196078%,30.196078%);fill-opacity:1;" d="M 344.628906 422.421875 L 344.855469 422.425781 L 345.070313 422.441406 L 345.285156 422.460938 L 345.492188 422.492188 L 345.691406 422.535156 L 345.886719 422.585938 L 346.078125 422.640625 L 346.261719 422.710938 L 346.4375 422.785156 L 346.609375 422.871094 L 346.777344 422.964844 L 346.9375 423.066406 L 347.089844 423.171875 L 347.234375 423.285156 L 347.371094 423.40625 L 347.496094 423.535156 L 347.617188 423.667969 L 347.726563 423.8125 L 347.828125 423.960938 L 347.925781 424.113281 L 348.007813 424.269531 L 348.085938 424.433594 L 348.152344 424.597656 L 348.210938 424.769531 L 348.261719 424.941406 L 348.300781 425.121094 L 348.332031 425.304688 L 348.355469 425.492188 L 348.371094 425.683594 L 348.375 425.878906 L 348.367188 426.109375 L 348.351563 426.335938 L 348.324219 426.5625 L 348.289063 426.789063 L 348.238281 427.011719 L 348.179688 427.234375 L 348.109375 427.457031 L 348.027344 427.675781 L 347.9375 427.894531 L 347.835938 428.109375 L 347.722656 428.328125 L 347.597656 428.550781 L 347.460938 428.777344 L 347.3125 429.007813 L 347.148438 429.242188 L 346.972656 429.484375 L 346.785156 429.726563 L 346.585938 429.976563 L 346.371094 430.230469 L 346.140625 430.484375 L 345.898438 430.75 L 345.636719 431.023438 L 345.351563 431.3125 L 345.050781 431.617188 L 344.730469 431.933594 L 344.386719 432.265625 L 344.027344 432.609375 L 343.648438 432.96875 L 343.25 433.339844 L 342.828125 433.726563 L 348.660156 433.726563 L 348.480469 435.023438 L 341.101563 435.023438 L 341.101563 433.796875 L 341.574219 433.34375 L 342.023438 432.910156 L 342.445313 432.496094 L 342.84375 432.101563 L 343.21875 431.726563 L 343.5625 431.375 L 343.886719 431.042969 L 344.183594 430.726563 L 344.457031 430.433594 L 344.703125 430.160156 L 344.933594 429.902344 L 345.148438 429.652344 L 345.347656 429.40625 L 345.535156 429.171875 L 345.707031 428.941406 L 345.863281 428.722656 L 346.003906 428.507813 L 346.128906 428.300781 L 346.242188 428.101563 L 346.339844 427.910156 L 346.425781 427.722656 L 346.503906 427.535156 L 346.570313 427.339844 L 346.628906 427.144531 L 346.675781 426.949219 L 346.71875 426.75 L 346.75 426.546875 L 346.773438 426.34375 L 346.785156 426.140625 L 346.789063 425.933594 L 346.785156 425.726563 L 346.765625 425.53125 L 346.738281 425.347656 L 346.695313 425.167969 L 346.640625 425 L 346.578125 424.839844 L 346.5 424.691406 L 346.410156 424.550781 L 346.308594 424.417969 L 346.195313 424.292969 L 346.074219 424.179688 L 345.941406 424.082031 L 345.800781 423.992188 L 345.648438 423.914063 L 345.488281 423.847656 L 345.320313 423.796875 L 345.144531 423.753906 L 344.957031 423.722656 L 344.761719 423.707031 L 344.558594 423.699219 L 344.382813 423.703125 L 344.214844 423.710938 L 344.054688 423.726563 L 343.898438 423.75 L 343.746094 423.777344 L 343.601563 423.808594 L 343.464844 423.851563 L 343.332031 423.894531 L 343.203125 423.949219 L 343.082031 424.007813 L 342.964844 424.066406 L 342.851563 424.136719 L 342.734375 424.21875 L 342.617188 424.304688 L 342.496094 424.402344 L 342.378906 424.507813 L 342.257813 424.621094 L 342.136719 424.742188 L 342.015625 424.875 L 341.894531 425.015625 L 340.851563 424.203125 L 341 424.023438 L 341.152344 423.855469 L 341.308594 423.695313 L 341.464844 423.546875 L 341.628906 423.40625 L 341.792969 423.277344 L 341.960938 423.15625 L 342.132813 423.046875 L 342.308594 422.945313 L 342.488281 422.855469 L 342.675781 422.773438 L 342.867188 422.699219 L 343.066406 422.632813 L 343.269531 422.578125 L 343.484375 422.53125 L 343.699219 422.492188 L 343.921875 422.460938 L 344.152344 422.4375 L 344.386719 422.425781 Z M 344.628906 422.421875 "/>
<path style=" stroke:none;fill-rule:nonzero;fill:rgb(30.196078%,30.196078%,30.196078%);fill-opacity:1;" d="M 354.386719 433.636719 L 354.390625 433.503906 L 354.402344 433.378906 L 354.425781 433.257813 L 354.457031 433.136719 L 354.5 433.023438 L 354.546875 432.914063 L 354.605469 432.808594 L 354.675781 432.707031 L 354.75 432.613281 L 354.835938 432.519531 L 354.929688 432.429688 L 355.03125 432.351563 L 355.132813 432.28125 L 355.242188 432.21875 L 355.355469 432.167969 L 355.46875 432.125 L 355.589844 432.09375 L 355.710938 432.070313 L 355.839844 432.058594 L 355.96875 432.050781 L 356.105469 432.058594 L 356.234375 432.070313 L 356.359375 432.09375 L 356.480469 432.125 L 356.59375 432.167969 L 356.707031 432.21875 L 356.8125 432.28125 L 356.914063 432.351563 L 357.011719 432.429688 L 357.105469 432.519531 L 357.191406 432.613281 L 357.265625 432.707031 L 357.332031 432.808594 L 357.390625 432.914063 L 357.441406 433.023438 L 357.480469 433.136719 L 357.511719 433.257813 L 357.535156 433.378906 L 357.550781 433.503906 L 357.554688 433.636719 L 357.550781 433.769531 L 357.535156 433.898438 L 357.511719 434.027344 L 357.480469 434.144531 L 357.441406 434.261719 L 357.390625 434.371094 L 357.332031 434.480469 L 357.265625 434.582031 L 357.191406 434.675781 L 357.105469 434.769531 L 357.011719 434.855469 L 356.914063 434.933594 L 356.8125 435 L 356.707031 435.058594 L 356.59375 435.109375 L 356.480469 435.148438 L 356.359375 435.179688 L 356.234375 435.203125 L 356.105469 435.214844 L 355.96875 435.21875 L 355.839844 435.214844 L 355.710938 435.203125 L 355.589844 435.179688 L 355.46875 435.148438 L 355.355469 435.109375 L 355.242188 435.058594 L 355.132813 435 L 355.03125 434.933594 L 354.929688 434.855469 L 354.835938 434.769531 L 354.75 434.675781 L 354.675781 434.574219 L 354.605469 434.472656 L 354.546875 434.363281 L 354.5 434.253906 L 354.457031 434.136719 L 354.425781 434.019531 L 354.402344 433.894531 L 354.390625 433.765625 Z M 354.386719 433.636719 "/>
<path style=" stroke:none;fill-rule:nonzero;fill:rgb(30.196078%,30.196078%,30.196078%);fill-opacity:1;" d="M 369.9375 423.84375 L 365.042969 423.84375 L 365.042969 427.75 L 365.144531 427.691406 L 365.25 427.636719 L 365.355469 427.585938 L 365.457031 427.535156 L 365.558594 427.492188 L 365.660156 427.453125 L 365.765625 427.417969 L 365.867188 427.386719 L 365.96875 427.359375 L 366.066406 427.335938 L 366.277344 427.289063 L 366.386719 427.273438 L 366.496094 427.253906 L 366.714844 427.230469 L 366.824219 427.222656 L 366.9375 427.214844 L 367.050781 427.210938 L 367.167969 427.210938 L 367.46875 427.21875 L 367.761719 427.25 L 368.039063 427.300781 L 368.304688 427.375 L 368.554688 427.464844 L 368.796875 427.578125 L 369.023438 427.710938 L 369.238281 427.867188 L 369.441406 428.042969 L 369.632813 428.234375 L 369.808594 428.449219 L 369.96875 428.679688 L 370.109375 428.925781 L 370.230469 429.1875 L 370.335938 429.464844 L 370.417969 429.757813 L 370.484375 430.070313 L 370.53125 430.394531 L 370.558594 430.738281 L 370.566406 431.097656 L 370.5625 431.339844 L 370.546875 431.574219 L 370.519531 431.804688 L 370.484375 432.03125 L 370.4375 432.25 L 370.378906 432.464844 L 370.3125 432.671875 L 370.234375 432.871094 L 370.144531 433.066406 L 370.046875 433.257813 L 369.941406 433.441406 L 369.828125 433.617188 L 369.703125 433.78125 L 369.570313 433.941406 L 369.429688 434.089844 L 369.277344 434.230469 L 369.121094 434.367188 L 368.953125 434.492188 L 368.773438 434.609375 L 368.589844 434.714844 L 368.394531 434.8125 L 368.195313 434.898438 L 367.988281 434.972656 L 367.777344 435.039063 L 367.558594 435.09375 L 367.332031 435.140625 L 367.101563 435.175781 L 366.867188 435.199219 L 366.621094 435.214844 L 366.375 435.21875 L 365.964844 435.207031 L 365.566406 435.160156 L 365.179688 435.085938 L 364.804688 434.984375 L 364.4375 434.851563 L 364.085938 434.6875 L 363.742188 434.496094 L 363.40625 434.277344 L 363.085938 434.023438 L 362.773438 433.742188 L 363.710938 432.824219 L 363.941406 433.046875 L 364.179688 433.242188 L 364.425781 433.414063 L 364.679688 433.5625 L 364.941406 433.691406 L 365.214844 433.792969 L 365.492188 433.875 L 365.777344 433.933594 L 366.070313 433.964844 L 366.375 433.976563 L 366.617188 433.96875 L 366.847656 433.949219 L 367.070313 433.910156 L 367.277344 433.855469 L 367.476563 433.789063 L 367.664063 433.707031 L 367.839844 433.609375 L 368.003906 433.496094 L 368.15625 433.367188 L 368.300781 433.222656 L 368.429688 433.0625 L 368.546875 432.894531 L 368.648438 432.707031 L 368.738281 432.511719 L 368.8125 432.300781 L 368.875 432.074219 L 368.921875 431.835938 L 368.957031 431.585938 L 368.976563 431.320313 L 368.984375 431.042969 L 368.976563 430.769531 L 368.960938 430.515625 L 368.929688 430.273438 L 368.886719 430.046875 L 368.832031 429.839844 L 368.765625 429.644531 L 368.683594 429.464844 L 368.59375 429.304688 L 368.488281 429.160156 L 368.371094 429.027344 L 368.246094 428.910156 L 368.109375 428.800781 L 367.96875 428.707031 L 367.816406 428.625 L 367.65625 428.554688 L 367.488281 428.5 L 367.3125 428.453125 L 367.128906 428.421875 L 366.933594 428.40625 L 366.734375 428.398438 L 366.636719 428.398438 L 366.449219 428.40625 L 366.269531 428.421875 L 366.183594 428.429688 L 366.097656 428.441406 L 365.851563 428.488281 L 365.769531 428.507813 L 365.683594 428.53125 L 365.589844 428.554688 L 365.496094 428.582031 L 365.394531 428.613281 L 365.175781 428.683594 L 365.058594 428.722656 L 364.933594 428.765625 L 364.808594 428.8125 L 363.585938 428.8125 L 363.585938 422.621094 L 370.152344 422.621094 Z M 369.9375 423.84375 "/>
<path style=" stroke:none;fill-rule:nonzero;fill:rgb(30.196078%,30.196078%,30.196078%);fill-opacity:1;" d="M 448.058594 423.84375 L 443.164063 423.84375 L 443.164063 427.75 L 443.265625 427.691406 L 443.371094 427.636719 L 443.476563 427.585938 L 443.578125 427.535156 L 443.679688 427.492188 L 443.785156 427.453125 L 443.886719 427.417969 L 443.988281 427.386719 L 444.089844 427.359375 L 444.1875 427.335938 L 444.398438 427.289063 L 444.507813 427.273438 L 444.617188 427.253906 L 444.835938 427.230469 L 444.945313 427.222656 L 445.058594 427.214844 L 445.171875 427.210938 L 445.289063 427.210938 L 445.589844 427.21875 L 445.882813 427.25 L 446.160156 427.300781 L 446.425781 427.375 L 446.679688 427.464844 L 446.917969 427.578125 L 447.144531 427.710938 L 447.359375 427.867188 L 447.5625 428.042969 L 447.753906 428.234375 L 447.929688 428.449219 L 448.089844 428.679688 L 448.230469 428.925781 L 448.351563 429.1875 L 448.457031 429.464844 L 448.539063 429.757813 L 448.605469 430.070313 L 448.652344 430.394531 L 448.679688 430.738281 L 448.6875 431.097656 L 448.683594 431.339844 L 448.667969 431.574219 L 448.640625 431.804688 L 448.605469 432.03125 L 448.558594 432.25 L 448.5 432.464844 L 448.433594 432.671875 L 448.355469 432.871094 L 448.265625 433.066406 L 448.167969 433.257813 L 448.0625 433.441406 L 447.949219 433.617188 L 447.824219 433.78125 L 447.691406 433.941406 L 447.550781 434.089844 L 447.402344 434.230469 L 447.242188 434.367188 L 447.074219 434.492188 L 446.894531 434.609375 L 446.710938 434.714844 L 446.515625 434.8125 L 446.316406 434.898438 L 446.109375 434.972656 L 445.898438 435.039063 L 445.679688 435.09375 L 445.453125 435.140625 L 445.222656 435.175781 L 444.988281 435.199219 L 444.746094 435.214844 L 444.496094 435.21875 L 444.085938 435.207031 L 443.6875 435.160156 L 443.300781 435.085938 L 442.925781 434.984375 L 442.558594 434.851563 L 442.207031 434.6875 L 441.863281 434.496094 L 441.527344 434.277344 L 441.207031 434.023438 L 440.894531 433.742188 L 441.832031 432.824219 L 442.0625 433.046875 L 442.300781 433.242188 L 442.546875 433.414063 L 442.800781 433.5625 L 443.0625 433.691406 L 443.335938 433.792969 L 443.613281 433.875 L 443.898438 433.933594 L 444.191406 433.964844 L 444.496094 433.976563 L 444.738281 433.96875 L 444.96875 433.949219 L 445.191406 433.910156 L 445.398438 433.855469 L 445.597656 433.789063 L 445.785156 433.707031 L 445.960938 433.609375 L 446.125 433.496094 L 446.277344 433.367188 L 446.421875 433.222656 L 446.550781 433.0625 L 446.667969 432.894531 L 446.769531 432.707031 L 446.859375 432.511719 L 446.933594 432.300781 L 446.996094 432.074219 L 447.042969 431.835938 L 447.078125 431.585938 L 447.097656 431.320313 L 447.105469 431.042969 L 447.097656 430.769531 L 447.082031 430.515625 L 447.050781 430.273438 L 447.007813 430.046875 L 446.953125 429.839844 L 446.886719 429.644531 L 446.804688 429.464844 L 446.714844 429.304688 L 446.609375 429.160156 L 446.492188 429.027344 L 446.367188 428.910156 L 446.230469 428.800781 L 446.089844 428.707031 L 445.9375 428.625 L 445.777344 428.554688 L 445.609375 428.5 L 445.433594 428.453125 L 445.25 428.421875 L 445.054688 428.40625 L 444.855469 428.398438 L 444.757813 428.398438 L 444.570313 428.40625 L 444.390625 428.421875 L 444.304688 428.429688 L 444.21875 428.441406 L 443.972656 428.488281 L 443.890625 428.507813 L 443.804688 428.53125 L 443.714844 428.554688 L 443.617188 428.582031 L 443.515625 428.613281 L 443.296875 428.683594 L 443.179688 428.722656 L 443.054688 428.765625 L 442.929688 428.8125 L 441.707031 428.8125 L 441.707031 422.621094 L 448.273438 422.621094 Z M 448.058594 423.84375 "/>
<path style=" stroke:none;fill-rule:nonzero;fill:rgb(30.196078%,30.196078%,30.196078%);fill-opacity:1;" d="M 454.105469 433.636719 L 454.113281 433.503906 L 454.125 433.378906 L 454.148438 433.257813 L 454.179688 433.136719 L 454.21875 433.023438 L 454.269531 432.914063 L 454.328125 432.808594 L 454.394531 432.707031 L 454.472656 432.613281 L 454.558594 432.519531 L 454.652344 432.429688 L 454.753906 432.351563 L 454.855469 432.28125 L 454.964844 432.21875 L 455.074219 432.167969 L 455.191406 432.125 L 455.308594 432.09375 L 455.433594 432.070313 L 455.558594 432.058594 L 455.691406 432.050781 L 455.824219 432.058594 L 455.957031 432.070313 L 456.082031 432.09375 L 456.199219 432.125 L 456.316406 432.167969 L 456.429688 432.21875 L 456.535156 432.28125 L 456.636719 432.351563 L 456.734375 432.429688 L 456.824219 432.519531 L 456.910156 432.613281 L 456.988281 432.707031 L 457.054688 432.808594 L 457.113281 432.914063 L 457.164063 433.023438 L 457.203125 433.136719 L 457.234375 433.257813 L 457.257813 433.378906 L 457.269531 433.503906 L 457.273438 433.636719 L 457.269531 433.769531 L 457.257813 433.898438 L 457.234375 434.027344 L 457.203125 434.144531 L 457.164063 434.261719 L 457.113281 434.371094 L 457.054688 434.480469 L 456.988281 434.582031 L 456.910156 434.675781 L 456.824219 434.769531 L 456.734375 434.855469 L 456.636719 434.933594 L 456.535156 435 L 456.429688 435.058594 L 456.316406 435.109375 L 456.199219 435.148438 L 456.082031 435.179688 L 455.957031 435.203125 L 455.824219 435.214844 L 455.691406 435.21875 L 455.558594 435.214844 L 455.433594 435.203125 L 455.308594 435.179688 L 455.191406 435.148438 L 455.074219 435.109375 L 454.964844 435.058594 L 454.855469 435 L 454.753906 434.933594 L 454.652344 434.855469 L 454.558594 434.769531 L 454.472656 434.675781 L 454.394531 434.574219 L 454.328125 434.472656 L 454.269531 434.363281 L 454.21875 434.253906 L 454.179688 434.136719 L 454.148438 434.019531 L 454.125 433.894531 L 454.113281 433.765625 Z M 454.105469 433.636719 "/>
<path style=" stroke:none;fill-rule:nonzero;fill:rgb(30.196078%,30.196078%,30.196078%);fill-opacity:1;" d="M 466.507813 422.421875 L 466.894531 422.4375 L 467.261719 422.488281 L 467.613281 422.570313 L 467.941406 422.6875 L 468.25 422.835938 L 468.542969 423.019531 L 468.8125 423.234375 L 469.066406 423.480469 L 469.300781 423.761719 L 469.515625 424.078125 L 469.714844 424.421875 L 469.890625 424.792969 L 470.046875 425.191406 L 470.183594 425.621094 L 470.296875 426.082031 L 470.390625 426.570313 L 470.464844 427.085938 L 470.515625 427.632813 L 470.550781 428.207031 L 470.558594 428.8125 L 470.550781 429.421875 L 470.515625 430 L 470.464844 430.550781 L 470.390625 431.070313 L 470.296875 431.5625 L 470.183594 432.023438 L 470.046875 432.457031 L 469.890625 432.863281 L 469.714844 433.234375 L 469.515625 433.582031 L 469.300781 433.894531 L 469.066406 434.171875 L 468.8125 434.417969 L 468.542969 434.628906 L 468.25 434.8125 L 467.941406 434.957031 L 467.613281 435.074219 L 467.261719 435.15625 L 466.894531 435.203125 L 466.507813 435.21875 L 466.121094 435.203125 L 465.753906 435.15625 L 465.40625 435.074219 L 465.074219 434.957031 L 464.761719 434.8125 L 464.46875 434.628906 L 464.195313 434.417969 L 463.941406 434.171875 L 463.703125 433.894531 L 463.484375 433.582031 L 463.289063 433.234375 L 463.117188 432.863281 L 462.960938 432.457031 L 462.828125 432.023438 L 462.714844 431.5625 L 462.625 431.070313 L 462.550781 430.550781 L 462.5 430 L 462.46875 429.421875 L 462.460938 428.8125 L 462.46875 428.207031 L 462.5 427.632813 L 462.550781 427.085938 L 462.625 426.570313 L 462.714844 426.082031 L 462.828125 425.621094 L 462.960938 425.191406 L 463.117188 424.792969 L 463.289063 424.421875 L 463.484375 424.078125 L 463.703125 423.761719 L 463.941406 423.480469 L 464.195313 423.234375 L 464.46875 423.019531 L 464.761719 422.835938 L 465.074219 422.6875 L 465.40625 422.570313 L 465.753906 422.488281 L 466.121094 422.4375 Z M 466.507813 423.644531 L 466.039063 423.699219 L 465.621094 423.851563 L 465.25 424.109375 L 464.929688 424.472656 L 464.660156 424.9375 L 464.4375 425.503906 L 464.265625 426.175781 L 464.140625 426.953125 L 464.066406 427.832031 L 464.042969 428.8125 L 464.066406 429.796875 L 464.140625 430.679688 L 464.265625 431.457031 L 464.4375 432.128906 L 464.660156 432.699219 L 464.929688 433.167969 L 465.25 433.53125 L 465.621094 433.789063 L 466.039063 433.945313 L 466.507813 433.996094 L 466.976563 433.945313 L 467.398438 433.789063 L 467.765625 433.53125 L 468.085938 433.167969 L 468.359375 432.699219 L 468.582031 432.128906 L 468.753906 431.457031 L 468.875 430.679688 L 468.949219 429.796875 L 468.976563 428.8125 L 468.949219 427.832031 L 468.875 426.953125 L 468.753906 426.175781 L 468.582031 425.503906 L 468.359375 424.9375 L 468.085938 424.472656 L 467.765625 424.109375 L 467.398438 423.851563 L 466.976563 423.699219 Z M 466.507813 427.640625 L 466.609375 427.644531 L 466.703125 427.65625 L 466.796875 427.671875 L 466.886719 427.695313 L 466.972656 427.726563 L 467.054688 427.765625 L 467.136719 427.808594 L 467.210938 427.859375 L 467.285156 427.917969 L 467.355469 427.984375 L 467.421875 428.054688 L 467.476563 428.125 L 467.53125 428.203125 L 467.574219 428.28125 L 467.613281 428.363281 L 467.640625 428.445313 L 467.667969 428.535156 L 467.683594 428.625 L 467.695313 428.714844 L 467.699219 428.8125 L 467.695313 428.910156 L 467.683594 429.007813 L 467.667969 429.101563 L 467.640625 429.1875 L 467.613281 429.277344 L 467.574219 429.359375 L 467.53125 429.4375 L 467.476563 429.515625 L 467.421875 429.589844 L 467.355469 429.65625 L 467.285156 429.722656 L 467.210938 429.78125 L 467.136719 429.832031 L 467.054688 429.875 L 466.972656 429.914063 L 466.886719 429.945313 L 466.796875 429.96875 L 466.703125 429.988281 L 466.609375 429.996094 L 466.507813 430 L 466.410156 429.996094 L 466.3125 429.988281 L 466.222656 429.96875 L 466.132813 429.945313 L 466.046875 429.914063 L 465.960938 429.875 L 465.882813 429.832031 L 465.804688 429.78125 L 465.734375 429.722656 L 465.664063 429.65625 L 465.601563 429.589844 L 465.546875 429.515625 L 465.5 429.4375 L 465.457031 429.359375 L 465.421875 429.277344 L 465.390625 429.1875 L 465.367188 429.101563 L 465.351563 429.007813 L 465.34375 428.910156 L 465.339844 428.8125 L 465.34375 428.714844 L 465.351563 428.625 L 465.367188 428.535156 L 465.390625 428.445313 L 465.421875 428.363281 L 465.457031 428.28125 L 465.5 428.203125 L 465.546875 428.125 L 465.601563 428.054688 L 465.664063 427.984375 L 465.734375 427.917969 L 465.804688 427.859375 L 465.882813 427.808594 L 465.960938 427.765625 L 466.046875 427.726563 L 466.132813 427.695313 L 466.222656 427.671875 L 466.3125 427.65625 L 466.410156 427.644531 Z M 466.507813 427.640625 "/>
<path style=" stroke:none;fill-rule:nonzero;fill:rgb(0%,0%,0%);fill-opacity:1;" d="M 442.214844 441.703125 L 441.972656 443.375 L 438.253906 443.375 L 438.253906 456.839844 L 436.207031 456.839844 L 436.207031 443.375 L 432.378906 443.375 L 432.378906 441.703125 Z M 442.214844 441.703125 "/>
<path style=" stroke:none;fill-rule:nonzero;fill:rgb(0%,0%,0%);fill-opacity:1;" d="M 446.085938 445.265625 L 446.085938 456.839844 L 444.105469 456.839844 L 444.105469 445.265625 Z M 445.09375 439.808594 L 445.207031 439.8125 L 445.316406 439.824219 L 445.417969 439.84375 L 445.519531 439.871094 L 445.613281 439.902344 L 445.703125 439.945313 L 445.789063 439.992188 L 445.871094 440.050781 L 445.945313 440.113281 L 446.019531 440.183594 L 446.089844 440.261719 L 446.152344 440.339844 L 446.210938 440.425781 L 446.257813 440.511719 L 446.300781 440.601563 L 446.332031 440.695313 L 446.359375 440.792969 L 446.378906 440.894531 L 446.390625 441 L 446.394531 441.109375 L 446.390625 441.214844 L 446.378906 441.320313 L 446.363281 441.421875 L 446.335938 441.519531 L 446.304688 441.613281 L 446.265625 441.703125 L 446.222656 441.792969 L 446.167969 441.875 L 446.109375 441.957031 L 446.042969 442.03125 L 445.96875 442.097656 L 445.890625 442.160156 L 445.808594 442.210938 L 445.722656 442.257813 L 445.628906 442.296875 L 445.53125 442.328125 L 445.429688 442.351563 L 445.324219 442.371094 L 445.210938 442.378906 L 445.09375 442.382813 L 444.984375 442.378906 L 444.875 442.371094 L 444.769531 442.351563 L 444.667969 442.328125 L 444.574219 442.296875 L 444.480469 442.257813 L 444.390625 442.210938 L 444.308594 442.160156 L 444.226563 442.097656 L 444.148438 442.03125 L 444.082031 441.957031 L 444.023438 441.875 L 443.96875 441.792969 L 443.925781 441.703125 L 443.886719 441.613281 L 443.855469 441.519531 L 443.828125 441.421875 L 443.8125 441.320313 L 443.800781 441.214844 L 443.796875 441.109375 L 443.800781 441 L 443.8125 440.894531 L 443.828125 440.792969 L 443.855469 440.695313 L 443.886719 440.601563 L 443.925781 440.511719 L 443.96875 440.425781 L 444.023438 440.339844 L 444.082031 440.261719 L 444.148438 440.183594 L 444.226563 440.113281 L 444.308594 440.050781 L 444.390625 439.992188 L 444.480469 439.945313 L 444.574219 439.902344 L 444.667969 439.871094 L 444.769531 439.84375 L 444.875 439.824219 L 444.984375 439.8125 Z M 445.09375 439.808594 "/>
<path style=" stroke:none;fill-rule:nonzero;fill:rgb(0%,0%,0%);fill-opacity:1;" d="M 460.339844 444.980469 L 460.585938 444.988281 L 460.824219 445.019531 L 461.046875 445.066406 L 461.265625 445.132813 L 461.46875 445.21875 L 461.664063 445.320313 L 461.847656 445.445313 L 462.023438 445.585938 L 462.1875 445.746094 L 462.34375 445.925781 L 462.484375 446.117188 L 462.613281 446.320313 L 462.726563 446.539063 L 462.820313 446.769531 L 462.90625 447.011719 L 462.972656 447.265625 L 463.023438 447.53125 L 463.0625 447.8125 L 463.085938 448.105469 L 463.089844 448.414063 L 463.089844 456.839844 L 461.132813 456.839844 L 461.132813 448.632813 L 461.121094 448.230469 L 461.078125 447.871094 L 461.011719 447.554688 L 460.914063 447.28125 L 460.792969 447.046875 L 460.640625 446.859375 L 460.464844 446.710938 L 460.261719 446.605469 L 460.027344 446.542969 L 459.769531 446.519531 L 459.507813 446.539063 L 459.25 446.601563 L 458.996094 446.703125 L 458.75 446.84375 L 458.503906 447.027344 L 458.265625 447.25 L 458.03125 447.511719 L 457.796875 447.816406 L 457.570313 448.160156 L 457.347656 448.542969 L 457.347656 456.839844 L 455.390625 456.839844 L 455.390625 448.632813 L 455.378906 448.230469 L 455.335938 447.871094 L 455.269531 447.554688 L 455.171875 447.28125 L 455.050781 447.046875 L 454.902344 446.859375 L 454.722656 446.710938 L 454.519531 446.605469 L 454.285156 446.542969 L 454.027344 446.519531 L 453.761719 446.539063 L 453.5 446.601563 L 453.246094 446.703125 L 452.996094 446.84375 L 452.75 447.027344 L 452.511719 447.25 L 452.277344 447.511719 L 452.050781 447.816406 L 451.824219 448.160156 L 451.609375 448.542969 L 451.609375 456.839844 L 449.648438 456.839844 L 449.648438 445.265625 L 451.367188 445.265625 L 451.519531 446.960938 L 451.78125 446.585938 L 452.050781 446.246094 L 452.332031 445.949219 L 452.625 445.691406 L 452.925781 445.476563 L 453.242188 445.296875 L 453.566406 445.160156 L 453.898438 445.058594 L 454.242188 445 L 454.597656 444.980469 L 454.785156 444.984375 L 454.964844 445.003906 L 455.140625 445.03125 L 455.3125 445.066406 L 455.472656 445.117188 L 455.632813 445.179688 L 455.785156 445.25 L 455.929688 445.332031 L 456.070313 445.425781 L 456.207031 445.53125 L 456.332031 445.644531 L 456.453125 445.769531 L 456.566406 445.902344 L 456.671875 446.042969 L 456.773438 446.195313 L 456.863281 446.355469 L 456.945313 446.527344 L 457.023438 446.707031 L 457.089844 446.894531 L 457.152344 447.09375 L 457.425781 446.691406 L 457.707031 446.332031 L 458.003906 446.015625 L 458.304688 445.742188 L 458.621094 445.507813 L 458.945313 445.316406 L 459.277344 445.171875 L 459.621094 445.066406 L 459.976563 445 Z M 460.339844 444.980469 "/>
<path style=" stroke:none;fill-rule:nonzero;fill:rgb(0%,0%,0%);fill-opacity:1;" d="M 474.683594 450.699219 L 474.683594 450.890625 L 474.679688 450.988281 L 474.679688 451.085938 L 474.675781 451.191406 L 474.667969 451.292969 L 474.664063 451.402344 L 474.648438 451.621094 L 474.640625 451.734375 L 467.910156 451.734375 L 467.933594 452.128906 L 467.96875 452.5 L 468.019531 452.847656 L 468.082031 453.175781 L 468.15625 453.476563 L 468.246094 453.757813 L 468.34375 454.019531 L 468.457031 454.253906 L 468.585938 454.46875 L 468.722656 454.660156 L 468.875 454.828125 L 469.035156 454.976563 L 469.207031 455.109375 L 469.390625 455.222656 L 469.582031 455.320313 L 469.785156 455.398438 L 470 455.460938 L 470.222656 455.503906 L 470.457031 455.53125 L 470.703125 455.539063 L 470.859375 455.539063 L 471.011719 455.53125 L 471.164063 455.519531 L 471.453125 455.480469 L 471.589844 455.453125 L 471.726563 455.421875 L 471.859375 455.386719 L 471.988281 455.34375 L 472.113281 455.296875 L 472.238281 455.246094 L 472.367188 455.1875 L 472.5 455.125 L 472.628906 455.054688 L 472.761719 454.980469 L 472.894531 454.898438 L 473.027344 454.808594 L 473.160156 454.714844 L 473.296875 454.613281 L 473.429688 454.507813 L 474.3125 455.671875 L 473.980469 455.949219 L 473.644531 456.195313 L 473.296875 456.414063 L 472.9375 456.601563 L 472.574219 456.761719 L 472.199219 456.890625 L 471.816406 456.992188 L 471.425781 457.066406 L 471.023438 457.109375 L 470.617188 457.125 L 470.171875 457.109375 L 469.75 457.0625 L 469.347656 456.984375 L 468.964844 456.875 L 468.601563 456.734375 L 468.261719 456.5625 L 467.9375 456.359375 L 467.636719 456.125 L 467.355469 455.859375 L 467.09375 455.5625 L 466.863281 455.234375 L 466.652344 454.878906 L 466.46875 454.5 L 466.308594 454.09375 L 466.171875 453.664063 L 466.0625 453.210938 L 465.972656 452.730469 L 465.914063 452.226563 L 465.875 451.695313 L 465.863281 451.140625 L 465.875 450.585938 L 465.910156 450.050781 L 465.96875 449.542969 L 466.054688 449.058594 L 466.160156 448.597656 L 466.292969 448.164063 L 466.445313 447.75 L 466.625 447.359375 L 466.824219 446.996094 L 467.050781 446.652344 L 467.296875 446.335938 L 467.5625 446.050781 L 467.847656 445.800781 L 468.148438 445.582031 L 468.46875 445.398438 L 468.808594 445.246094 L 469.167969 445.128906 L 469.542969 445.046875 L 469.9375 444.996094 L 470.351563 444.980469 L 470.761719 444.996094 L 471.148438 445.039063 L 471.519531 445.113281 L 471.867188 445.21875 L 472.199219 445.355469 L 472.511719 445.519531 L 472.804688 445.714844 L 473.074219 445.9375 L 473.328125 446.191406 L 473.5625 446.476563 L 473.777344 446.785156 L 473.96875 447.117188 L 474.136719 447.476563 L 474.28125 447.859375 L 474.40625 448.269531 L 474.507813 448.703125 L 474.585938 449.164063 L 474.640625 449.652344 L 474.675781 450.164063 Z M 472.773438 450.105469 L 472.746094 449.417969 L 472.675781 448.800781 L 472.554688 448.253906 L 472.386719 447.78125 L 472.171875 447.382813 L 471.910156 447.058594 L 471.597656 446.804688 L 471.238281 446.621094 L 470.828125 446.511719 L 470.375 446.476563 L 470.15625 446.484375 L 469.953125 446.511719 L 469.753906 446.558594 L 469.566406 446.625 L 469.390625 446.707031 L 469.21875 446.808594 L 469.058594 446.929688 L 468.910156 447.066406 L 468.769531 447.226563 L 468.636719 447.398438 L 468.511719 447.59375 L 468.402344 447.808594 L 468.300781 448.042969 L 468.214844 448.304688 L 468.136719 448.589844 L 468.066406 448.894531 L 468.011719 449.222656 L 467.964844 449.574219 L 467.933594 449.949219 L 467.910156 450.347656 L 472.773438 450.347656 Z M 472.773438 450.105469 "/>
<path style="fill-rule:nonzero;fill:rgb(100%,100%,100%);fill-opacity:1;stroke-width:1.115477;stroke-linecap:round;stroke-linejoin:round;stroke:rgb(100%,100%,100%);stroke-opacity:1;stroke-miterlimit:10;" d="M 48.351563 98.554688 L 200.917969 98.554688 L 200.917969 36.417969 L 48.351563 36.417969 Z M 48.351563 98.554688 "/>
<path style="fill:none;stroke-width:2.347352;stroke-linecap:butt;stroke-linejoin:round;stroke:rgb(50.980392%,3.921569%,58.039216%);stroke-opacity:1;stroke-miterlimit:10;" d="M 55.808594 59.113281 L 69.632813 59.113281 "/>
<path style="fill-rule:nonzero;fill:rgb(50.980392%,3.921569%,58.039216%);fill-opacity:1;stroke-width:0.708661;stroke-linecap:round;stroke-linejoin:round;stroke:rgb(50.980392%,3.921569%,58.039216%);stroke-opacity:1;stroke-miterlimit:10;" d="M 66.277344 59.113281 C 66.277344 63.855469 59.164063 63.855469 59.164063 59.113281 C 59.164063 54.375 66.277344 54.375 66.277344 59.113281 "/>
<path style="fill:none;stroke-width:2.347352;stroke-linecap:butt;stroke-linejoin:round;stroke:rgb(97.254902%,58.039216%,25.490196%);stroke-opacity:1;stroke-miterlimit:10;" d="M 55.808594 81.589844 L 69.632813 81.589844 "/>
<path style="fill-rule:nonzero;fill:rgb(97.254902%,58.039216%,25.490196%);fill-opacity:1;stroke-width:0.708661;stroke-linecap:round;stroke-linejoin:round;stroke:rgb(97.254902%,58.039216%,25.490196%);stroke-opacity:1;stroke-miterlimit:10;" d="M 66.277344 81.589844 C 66.277344 86.328125 59.164063 86.328125 59.164063 81.589844 C 59.164063 76.847656 66.277344 76.847656 66.277344 81.589844 "/>
<path style=" stroke:none;fill-rule:nonzero;fill:rgb(20%,24.705882%,28.235294%);fill-opacity:1;" d="M 87.765625 50.515625 L 87.488281 52.3125 L 81.539063 52.3125 L 81.539063 57.988281 L 86.714844 57.988281 L 86.714844 59.789063 L 81.539063 59.789063 L 81.539063 65.890625 L 87.839844 65.890625 L 87.839844 67.714844 L 79.214844 67.714844 L 79.214844 50.515625 Z M 87.765625 50.515625 "/>
<path style=" stroke:none;fill-rule:nonzero;fill:rgb(20%,24.705882%,28.235294%);fill-opacity:1;" d="M 94.9375 47.390625 L 94.9375 49.1875 L 92.363281 49.1875 L 92.363281 68.839844 L 94.9375 68.839844 L 94.9375 70.613281 L 90.238281 70.613281 L 90.238281 47.390625 Z M 94.9375 47.390625 "/>
<path style=" stroke:none;fill-rule:nonzero;fill:rgb(20%,24.705882%,28.235294%);fill-opacity:1;" d="M 108.390625 50.515625 L 103.4375 61.089844 L 103.4375 67.714844 L 101.089844 67.714844 L 101.089844 61.113281 L 96.140625 50.515625 L 98.640625 50.515625 L 102.3125 59.113281 L 105.964844 50.515625 Z M 108.390625 50.515625 "/>
<path style=" stroke:none;fill-rule:nonzero;fill:rgb(20%,24.705882%,28.235294%);fill-opacity:1;" d="M 114.988281 47.5625 L 114.757813 47.941406 L 114.539063 48.308594 L 114.328125 48.671875 L 114.125 49.023438 L 113.933594 49.371094 L 113.75 49.710938 L 113.578125 50.039063 L 113.414063 50.363281 L 113.257813 50.679688 L 113.113281 50.988281 L 112.976563 51.296875 L 112.847656 51.617188 L 112.722656 51.941406 L 112.601563 52.277344 L 112.488281 52.621094 L 112.382813 52.972656 L 112.28125 53.332031 L 112.1875 53.699219 L 112.097656 54.078125 L 112.015625 54.464844 L 111.941406 54.855469 L 111.878906 55.261719 L 111.824219 55.675781 L 111.773438 56.109375 L 111.734375 56.550781 L 111.699219 57.007813 L 111.671875 57.476563 L 111.652344 57.960938 L 111.644531 58.457031 L 111.640625 58.964844 L 111.644531 59.472656 L 111.652344 59.96875 L 111.671875 60.449219 L 111.699219 60.921875 L 111.734375 61.375 L 111.773438 61.820313 L 111.824219 62.25 L 111.878906 62.667969 L 111.941406 63.074219 L 112.015625 63.464844 L 112.097656 63.84375 L 112.1875 64.21875 L 112.28125 64.585938 L 112.382813 64.945313 L 112.488281 65.296875 L 112.601563 65.640625 L 112.722656 65.976563 L 112.847656 66.304688 L 112.976563 66.625 L 113.113281 66.9375 L 113.257813 67.246094 L 113.414063 67.5625 L 113.578125 67.886719 L 113.75 68.21875 L 113.933594 68.558594 L 114.125 68.902344 L 114.328125 69.257813 L 114.539063 69.621094 L 114.757813 69.988281 L 114.988281 70.363281 L 113.539063 71.3125 L 113.269531 70.902344 L 113.011719 70.503906 L 112.761719 70.113281 L 112.523438 69.730469 L 112.296875 69.359375 L 112.078125 68.996094 L 111.871094 68.640625 L 111.675781 68.296875 L 111.488281 67.964844 L 111.3125 67.640625 L 111.148438 67.308594 L 110.984375 66.96875 L 110.832031 66.617188 L 110.683594 66.253906 L 110.539063 65.882813 L 110.402344 65.5 L 110.269531 65.105469 L 110.144531 64.703125 L 110.027344 64.289063 L 109.914063 63.863281 L 109.808594 63.429688 L 109.714844 62.980469 L 109.632813 62.519531 L 109.5625 62.046875 L 109.5 61.5625 L 109.453125 61.066406 L 109.414063 60.558594 L 109.386719 60.039063 L 109.371094 59.507813 L 109.363281 58.964844 L 109.371094 58.421875 L 109.386719 57.886719 L 109.414063 57.367188 L 109.453125 56.859375 L 109.5 56.363281 L 109.5625 55.878906 L 109.632813 55.40625 L 109.714844 54.949219 L 109.808594 54.5 L 109.914063 54.0625 L 110.027344 53.640625 L 110.144531 53.226563 L 110.269531 52.824219 L 110.402344 52.433594 L 110.539063 52.050781 L 110.683594 51.683594 L 110.832031 51.324219 L 110.984375 50.976563 L 111.148438 50.640625 L 111.3125 50.3125 L 111.488281 49.984375 L 111.675781 49.644531 L 111.871094 49.296875 L 112.078125 48.941406 L 112.296875 48.578125 L 112.523438 48.203125 L 112.761719 47.820313 L 113.011719 47.425781 L 113.269531 47.023438 L 113.539063 46.613281 Z M 114.988281 47.5625 "/>
<path style=" stroke:none;fill-rule:nonzero;fill:rgb(20%,24.705882%,28.235294%);fill-opacity:1;" d="M 123.214844 50.988281 L 123.214844 67.714844 L 120.988281 67.714844 L 120.988281 53.339844 L 117.515625 55.6875 L 116.488281 54.1875 L 121.238281 50.988281 Z M 123.214844 50.988281 "/>
<path style=" stroke:none;fill-rule:nonzero;fill:rgb(20%,24.705882%,28.235294%);fill-opacity:1;" d="M 127.9375 46.613281 L 128.214844 47.035156 L 128.476563 47.441406 L 128.726563 47.84375 L 128.96875 48.230469 L 129.195313 48.609375 L 129.410156 48.976563 L 129.617188 49.332031 L 129.8125 49.679688 L 129.992188 50.015625 L 130.164063 50.339844 L 130.332031 50.664063 L 130.492188 51 L 130.648438 51.347656 L 130.796875 51.707031 L 130.9375 52.078125 L 131.074219 52.457031 L 131.207031 52.847656 L 131.332031 53.25 L 131.449219 53.664063 L 131.5625 54.089844 L 131.667969 54.519531 L 131.761719 54.964844 L 131.84375 55.421875 L 131.914063 55.890625 L 131.976563 56.371094 L 132.027344 56.863281 L 132.066406 57.371094 L 132.09375 57.890625 L 132.109375 58.421875 L 132.113281 58.964844 L 132.109375 59.507813 L 132.09375 60.039063 L 132.066406 60.558594 L 132.027344 61.066406 L 131.976563 61.5625 L 131.914063 62.046875 L 131.84375 62.519531 L 131.761719 62.980469 L 131.667969 63.429688 L 131.5625 63.863281 L 131.449219 64.285156 L 131.332031 64.691406 L 131.207031 65.09375 L 131.074219 65.480469 L 130.9375 65.859375 L 130.796875 66.226563 L 130.648438 66.582031 L 130.492188 66.929688 L 130.332031 67.265625 L 130.164063 67.589844 L 129.992188 67.914063 L 129.8125 68.25 L 129.617188 68.597656 L 129.410156 68.953125 L 129.195313 69.320313 L 128.96875 69.699219 L 128.726563 70.085938 L 128.476563 70.484375 L 128.214844 70.894531 L 127.9375 71.3125 L 126.488281 70.363281 L 126.71875 69.988281 L 126.9375 69.621094 L 127.148438 69.257813 L 127.347656 68.902344 L 127.539063 68.558594 L 127.71875 68.21875 L 127.890625 67.886719 L 128.050781 67.5625 L 128.199219 67.246094 L 128.339844 66.9375 L 128.476563 66.625 L 128.605469 66.304688 L 128.730469 65.976563 L 128.851563 65.640625 L 128.964844 65.296875 L 129.070313 64.945313 L 129.171875 64.585938 L 129.265625 64.21875 L 129.355469 63.84375 L 129.4375 63.464844 L 129.515625 63.066406 L 129.582031 62.660156 L 129.644531 62.238281 L 129.695313 61.808594 L 129.738281 61.363281 L 129.773438 60.90625 L 129.804688 60.441406 L 129.824219 59.960938 L 129.835938 59.46875 L 129.839844 58.964844 L 129.835938 58.460938 L 129.824219 57.96875 L 129.804688 57.492188 L 129.773438 57.023438 L 129.738281 56.570313 L 129.695313 56.128906 L 129.644531 55.699219 L 129.582031 55.285156 L 129.515625 54.878906 L 129.4375 54.488281 L 129.355469 54.101563 L 129.265625 53.726563 L 129.171875 53.355469 L 129.070313 52.996094 L 128.964844 52.644531 L 128.851563 52.300781 L 128.730469 51.96875 L 128.605469 51.640625 L 128.476563 51.324219 L 128.339844 51.015625 L 128.199219 50.699219 L 128.050781 50.378906 L 127.890625 50.050781 L 127.71875 49.71875 L 127.539063 49.375 L 127.347656 49.027344 L 127.148438 48.671875 L 126.9375 48.308594 L 126.71875 47.941406 L 126.488281 47.5625 Z M 127.9375 46.613281 "/>
<path style=" stroke:none;fill-rule:nonzero;fill:rgb(20%,24.705882%,28.235294%);fill-opacity:1;" d="M 138.488281 47.539063 L 138.488281 70.265625 L 136.390625 70.265625 L 136.390625 47.539063 Z M 138.488281 47.539063 "/>
<path style=" stroke:none;fill-rule:nonzero;fill:rgb(20%,24.705882%,28.235294%);fill-opacity:1;" d="M 153.3125 50.515625 L 153.039063 52.414063 L 148.8125 52.414063 L 148.8125 67.714844 L 146.488281 67.714844 L 146.488281 52.414063 L 142.140625 52.414063 L 142.140625 50.515625 Z M 153.3125 50.515625 "/>
<path style=" stroke:none;fill-rule:nonzero;fill:rgb(20%,24.705882%,28.235294%);fill-opacity:1;" d="M 160.664063 57.988281 L 160.664063 56.1875 L 169.289063 56.1875 L 169.289063 57.988281 Z M 160.664063 62.714844 L 160.664063 60.914063 L 169.289063 60.914063 L 169.289063 62.714844 Z M 160.664063 62.714844 "/>
<path style=" stroke:none;fill-rule:nonzero;fill:rgb(20%,24.705882%,28.235294%);fill-opacity:1;" d="M 184.765625 67.140625 L 184.511719 67.308594 L 184.253906 67.464844 L 183.988281 67.597656 L 183.71875 67.714844 L 183.445313 67.8125 L 183.164063 67.894531 L 182.878906 67.957031 L 182.589844 68.003906 L 182.292969 68.03125 L 181.988281 68.039063 L 181.675781 68.03125 L 181.378906 68.003906 L 181.09375 67.957031 L 180.824219 67.890625 L 180.570313 67.808594 L 180.328125 67.707031 L 180.105469 67.585938 L 179.894531 67.445313 L 179.695313 67.289063 L 179.515625 67.113281 L 179.351563 66.921875 L 179.207031 66.714844 L 179.082031 66.492188 L 178.96875 66.253906 L 178.875 66 L 178.800781 65.734375 L 178.742188 65.453125 L 178.699219 65.152344 L 178.671875 64.839844 L 178.664063 64.515625 L 178.664063 56.265625 L 176.789063 56.265625 L 176.789063 54.5625 L 178.664063 54.5625 L 178.664063 51.539063 L 180.914063 51.265625 L 180.914063 54.5625 L 183.8125 54.5625 L 183.5625 56.265625 L 180.914063 56.265625 L 180.914063 64.488281 L 180.929688 64.8125 L 180.972656 65.101563 L 181.042969 65.355469 L 181.140625 65.578125 L 181.269531 65.765625 L 181.425781 65.917969 L 181.613281 66.035156 L 181.824219 66.121094 L 182.066406 66.171875 L 182.339844 66.1875 L 182.421875 66.1875 L 182.507813 66.183594 L 182.585938 66.179688 L 182.667969 66.167969 L 182.746094 66.15625 L 182.820313 66.144531 L 182.898438 66.128906 L 182.972656 66.109375 L 183.042969 66.089844 L 183.113281 66.0625 L 183.191406 66.039063 L 183.265625 66.007813 L 183.347656 65.976563 L 183.425781 65.945313 L 183.507813 65.90625 L 183.589844 65.871094 L 183.761719 65.785156 L 183.851563 65.738281 L 183.9375 65.6875 Z M 184.765625 67.140625 "/>
<path style=" stroke:none;fill-rule:nonzero;fill:rgb(20%,24.705882%,28.235294%);fill-opacity:1;" d="M 190.488281 47.390625 L 190.488281 70.613281 L 185.789063 70.613281 L 185.789063 68.839844 L 188.363281 68.839844 L 188.363281 49.1875 L 185.789063 49.1875 L 185.789063 47.390625 Z M 190.488281 47.390625 "/>
<path style=" stroke:none;fill-rule:nonzero;fill:rgb(20%,24.705882%,28.235294%);fill-opacity:1;" d="M 87.765625 72.988281 L 87.488281 74.789063 L 81.539063 74.789063 L 81.539063 80.464844 L 86.714844 80.464844 L 86.714844 82.265625 L 81.539063 82.265625 L 81.539063 88.363281 L 87.839844 88.363281 L 87.839844 90.1875 L 79.214844 90.1875 L 79.214844 72.988281 Z M 87.765625 72.988281 "/>
<path style=" stroke:none;fill-rule:nonzero;fill:rgb(20%,24.705882%,28.235294%);fill-opacity:1;" d="M 94.9375 69.863281 L 94.9375 71.664063 L 92.363281 71.664063 L 92.363281 91.3125 L 94.9375 91.3125 L 94.9375 93.089844 L 90.238281 93.089844 L 90.238281 69.863281 Z M 94.9375 69.863281 "/>
<path style=" stroke:none;fill-rule:nonzero;fill:rgb(20%,24.705882%,28.235294%);fill-opacity:1;" d="M 108.390625 72.988281 L 103.4375 83.5625 L 103.4375 90.1875 L 101.089844 90.1875 L 101.089844 83.589844 L 96.140625 72.988281 L 98.640625 72.988281 L 102.3125 81.589844 L 105.964844 72.988281 Z M 108.390625 72.988281 "/>
<path style=" stroke:none;fill-rule:nonzero;fill:rgb(20%,24.705882%,28.235294%);fill-opacity:1;" d="M 114.988281 70.039063 L 114.757813 70.414063 L 114.539063 70.785156 L 114.328125 71.144531 L 114.125 71.5 L 113.933594 71.84375 L 113.75 72.183594 L 113.578125 72.515625 L 113.414063 72.839844 L 113.257813 73.15625 L 113.113281 73.464844 L 112.976563 73.773438 L 112.847656 74.089844 L 112.722656 74.417969 L 112.601563 74.753906 L 112.488281 75.09375 L 112.382813 75.445313 L 112.28125 75.808594 L 112.1875 76.175781 L 112.097656 76.554688 L 112.015625 76.9375 L 111.941406 77.332031 L 111.878906 77.734375 L 111.824219 78.152344 L 111.773438 78.582031 L 111.734375 79.027344 L 111.699219 79.484375 L 111.671875 79.953125 L 111.652344 80.433594 L 111.644531 80.929688 L 111.640625 81.4375 L 111.644531 81.949219 L 111.652344 82.441406 L 111.671875 82.925781 L 111.699219 83.394531 L 111.734375 83.851563 L 111.773438 84.296875 L 111.824219 84.726563 L 111.878906 85.144531 L 111.941406 85.546875 L 112.015625 85.9375 L 112.097656 86.320313 L 112.1875 86.695313 L 112.28125 87.058594 L 112.382813 87.417969 L 112.488281 87.769531 L 112.601563 88.113281 L 112.722656 88.449219 L 112.847656 88.777344 L 112.976563 89.101563 L 113.113281 89.414063 L 113.257813 89.722656 L 113.414063 90.039063 L 113.578125 90.363281 L 113.75 90.695313 L 113.933594 91.03125 L 114.125 91.378906 L 114.328125 91.734375 L 114.539063 92.09375 L 114.757813 92.464844 L 114.988281 92.839844 L 113.539063 93.789063 L 113.269531 93.378906 L 113.011719 92.976563 L 112.761719 92.585938 L 112.523438 92.207031 L 112.296875 91.832031 L 112.078125 91.46875 L 111.871094 91.117188 L 111.675781 90.773438 L 111.488281 90.4375 L 111.3125 90.113281 L 111.148438 89.785156 L 110.984375 89.441406 L 110.832031 89.09375 L 110.683594 88.730469 L 110.539063 88.359375 L 110.402344 87.976563 L 110.269531 87.582031 L 110.144531 87.179688 L 110.027344 86.765625 L 109.914063 86.339844 L 109.808594 85.902344 L 109.714844 85.457031 L 109.632813 84.996094 L 109.5625 84.523438 L 109.5 84.039063 L 109.453125 83.542969 L 109.414063 83.035156 L 109.386719 82.515625 L 109.371094 81.984375 L 109.363281 81.4375 L 109.371094 80.894531 L 109.386719 80.363281 L 109.414063 79.84375 L 109.453125 79.335938 L 109.5 78.839844 L 109.5625 78.355469 L 109.632813 77.882813 L 109.714844 77.421875 L 109.808594 76.976563 L 109.914063 76.539063 L 110.027344 76.113281 L 110.144531 75.699219 L 110.269531 75.296875 L 110.402344 74.90625 L 110.539063 74.527344 L 110.683594 74.15625 L 110.832031 73.796875 L 110.984375 73.449219 L 111.148438 73.113281 L 111.3125 72.789063 L 111.488281 72.460938 L 111.675781 72.121094 L 111.871094 71.773438 L 112.078125 71.417969 L 112.296875 71.050781 L 112.523438 70.675781 L 112.761719 70.292969 L 113.011719 69.902344 L 113.269531 69.5 L 113.539063 69.089844 Z M 114.988281 70.039063 "/>
<path style=" stroke:none;fill-rule:nonzero;fill:rgb(20%,24.705882%,28.235294%);fill-opacity:1;" d="M 122.390625 73.1875 L 122.882813 73.210938 L 123.351563 73.277344 L 123.792969 73.386719 L 124.214844 73.539063 L 124.609375 73.734375 L 124.976563 73.972656 L 125.324219 74.253906 L 125.644531 74.582031 L 125.941406 74.949219 L 126.214844 75.363281 L 126.460938 75.820313 L 126.683594 76.320313 L 126.878906 76.859375 L 127.046875 77.445313 L 127.1875 78.070313 L 127.304688 78.738281 L 127.398438 79.449219 L 127.460938 80.203125 L 127.5 81 L 127.515625 81.839844 L 127.5 82.6875 L 127.460938 83.492188 L 127.398438 84.253906 L 127.304688 84.972656 L 127.1875 85.644531 L 127.046875 86.277344 L 126.878906 86.863281 L 126.683594 87.40625 L 126.460938 87.90625 L 126.214844 88.363281 L 125.941406 88.773438 L 125.644531 89.136719 L 125.324219 89.460938 L 124.976563 89.738281 L 124.609375 89.976563 L 124.214844 90.171875 L 123.792969 90.320313 L 123.351563 90.429688 L 122.882813 90.492188 L 122.390625 90.515625 L 121.890625 90.492188 L 121.417969 90.425781 L 120.972656 90.320313 L 120.550781 90.167969 L 120.152344 89.96875 L 119.777344 89.730469 L 119.429688 89.449219 L 119.109375 89.121094 L 118.8125 88.753906 L 118.539063 88.339844 L 118.292969 87.882813 L 118.070313 87.382813 L 117.875 86.839844 L 117.707031 86.253906 L 117.5625 85.625 L 117.445313 84.957031 L 117.355469 84.242188 L 117.289063 83.484375 L 117.253906 82.683594 L 117.238281 81.839844 L 117.289063 80.195313 L 117.445313 78.726563 L 117.703125 77.425781 L 118.0625 76.304688 L 118.527344 75.351563 L 119.09375 74.574219 L 119.761719 73.96875 L 120.535156 73.535156 L 121.410156 73.277344 Z M 122.390625 74.9375 L 122.105469 74.957031 L 121.839844 75.003906 L 121.585938 75.082031 L 121.347656 75.195313 L 121.125 75.339844 L 120.917969 75.515625 L 120.726563 75.722656 L 120.550781 75.964844 L 120.386719 76.234375 L 120.238281 76.539063 L 120.109375 76.875 L 119.996094 77.253906 L 119.894531 77.675781 L 119.808594 78.144531 L 119.734375 78.652344 L 119.671875 79.203125 L 119.625 79.796875 L 119.589844 80.433594 L 119.570313 81.117188 L 119.5625 81.839844 L 119.570313 82.566406 L 119.589844 83.253906 L 119.625 83.894531 L 119.671875 84.492188 L 119.734375 85.046875 L 119.808594 85.554688 L 119.894531 86.023438 L 119.996094 86.445313 L 120.109375 86.828125 L 120.238281 87.164063 L 120.386719 87.464844 L 120.550781 87.730469 L 120.726563 87.96875 L 120.917969 88.171875 L 121.125 88.34375 L 121.347656 88.488281 L 121.585938 88.597656 L 121.839844 88.675781 L 122.105469 88.722656 L 122.390625 88.738281 L 122.667969 88.722656 L 122.929688 88.675781 L 123.175781 88.597656 L 123.410156 88.488281 L 123.625 88.34375 L 123.828125 88.171875 L 124.015625 87.96875 L 124.1875 87.730469 L 124.347656 87.464844 L 124.488281 87.164063 L 124.621094 86.828125 L 124.742188 86.445313 L 124.847656 86.023438 L 124.9375 85.554688 L 125.015625 85.046875 L 125.078125 84.492188 L 125.125 83.894531 L 125.160156 83.253906 L 125.183594 82.566406 L 125.1875 81.839844 L 125.183594 81.109375 L 125.160156 80.425781 L 125.128906 79.785156 L 125.082031 79.1875 L 125.019531 78.632813 L 124.945313 78.121094 L 124.859375 77.65625 L 124.757813 77.230469 L 124.640625 76.851563 L 124.515625 76.515625 L 124.371094 76.214844 L 124.214844 75.945313 L 124.039063 75.710938 L 123.851563 75.507813 L 123.644531 75.332031 L 123.425781 75.191406 L 123.1875 75.082031 L 122.9375 75.003906 L 122.671875 74.953125 Z M 122.390625 74.9375 "/>
<path style=" stroke:none;fill-rule:nonzero;fill:rgb(20%,24.705882%,28.235294%);fill-opacity:1;" d="M 131.214844 69.089844 L 131.488281 69.507813 L 131.75 69.917969 L 132.003906 70.316406 L 132.242188 70.707031 L 132.46875 71.082031 L 132.6875 71.449219 L 132.890625 71.808594 L 133.085938 72.152344 L 133.269531 72.488281 L 133.4375 72.8125 L 133.605469 73.140625 L 133.765625 73.476563 L 133.921875 73.824219 L 134.070313 74.183594 L 134.214844 74.550781 L 134.351563 74.933594 L 134.480469 75.324219 L 134.605469 75.726563 L 134.726563 76.140625 L 134.839844 76.5625 L 134.945313 76.996094 L 135.035156 77.4375 L 135.121094 77.894531 L 135.191406 78.363281 L 135.25 78.84375 L 135.300781 79.339844 L 135.339844 79.84375 L 135.367188 80.363281 L 135.382813 80.894531 L 135.390625 81.4375 L 135.382813 81.984375 L 135.367188 82.515625 L 135.339844 83.035156 L 135.300781 83.542969 L 135.25 84.039063 L 135.191406 84.523438 L 135.121094 84.996094 L 135.035156 85.457031 L 134.945313 85.902344 L 134.839844 86.339844 L 134.726563 86.757813 L 134.605469 87.167969 L 134.480469 87.566406 L 134.351563 87.957031 L 134.214844 88.332031 L 134.070313 88.699219 L 133.921875 89.058594 L 133.765625 89.402344 L 133.605469 89.738281 L 133.4375 90.0625 L 133.269531 90.390625 L 133.085938 90.726563 L 132.890625 91.070313 L 132.6875 91.429688 L 132.46875 91.796875 L 132.242188 92.171875 L 132.003906 92.5625 L 131.75 92.960938 L 131.488281 93.371094 L 131.214844 93.789063 L 129.765625 92.839844 L 129.992188 92.464844 L 130.214844 92.09375 L 130.425781 91.734375 L 130.625 91.378906 L 130.8125 91.03125 L 130.992188 90.695313 L 131.164063 90.363281 L 131.324219 90.039063 L 131.472656 89.722656 L 131.613281 89.414063 L 131.75 89.101563 L 131.882813 88.777344 L 132.007813 88.449219 L 132.125 88.113281 L 132.238281 87.769531 L 132.347656 87.417969 L 132.445313 87.058594 L 132.542969 86.695313 L 132.632813 86.320313 L 132.714844 85.9375 L 132.789063 85.542969 L 132.859375 85.136719 L 132.917969 84.714844 L 132.96875 84.28125 L 133.015625 83.839844 L 133.050781 83.382813 L 133.078125 82.914063 L 133.097656 82.433594 L 133.109375 81.941406 L 133.113281 81.4375 L 133.109375 80.933594 L 133.097656 80.445313 L 133.078125 79.964844 L 133.050781 79.5 L 133.015625 79.046875 L 132.96875 78.605469 L 132.917969 78.175781 L 132.859375 77.757813 L 132.789063 77.355469 L 132.714844 76.964844 L 132.632813 76.578125 L 132.542969 76.199219 L 132.445313 75.832031 L 132.347656 75.472656 L 132.238281 75.121094 L 132.125 74.777344 L 132.007813 74.441406 L 131.882813 74.117188 L 131.75 73.796875 L 131.613281 73.488281 L 131.472656 73.175781 L 131.324219 72.855469 L 131.164063 72.527344 L 130.992188 72.191406 L 130.8125 71.851563 L 130.625 71.503906 L 130.425781 71.148438 L 130.214844 70.785156 L 129.992188 70.414063 L 129.765625 70.039063 Z M 131.214844 69.089844 "/>
<path style=" stroke:none;fill-rule:nonzero;fill:rgb(20%,24.705882%,28.235294%);fill-opacity:1;" d="M 141.765625 70.015625 L 141.765625 92.738281 L 139.664063 92.738281 L 139.664063 70.015625 Z M 141.765625 70.015625 "/>
<path style=" stroke:none;fill-rule:nonzero;fill:rgb(20%,24.705882%,28.235294%);fill-opacity:1;" d="M 156.589844 72.988281 L 156.3125 74.890625 L 152.089844 74.890625 L 152.089844 90.1875 L 149.765625 90.1875 L 149.765625 74.890625 L 145.414063 74.890625 L 145.414063 72.988281 Z M 156.589844 72.988281 "/>
<path style=" stroke:none;fill-rule:nonzero;fill:rgb(20%,24.705882%,28.235294%);fill-opacity:1;" d="M 163.9375 80.464844 L 163.9375 78.664063 L 172.5625 78.664063 L 172.5625 80.464844 Z M 163.9375 85.1875 L 163.9375 83.390625 L 172.5625 83.390625 L 172.5625 85.1875 Z M 163.9375 85.1875 "/>
<path style=" stroke:none;fill-rule:nonzero;fill:rgb(20%,24.705882%,28.235294%);fill-opacity:1;" d="M 188.039063 89.613281 L 187.785156 89.785156 L 187.527344 89.9375 L 187.265625 90.074219 L 186.996094 90.191406 L 186.71875 90.289063 L 186.441406 90.371094 L 186.152344 90.433594 L 185.863281 90.476563 L 185.566406 90.503906 L 185.265625 90.515625 L 184.953125 90.503906 L 184.652344 90.476563 L 184.371094 90.429688 L 184.101563 90.367188 L 183.84375 90.28125 L 183.605469 90.179688 L 183.378906 90.0625 L 183.167969 89.921875 L 182.972656 89.765625 L 182.789063 89.589844 L 182.628906 89.398438 L 182.484375 89.1875 L 182.355469 88.964844 L 182.246094 88.730469 L 182.152344 88.476563 L 182.074219 88.210938 L 182.015625 87.925781 L 181.972656 87.628906 L 181.949219 87.316406 L 181.9375 86.988281 L 181.9375 78.738281 L 180.0625 78.738281 L 180.0625 77.039063 L 181.9375 77.039063 L 181.9375 74.015625 L 184.1875 73.738281 L 184.1875 77.039063 L 187.089844 77.039063 L 186.839844 78.738281 L 184.1875 78.738281 L 184.1875 86.964844 L 184.203125 87.289063 L 184.246094 87.574219 L 184.316406 87.832031 L 184.417969 88.050781 L 184.546875 88.238281 L 184.703125 88.390625 L 184.886719 88.511719 L 185.101563 88.597656 L 185.34375 88.648438 L 185.613281 88.664063 L 185.699219 88.664063 L 185.78125 88.660156 L 185.863281 88.652344 L 185.941406 88.644531 L 186.097656 88.621094 L 186.171875 88.601563 L 186.246094 88.585938 L 186.316406 88.5625 L 186.390625 88.539063 L 186.464844 88.511719 L 186.542969 88.484375 L 186.621094 88.453125 L 186.699219 88.417969 L 186.78125 88.382813 L 186.867188 88.34375 L 186.949219 88.304688 L 187.035156 88.257813 L 187.125 88.214844 L 187.214844 88.164063 Z M 188.039063 89.613281 "/>
<path style=" stroke:none;fill-rule:nonzero;fill:rgb(20%,24.705882%,28.235294%);fill-opacity:1;" d="M 193.765625 69.863281 L 193.765625 93.089844 L 189.0625 93.089844 L 189.0625 91.3125 L 191.640625 91.3125 L 191.640625 71.664063 L 189.0625 71.664063 L 189.0625 69.863281 Z M 193.765625 69.863281 "/>
</g>
</svg>
