<?xml version="1.0" encoding="UTF-8" standalone="no"?>
<svg
   width="209.83784mm"
   height="181.92316mm"
   viewBox="0 0 209.83784 181.92315"
   version="1.1"
   id="svg921"
   inkscape:version="1.1.2 (b8e25be833, 2022-02-05)"
   sodipodi:docname="logo_white.svg"
   inkscape:export-filename="C:\Users\mc72574\Dropbox\Hugo\Sites\website_github\static\images\favicon-32x32.png"
   inkscape:export-xdpi="3.909343"
   inkscape:export-ydpi="3.909343"
   xmlns:inkscape="http://www.inkscape.org/namespaces/inkscape"
   xmlns:sodipodi="http://sodipodi.sourceforge.net/DTD/sodipodi-0.dtd"
   xmlns="http://www.w3.org/2000/svg"
   xmlns:svg="http://www.w3.org/2000/svg"
   xmlns:rdf="http://www.w3.org/1999/02/22-rdf-syntax-ns#"
   xmlns:cc="http://creativecommons.org/ns#"
   xmlns:dc="http://purl.org/dc/elements/1.1/">
  <defs
     id="defs915">
    <rect
       x="238.28346"
       y="114.65751"
       width="515.9375"
       height="104.36342"
       id="rect865" />
    <pattern
       id="EMFhbasepattern"
       patternUnits="userSpaceOnUse"
       width="6"
       height="6"
       x="0"
       y="0" />
  </defs>
  <sodipodi:namedview
     id="base"
     pagecolor="#ffffff"
     bordercolor="#666666"
     borderopacity="1.0"
     inkscape:pageopacity="0.0"
     inkscape:pageshadow="2"
     inkscape:zoom="0.525169"
     inkscape:cx="722.62453"
     inkscape:cy="139.00287"
     inkscape:document-units="mm"
     inkscape:current-layer="g893"
     inkscape:document-rotation="0"
     showgrid="false"
     fit-margin-top="0"
     fit-margin-left="0"
     fit-margin-right="0"
     fit-margin-bottom="0"
     inkscape:window-width="2560"
     inkscape:window-height="1377"
     inkscape:window-x="-8"
     inkscape:window-y="-8"
     inkscape:window-maximized="1"
     inkscape:pagecheckerboard="0" />
  <metadata
     id="metadata918">
    <rdf:RDF>
      <cc:Work
         rdf:about="">
        <dc:format>image/svg+xml</dc:format>
        <dc:type
           rdf:resource="http://purl.org/dc/dcmitype/StillImage" />
      </cc:Work>
    </rdf:RDF>
  </metadata>
  <g
     inkscape:label="Layer 1"
     inkscape:groupmode="layer"
     id="layer1"
     transform="translate(-0.1584573,-112.2107)">
    <g
       id="g893"
       transform="translate(0,36.182348)">
      <path
         style="fill:#ffffff;stroke:#000000;stroke-width:4.23077px;stroke-linecap:butt;stroke-linejoin:miter;stroke-miterlimit:8;stroke-dasharray:none;stroke-opacity:1;fill-opacity:1"
         d="M 2.5235295,166.98998 46.94661,78.143736 h 116.26154 l 44.42308,88.846244 -44.42308,88.84615 H 46.94661 Z"
         id="path1533" />
      <path
         style="fill:#000000;fill-opacity:1;fill-rule:nonzero;stroke:none;stroke-width:0.264583"
         d="m 118.85911,209.64671 h -18.78462 l -1.04711,-38.74327 c -0.0846,-1.91443 -0.12692,-4.51635 -0.12692,-7.82693 0,-4.34712 0.12692,-8.57788 0.39134,-12.71346 0.26443,-4.125 0.57115,-8.45096 0.90962,-12.97789 L 90.03699,194.25728 H 73.8543 L 62.76969,137.38516 c 0.9625,9.9952 1.43846,18.99616 1.43846,27.00289 l -0.1375,6.90673 -0.64519,38.35193 H 45.03219 l 5.0875,-90.39039 H 72.162 l 10.048071,58.4375 9.519229,-58.4375 h 22.04231 z m 26.87596,-12.39616 c 0,-3.91346 1.41731,-7.29807 4.24135,-10.175 2.82403,-2.86634 6.24038,-4.29423 10.23846,-4.29423 3.99807,0 7.41442,1.42789 10.23846,4.29423 2.82404,2.87693 4.24135,6.26154 4.24135,10.175 0,4.00866 -1.41731,7.43558 -4.24135,10.3125 -2.82404,2.86635 -6.24039,4.30481 -10.23846,4.30481 -3.99808,0 -7.41443,-1.43846 -10.23846,-4.30481 -2.82404,-2.87692 -4.24135,-6.30384 -4.24135,-10.3125 z"
         id="path1487" />
      <path
         style="fill:none;stroke:#ffffff;stroke-width:8.8px;stroke-linecap:butt;stroke-linejoin:miter;stroke-miterlimit:8;stroke-dasharray:none;stroke-opacity:1"
         d="m 128.76969,173.45248 21.95769,-25.88174"
         id="path1489" />
      <path
         style="fill:none;stroke:#ffffff;stroke-width:8.8px;stroke-linecap:butt;stroke-linejoin:miter;stroke-miterlimit:8;stroke-dasharray:none;stroke-opacity:1"
         d="m 93.86584,161.53228 26.7649,16.63221"
         id="path1491" />
      <path
         style="fill:none;stroke:#ffffff;stroke-width:8.8px;stroke-linecap:butt;stroke-linejoin:miter;stroke-miterlimit:8;stroke-dasharray:none;stroke-opacity:1"
         d="M 59.97738,184.32026 81.586032,159.88228"
         id="path1493" />
      <path
         style="fill:#ffffff;fill-opacity:1;fill-rule:evenodd;stroke:none;stroke-width:0.264583"
         d="m 145.84084,142.17651 c 0,-5.60577 4.54808,-10.15384 10.15385,-10.15384 5.61634,0 10.15384,4.54807 10.15384,10.15384 0,5.61635 -4.5375,10.15385 -10.15384,10.15385 -5.60577,0 -10.15385,-4.5375 -10.15385,-10.15385 z"
         id="path1495" />
      <path
         style="fill:none;stroke:#ffffff;stroke-width:3.17308px;stroke-linecap:butt;stroke-linejoin:miter;stroke-miterlimit:8;stroke-dasharray:none;stroke-opacity:1"
         d="m 145.84084,142.17651 c 0,-5.60577 4.54808,-10.15384 10.15385,-10.15384 5.61634,0 10.15384,4.54807 10.15384,10.15384 0,5.61635 -4.5375,10.15385 -10.15384,10.15385 -5.60577,0 -10.15385,-4.5375 -10.15385,-10.15385"
         id="path1497" />
      <path
         style="fill:#ffffff;fill-opacity:1;fill-rule:evenodd;stroke:none;stroke-width:0.264583"
         d="m 115.16776,180.29575 c 0,-5.60577 4.54808,-10.15385 10.15385,-10.15385 5.61106,0 10.15385,4.54808 10.15385,10.15385 0,5.61105 -4.54279,10.15384 -10.15385,10.15384 -5.60577,0 -10.15385,-4.54279 -10.15385,-10.15384 z"
         id="path1499" />
      <path
         style="fill:none;stroke:#ffffff;stroke-width:3.17308px;stroke-linecap:butt;stroke-linejoin:miter;stroke-miterlimit:8;stroke-dasharray:none;stroke-opacity:1"
         d="m 115.16776,180.29575 c 0,-5.60577 4.54808,-10.15385 10.15385,-10.15385 5.61634,0 10.15385,4.54808 10.15385,10.15385 0,5.61634 -4.53751,10.15384 -10.15385,10.15384 -5.60577,0 -10.15385,-4.5375 -10.15385,-10.15384"
         id="path1501" />
      <path
         style="fill:#ffffff;fill-opacity:1;fill-rule:evenodd;stroke:none;stroke-width:0.264583"
         d="m 76.16007,154.95343 c 0,-5.60577 4.548078,-10.15384 10.15385,-10.15384 5.61106,0 10.15384,4.54807 10.15384,10.15384 0,5.61106 -4.54278,10.15385 -10.15384,10.15385 -5.605772,0 -10.15385,-4.54279 -10.15385,-10.15385 z"
         id="path1503" />
      <path
         style="fill:none;stroke:#ffffff;stroke-width:3.17308px;stroke-linecap:butt;stroke-linejoin:miter;stroke-miterlimit:8;stroke-dasharray:none;stroke-opacity:1"
         d="m 76.16007,154.95343 c 0,-5.60577 4.548078,-10.15384 10.15385,-10.15384 5.61106,0 10.15384,4.54807 10.15384,10.15384 0,5.61106 -4.54278,10.15385 -10.15384,10.15385 -5.605772,0 -10.15385,-4.54279 -10.15385,-10.15385"
         id="path1505" />
      <path
         style="fill:#ffffff;fill-opacity:1;fill-rule:evenodd;stroke:none;stroke-width:0.264583"
         d="m 43.79469,189.98421 c 0,-5.60577 4.54807,-10.15385 10.15384,-10.15385 5.61106,0 10.15385,4.54808 10.15385,10.15385 0,5.61105 -4.54279,10.15384 -10.15385,10.15384 -5.60577,0 -10.15384,-4.54279 -10.15384,-10.15384 z"
         id="path1507" />
      <path
         style="fill:none;stroke:#ffffff;stroke-width:3.17308px;stroke-linecap:butt;stroke-linejoin:miter;stroke-miterlimit:8;stroke-dasharray:none;stroke-opacity:1"
         d="m 43.79469,189.98421 c 0,-5.60577 4.54807,-10.15385 10.15384,-10.15385 5.61106,0 10.15385,4.54808 10.15385,10.15385 0,5.61105 -4.54279,10.15384 -10.15385,10.15384 -5.60577,0 -10.15384,-4.54279 -10.15384,-10.15384"
         id="path1509" />
      <path
         style="fill:#5601a4;fill-opacity:1;fill-rule:evenodd;stroke:none;stroke-width:0.264583"
         d="m 46.33315,190.15344 c 0,-4.20433 3.41106,-7.61539 7.61538,-7.61539 4.20962,0 7.61539,3.41106 7.61539,7.61539 0,4.20961 -3.40577,7.61538 -7.61539,7.61538 -4.20432,0 -7.61538,-3.40577 -7.61538,-7.61538 z"
         id="path1511" />
      <path
         style="fill:none;stroke:#000000;stroke-width:3.17308px;stroke-linecap:butt;stroke-linejoin:miter;stroke-miterlimit:8;stroke-dasharray:none;stroke-opacity:1"
         d="m 46.33315,190.15344 c 0,-4.20433 3.41106,-7.61539 7.61538,-7.61539 4.20962,0 7.61539,3.41106 7.61539,7.61539 0,4.20961 -3.40577,7.61538 -7.61539,7.61538 -4.20432,0 -7.61538,-3.40577 -7.61538,-7.61538"
         id="path1513" />
      <path
         style="fill:#bf3984;fill-opacity:1;fill-rule:evenodd;stroke:none;stroke-width:0.264583"
         d="m 78.698531,154.95343 c 0,-4.20432 3.411059,-7.61538 7.615389,-7.61538 4.20961,0 7.61538,3.41106 7.61538,7.61538 0,4.20962 -3.40577,7.61539 -7.61538,7.61539 -4.20433,0 -7.615389,-3.40577 -7.615389,-7.61539 z"
         id="path1515" />
      <path
         style="fill:none;stroke:#000000;stroke-width:3.17308px;stroke-linecap:butt;stroke-linejoin:miter;stroke-miterlimit:8;stroke-dasharray:none;stroke-opacity:1"
         d="m 78.698531,154.95343 c 0,-4.20432 3.411059,-7.61538 7.615389,-7.61538 4.20961,0 7.61538,3.41106 7.61538,7.61538 0,4.20962 -3.40577,7.61539 -7.61538,7.61539 -4.20433,0 -7.615389,-3.40577 -7.615389,-7.61539"
         id="path1517" />
      <path
         style="fill:#f89441;fill-opacity:1;fill-rule:evenodd;stroke:none;stroke-width:0.264583"
         d="m 118.10286,182.77603 c -1.375,-3.97692 0.7351,-8.30817 4.71202,-9.68317 3.97692,-1.36971 8.31346,0.74038 9.68317,4.71202 1.375,3.97692 -0.7351,8.31346 -4.71202,9.68317 -3.97692,1.375 -8.31346,-0.73509 -9.68317,-4.71202 z"
         id="path1519" />
      <path
         style="fill:none;stroke:#000000;stroke-width:3.17308px;stroke-linecap:butt;stroke-linejoin:miter;stroke-miterlimit:8;stroke-dasharray:none;stroke-opacity:1"
         d="m 118.10815,182.78132 c -1.375,-3.97692 0.72981,-8.31346 4.70673,-9.68846 3.97692,-1.36442 8.31346,0.74038 9.68846,4.71731 1.375,3.97692 -0.74039,8.31346 -4.71731,9.67788 -3.97692,1.375 -8.31346,-0.7298 -9.67788,-4.70673"
         id="path1521" />
      <path
         style="fill:#fcce25;fill-opacity:1;fill-rule:evenodd;stroke:none;stroke-width:0.264583"
         d="m 148.3793,142.17651 c 0,-4.19904 3.41635,-7.61538 7.61539,-7.61538 4.20961,0 7.61538,3.41634 7.61538,7.61538 0,4.20961 -3.40577,7.61538 -7.61538,7.61538 -4.19904,0 -7.61539,-3.40577 -7.61539,-7.61538 z"
         id="path1523" />
      <path
         style="fill:none;stroke:#000000;stroke-width:3.17308px;stroke-linecap:butt;stroke-linejoin:miter;stroke-miterlimit:8;stroke-dasharray:none;stroke-opacity:1"
         d="m 148.3793,142.17651 c 0,-4.19904 3.41635,-7.61538 7.61539,-7.61538 4.20961,0 7.61538,3.41634 7.61538,7.61538 0,4.20961 -3.40577,7.61538 -7.61538,7.61538 -4.19904,0 -7.61539,-3.40577 -7.61539,-7.61538"
         id="path1525" />
      <path
         style="fill:none;stroke:#000000;stroke-width:3.17308px;stroke-linecap:butt;stroke-linejoin:miter;stroke-miterlimit:8;stroke-dasharray:none;stroke-opacity:1"
         d="M 59.32161,184.76449 80.930263,160.32651"
         id="path1527" />
      <path
         style="fill:none;stroke:#000000;stroke-width:3.17308px;stroke-linecap:butt;stroke-linejoin:miter;stroke-miterlimit:8;stroke-dasharray:none;stroke-opacity:1"
         d="m 91.68699,160.32651 26.76491,16.63222"
         id="path1529" />
      <path
         style="fill:none;stroke:#000000;stroke-width:3.17308px;stroke-linecap:butt;stroke-linejoin:miter;stroke-miterlimit:8;stroke-dasharray:none;stroke-opacity:1"
         d="m 128.66392,173.47363 21.95769,-25.88174"
         id="path1531" />
      <path
         style="fill:#ffffff;fill-opacity:1;stroke-width:1.90415"
         d="M 100.9199,507.4557 19.059202,343.69889 100.9199,179.94208 182.78059,16.185266 H 396.52798 610.27536 L 692.15815,179.94208 774.04093,343.69889 692.15815,507.4557 610.27536,671.21251 H 396.52798 182.78059 Z m 525.98085,2.75896 c 9.8591,-4.0586 24.41948,-19.00874 29.09233,-29.87109 6.02561,-14.00686 4.86688,-36.97572 -2.49944,-49.54539 -11.34625,-19.36091 -30.13038,-29.24835 -52.51332,-27.64154 -14.76849,1.0602 -25.58935,5.99823 -35.53502,16.21619 -12.02741,12.35669 -15.10108,20.21055 -15.09668,38.575 0.004,13.84938 0.73808,17.58405 5.09127,25.87742 8.02071,15.28049 21.99964,25.9727 38.32403,29.3133 9.44661,1.93313 24.58244,0.5976 33.13683,-2.92389 z M 240.87484,479.48405 v -26.06749 l -6.08773,6.2267 c -10.33515,10.57104 -19.30352,14.0391 -34.13743,13.20089 -10.82365,-0.61157 -14.36155,-1.72974 -21.58681,-6.82258 l -8.64154,-6.09111 v 11.10633 c 0,6.10847 -0.5505,16.37323 -1.22333,22.81055 l -1.22333,11.70421 h 36.45009 36.45008 z m 208.09049,15.11864 c -0.36128,-6.02187 -1.36793,-23.61986 -2.23704,-39.10665 -1.36175,-24.26527 -2.11246,-28.74017 -5.43042,-32.37053 -5.91939,-6.47673 -9.87227,-15.45975 -11.43908,-25.99563 l -1.42527,-9.58402 -27.49098,-17.12361 c -15.12005,-9.418 -27.72445,-16.89017 -28.00979,-16.60483 -0.28533,0.28534 0.27984,25.75937 1.25592,56.60894 0.97611,30.84957 1.79859,64.87302 1.82774,75.60766 l 0.053,19.51753 h 36.77637 36.77637 z M 219.07931,462.7407 c 5.34801,-2.68456 11.41261,-7.67526 14.03245,-11.54763 5.97396,-8.83009 7.53327,-24.72277 3.2651,-33.27853 -2.44517,-4.90143 -2.58139,-6.72067 -0.6981,-9.32319 1.28692,-1.77842 17.61062,-20.46484 36.27488,-41.52541 l 33.93502,-38.29196 6.46698,2.70208 c 8.7282,3.64688 19.46764,3.39799 27.53495,-0.63814 l 6.66452,-3.3343 45.69958,28.33726 45.69957,28.33728 0.0627,10.9365 c 0.0499,8.70887 1.14211,12.56771 5.36235,18.94489 12.9652,19.59173 45.11624,20.31148 57.97937,1.29797 9.36514,-13.843 9.67335,-25.75606 1.05412,-40.74289 -2.62889,-4.57098 -4.04485,-9.14784 -3.24004,-10.47282 1.30885,-2.15485 62.80115,-75.16361 68.29502,-81.08553 1.88153,-2.02813 3.26111,-2.09484 6.58086,-0.31817 2.31013,1.23635 8.75007,2.28881 14.31099,2.33877 20.69955,0.18604 35.79324,-14.75721 35.79324,-35.43638 0,-43.97527 -65.13962,-47.47235 -70.31495,-3.77492 -0.76284,6.44107 -0.15671,11.62321 1.94869,16.66231 1.68074,4.02257 2.45513,8.29381 1.72089,9.49165 -0.73424,1.19786 -17.5422,21.2432 -37.35102,44.54522 l -36.01606,42.36732 h -10.3159 c -9.58412,0 -17.87212,2.95305 -27.37782,9.75482 -4.39436,3.14438 -88.82588,-49.58177 -87.66648,-54.7463 0.44008,-1.96038 0.86852,-9.19885 0.95207,-16.08551 0.18032,-14.85619 -4.68407,-23.71471 -16.7439,-30.49272 -8.93168,-5.01988 -24.28112,-5.59498 -32.65662,-1.22353 -7.3784,3.85101 -15.37547,12.38695 -17.92371,19.13143 -2.87561,7.61094 -2.50718,21.50704 0.73654,27.77972 l 2.76184,5.3408 -33.41018,37.88403 c -18.37559,20.83621 -34.82782,39.35805 -36.56048,41.15965 -2.9135,3.0294 -3.7944,3.05307 -11.71897,0.31483 -23.0764,-7.97382 -45.69958,8.68574 -45.69958,33.65284 0,16.38037 7.86735,28.18106 22.19322,33.28894 10.75102,3.83326 17.81448,3.34765 28.36891,-1.95038 z M 348.7509,401.77543 c 4.46696,-25.13477 8.60578,-48.38757 9.19738,-51.67289 0.94438,-5.24441 0.30975,-6.42519 -5.20078,-9.67648 -5.50436,-3.24764 -7.09105,-3.40906 -12.89893,-1.31212 -3.64238,1.31509 -10.54474,2.45626 -15.33859,2.53593 l -8.71609,0.14491 -2.82877,17.61337 -2.82876,17.61338 -2.53027,-14.81167 c -1.39165,-8.14642 -3.0852,-15.15464 -3.76348,-15.57384 -1.86267,-1.15119 -38.45872,41.26523 -37.61324,43.59543 0.40375,1.11281 3.18499,14.68196 6.18054,30.15369 l 5.44642,28.13043 31.38643,-0.52027 31.38641,-0.52026 8.12173,-45.69957 z m -164.20178,-9.52872 c 10.08696,-5.11744 21.97707,-6.15035 30.97179,-2.69055 5.09029,1.95798 5.91958,1.4543 16.45924,-9.99678 l 11.09888,-12.05863 -0.81372,-52.3641 -0.8137,-52.36409 8.48443,43.29827 8.48443,43.29827 8.0583,-9.02359 c 20.76437,-23.25172 20.29547,-22.5312 18.21822,-27.99482 -3.35805,-8.8323 -2.20013,-24.08786 2.53044,-33.33856 l 4.35402,-8.51435 -8.14872,-47.65805 c -4.4818,-26.21191 -8.64623,-50.44284 -9.25432,-53.84651 l -1.10561,-6.18848 h -42.75705 c -41.32476,0 -42.75708,0.12613 -42.75708,3.76526 0,5.84443 -11.1524,205.14256 -12.22937,218.54413 -0.52601,6.54551 -0.77441,11.89735 -0.55199,11.89295 0.22242,-0.004 4.61973,-2.14655 9.77181,-4.76037 z m 251.28371,-132.22157 -5.39476,-97.2204 h -42.38123 -42.38126 l -0.99493,4.28433 c -1.08904,4.68947 -14.31081,85.10065 -14.31081,87.03435 0,0.65712 3.8822,2.23309 8.62709,3.50215 9.78575,2.61729 24.73307,16.07345 26.74086,24.07314 1.92765,7.68035 3.83372,5.77239 6.06712,-6.07315 1.77802,-9.4303 1.93288,-7.38354 1.11663,14.75716 l -0.94768,25.70601 33.94228,21.13367 c 18.66825,11.62352 34.25034,20.88379 34.62687,20.57839 0.37653,-0.30539 -1.74306,-44.30445 -4.71018,-97.77565 z"
         id="path4127"
         transform="matrix(0.26458333,0,0,0.26458333,0.1584573,76.028352)" />
    </g>
  </g>
</svg>
